<svg xmlns="http://www.w3.org/2000/svg" width="1332.515" height="1229.16" viewBox="0 0 1332.515 1229.16"><defs><style>.a{opacity:0.046;}.b{fill:#b45ba2;}.c{fill:#ffc312;}.d{fill:#7dc474;}.e{fill:#10733a;}.f{fill:#ffc410;}.g{fill:#04458d;}</style></defs><g class="a" transform="translate(-133.338 -158.071)"><g transform="translate(469.628 263.61)"><path class="b" d="M529.116,582.994a144.319,144.319,0,0,0-125.981,55.151L149.509,281.121,401.554,163.146Z" transform="translate(-149.509 -163.146)"/></g><g transform="translate(857.97 158.071)"><path class="c" d="M277.278,764.79A144.394,144.394,0,0,0,168.183,684.5L457.641,158.071,686.624,316.244Z" transform="translate(-168.183 -158.071)"/></g><g transform="translate(964.714 740.5)"><path class="d" d="M173.316,340.9A144.85,144.85,0,0,0,179.8,218.852l494.65-32.774L652.036,454.22Z" transform="translate(-173.316 -186.078)"/></g><g transform="translate(835.094 908.052)"><path class="e" d="M172.9,194.135" transform="translate(-51.851 -194.135)"/><path class="e" d="M544.756,555.338,292.69,673.313,167.083,257.854a144.421,144.421,0,0,0,121.053-63.719Z" transform="translate(-167.083 -194.135)"/></g><g transform="translate(417.321 1058.554)"><circle class="f" cx="144.408" cy="144.408" r="144.408"/></g><g transform="translate(133.338 632.986)"><path class="g" d="M133.338,449.049l22.418-268.141L714.54,300.838c11.708.977,18.9,29.384,16.055,63.427s-14.64,60.827-26.369,59.85Z" transform="translate(-133.338 -180.908)"/></g></g></svg>