<svg xmlns="http://www.w3.org/2000/svg" width="1985.129" height="608.1" viewBox="0 0 1985.129 608.1"><defs><style>.a{opacity:0.028;}.b{fill:#fff;}</style></defs><g class="a" transform="translate(-133.338 -158.071)"><g transform="translate(299.71 210.284)"><path class="b" d="M337.312,370.857a71.4,71.4,0,0,0-62.327,27.285L149.509,221.512,274.2,163.146Z" transform="translate(-149.509 -163.146)"/></g><g transform="translate(491.834 158.071)"><path class="b" d="M222.155,458.232a71.436,71.436,0,0,0-53.972-39.723l143.2-260.438,113.285,78.253Z" transform="translate(-168.183 -158.071)"/></g><g transform="translate(544.644 446.216)"><path class="b" d="M173.316,262.674a71.661,71.661,0,0,0,3.21-60.382l244.718-16.214L410.153,318.735Z" transform="translate(-173.316 -186.078)"/></g><g transform="translate(480.517 529.108)"><path class="b" d="M172.9,194.135" transform="translate(-113.016 -194.135)"/><path class="b" d="M353.929,372.832,229.224,431.2l-62.141-205.54a71.45,71.45,0,0,0,59.888-31.523Z" transform="translate(-167.083 -194.135)"/></g><g transform="translate(273.833 603.566)"><circle class="b" cx="71.443" cy="71.443" r="71.443"/></g><g transform="translate(133.338 393.025)"><path class="b" d="M133.338,313.566l11.091-132.658,276.447,59.333c5.792.483,9.352,14.537,7.943,31.379s-7.243,30.093-13.046,29.61Z" transform="translate(-133.338 -180.908)"/></g><path class="b" d="M528.936,230.744V160.773H276.646v69.971h86.02V447.827a102.758,102.758,0,0,1,79.838-.2V230.744Z" transform="translate(1331.089 25.097)"/><path class="b" d="M571.1,162.524,521.193,328.2l-55.567-167.5H396.9L341.343,328.2,291.29,162.051a102.506,102.506,0,0,1-84.261.3L303.06,451.667h69.559l58.026-165.858L488.26,451.667h69.559l95.949-289.081Z" transform="translate(684.465 24.354)"/><path class="b" d="M446.8,160.573H369.832L247.782,450.3a102.427,102.427,0,0,1,83.449.2l75.248-191.229h0l77.358,191.455h1.008l84.529-.164Z" transform="translate(1062.991 23.239)"/><g transform="translate(1434.761 370.085)"><circle class="b" cx="35.892" cy="35.892" r="35.892"/></g><path class="b" d="M545.073,198.257c-31.194-24.9-69.343-37.964-118.11-37.964-69.148,0-111.536,38.694-111.536,92.194v.823c0,58.849,47.326,76.133,108.655,90.125,39.507,9.476,48.973,15.649,48.973,27.995v.813c0,12.356-11.523,19.764-33.334,19.764-33.334,0-64.621-11.934-93.428-34.569l-44.446,53.088c35.8,31.688,83.953,47.738,134.993,47.738,69.961,0,116.464-34.98,116.464-93.83V363.6c0-53.911-41.153-75.311-107-89.714-40.34-9.054-50.207-14.815-50.207-27.984v-.823c0-10.7,9.465-18.519,28.807-18.519,25.361,0,53.972,9.362,80.187,28.067A70.407,70.407,0,0,1,545.073,198.257Z" transform="translate(1565.163 20.639)"/><path class="b" d="M387.81,193.538H209.2V416.3a79.5,79.5,0,0,1,61.9-.535V337.122H376.73v-51.37H271.11V247.778H387.172Z" transform="translate(704.676 329.428)"/><path class="b" d="M484.888,193.63l-62.553.4V318.407c0,31.266-16.266,45.948-41.472,45.948-24.9,0-41.164-15.319-41.164-47.553V193.908a79.549,79.549,0,0,1-62.542-.154V318.088c0,69.878,39.888,102.1,103.068,102.1,63.5,0,104.663-31.9,104.663-103.7Z" transform="translate(1335.835 330.283)"/><path class="b" d="M538.317,415.56V193.538H472.9L419.61,280.011l-53.283-86.473H300.914v222.32a79.548,79.548,0,0,1,60.629-.2V288.941l56.791,87.111h1.275l57.121-87.43v127.76Z" transform="translate(1556.497 329.428)"/><path class="b" d="M407.311,339.046c27.758-11.811,45.948-34.466,45.948-68.932v-.638c0-22.017-6.7-38.931-19.785-52.008-15-15-38.612-23.931-72.759-23.931H255.106V416.527A79.381,79.381,0,0,1,317,415.57V246.821h40.845c20.422,0,33.509,8.941,33.509,26.8v.648c0,16.266-12.449,26.482-33.19,26.482H321.7l72.419,116.124,66.257-.309Z" transform="translate(1131.018 329.428)"/><path class="b" d="M228.619,309.887v-.638c0-64.137,51.7-116.145,120.62-116.145s119.972,51.369,119.972,115.507v.638c0,64.137-51.688,116.145-120.61,116.145S228.619,374.024,228.619,309.887Zm120.3-60.948a60.31,60.31,0,1,0,60.31,60.31A60.31,60.31,0,0,0,348.92,248.939Z" transform="translate(884.999 325.397)"/></g></svg>