<svg xmlns="http://www.w3.org/2000/svg" viewBox="0 0 177.09 41.27"><defs><style>.cls-1{fill:#fff;}</style></defs><title>callcenter</title><g id="Layer_2" data-name="Layer 2"><g id="Layer_10" data-name="Layer 10"><path class="cls-1" d="M56,40.73V7.66H48.89V.52h14.6V40.73Z"/><path class="cls-1" d="M107,12.84a11.06,11.06,0,0,1-.34,2.77,14.52,14.52,0,0,1-.93,2.59,20.12,20.12,0,0,1-1.34,2.4c-.51.76-1,1.49-1.61,2.19s-1.13,1.34-1.71,1.95-1.14,1.18-1.67,1.7l-7.3,7.22H106.8v7H80V35.4L93.5,22c.76-.75,1.49-1.53,2.21-2.34a22.24,22.24,0,0,0,1.89-2.43,15,15,0,0,0,1.32-2.38,5.46,5.46,0,0,0-1.24-6.26,6.11,6.11,0,0,0-1.92-1.2A6.22,6.22,0,0,0,93.43,7a6.13,6.13,0,0,0-2.31.44,4.86,4.86,0,0,0-1.9,1.43A7.37,7.37,0,0,0,88,11.44a14.19,14.19,0,0,0-.46,3.9H79.9a21.51,21.51,0,0,1,.61-4.82A16.33,16.33,0,0,1,82,6.64a12.55,12.55,0,0,1,4.94-5A13,13,0,0,1,90.09.4,13.94,13.94,0,0,1,93.43,0,14.34,14.34,0,0,1,97,.45a13.56,13.56,0,0,1,3.23,1.26,12.81,12.81,0,0,1,2.74,2,13.07,13.07,0,0,1,2.11,2.59A12.57,12.57,0,0,1,107,12.84Z"/><path class="cls-1" d="M142.51,26.37a14.19,14.19,0,0,1-.52,3.85,15.72,15.72,0,0,1-1.45,3.52,15,15,0,0,1-2.27,3,14.33,14.33,0,0,1-3,2.38,14.69,14.69,0,0,1-3.5,1.55,13.6,13.6,0,0,1-3.89.56,14.11,14.11,0,0,1-3.92-.54,14.75,14.75,0,0,1-3.5-1.51,14.3,14.3,0,0,1-3-2.32,15,15,0,0,1-2.26-3,16,16,0,0,1-1.46-3.56,15.16,15.16,0,0,1-.52-3.94,16.07,16.07,0,0,1,.2-2.55,14.17,14.17,0,0,1,.57-2.33,14.67,14.67,0,0,1,.9-2.16,21.5,21.5,0,0,1,1.23-2.09L127.54.45h9l-7.53,11a13.89,13.89,0,0,1,3.65.78A14.4,14.4,0,0,1,136,13.9a14.59,14.59,0,0,1,2.71,2.37,15.53,15.53,0,0,1,2.06,3,15.34,15.34,0,0,1,1.32,3.42A14.81,14.81,0,0,1,142.51,26.37Zm-7.51,0a7.78,7.78,0,0,0-.6-3.07,8,8,0,0,0-1.57-2.46,7.32,7.32,0,0,0-2.27-1.64,6.26,6.26,0,0,0-2.63-.59,6.33,6.33,0,0,0-2.64.57,6.81,6.81,0,0,0-2.23,1.59,7.74,7.74,0,0,0-1.55,2.46,8.76,8.76,0,0,0,0,6.27A7.63,7.63,0,0,0,123.06,32a7,7,0,0,0,2.23,1.6,6.48,6.48,0,0,0,2.64.56,6.26,6.26,0,0,0,2.63-.59,7.46,7.46,0,0,0,2.27-1.63,8.21,8.21,0,0,0,1.57-2.46A7.82,7.82,0,0,0,135,26.37Z"/><path class="cls-1" d="M177.09,26.29a14.81,14.81,0,0,1-.57,4.15,14.56,14.56,0,0,1-1.6,3.62,14.36,14.36,0,0,1-2.46,3,15.42,15.42,0,0,1-3.19,2.28,16.2,16.2,0,0,1-3.72,1.43,16.55,16.55,0,0,1-4.12.51,14.77,14.77,0,0,1-3.9-.52,13.58,13.58,0,0,1-3.77-1.65,18,18,0,0,1-3.55-3A23.74,23.74,0,0,1,147,31.69l6.77-2.89a18.86,18.86,0,0,0,2.07,2.63,10.88,10.88,0,0,0,2,1.65,6.91,6.91,0,0,0,1.89.87,7.22,7.22,0,0,0,1.8.25,8.72,8.72,0,0,0,3.18-.58A7.45,7.45,0,0,0,169,29.48a8.31,8.31,0,0,0,.62-3.26,6.6,6.6,0,0,0-.64-2.89A7.67,7.67,0,0,0,167.21,21a8.2,8.2,0,0,0-2.52-1.58,8.08,8.08,0,0,0-3-.58,14.35,14.35,0,0,0-2,.16,16.17,16.17,0,0,0-2.36.56c-.85.26-1.79.62-2.81,1.05s-2.13,1-3.35,1.67V.52h22.5V7.59h-14.9v4.56c.57-.11,1.14-.2,1.7-.27a15.51,15.51,0,0,1,1.64-.1,16,16,0,0,1,4.08.52,15.46,15.46,0,0,1,3.6,1.47,14.8,14.8,0,0,1,3,2.27,14.33,14.33,0,0,1,4.3,10.25Z"/><path class="cls-1" d="M37.14,30.36a8.6,8.6,0,0,1-.27,1.86,10.36,10.36,0,0,1-.55,1.8q-.55,1.32-3.22,2.8a10.19,10.19,0,0,1-4.9,1.35,10.45,10.45,0,0,1-1.39-.1,11.12,11.12,0,0,1-1.52-.33c-.56-.16-1-.28-1.25-.38l-1.46-.54-1.29-.48a23.54,23.54,0,0,1-4.62-2.18,39.26,39.26,0,0,1-7-5.69A39.13,39.13,0,0,1,4,21.5a24.72,24.72,0,0,1-2.19-4.62c-.05-.16-.21-.59-.47-1.29S.9,14.4.8,14.12s-.22-.69-.38-1.25a10.81,10.81,0,0,1-.33-1.52A10.32,10.32,0,0,1,0,10,10.23,10.23,0,0,1,1.35,5.06c1-1.77,1.91-2.85,2.79-3.21A10.13,10.13,0,0,1,6,1.29,9,9,0,0,1,7.81,1a1.33,1.33,0,0,1,.55.08c.32.1.78.77,1.4,2,.19.34.46.81.79,1.43s.64,1.17.92,1.67.56,1,.82,1.41c.05.07.21.29.46.66a6.36,6.36,0,0,1,.57.94,1.72,1.72,0,0,1,.18.75,2.2,2.2,0,0,1-.75,1.32,12.51,12.51,0,0,1-1.63,1.45,14.91,14.91,0,0,0-1.64,1.4,2,2,0,0,0-.75,1.21,1.66,1.66,0,0,0,.13.59,3.93,3.93,0,0,0,.23.54,6.33,6.33,0,0,0,.37.64l.3.5a28,28,0,0,0,4.59,6.2,27.81,27.81,0,0,0,6.2,4.59s.2.11.5.3.51.31.63.37.3.13.54.22a1.76,1.76,0,0,0,.59.13A2,2,0,0,0,24,28.68a16,16,0,0,0,1.4-1.63,12.6,12.6,0,0,1,1.45-1.64,2.15,2.15,0,0,1,1.32-.75,1.79,1.79,0,0,1,.75.18,9.89,9.89,0,0,1,.93.57l.66.46c.44.27.91.54,1.41.82l1.68.92c.61.34,1.09.6,1.42.8,1.23.61,1.9,1.08,2,1.39A1.58,1.58,0,0,1,37.14,30.36Z"/></g></g></svg>