<svg xmlns="http://www.w3.org/2000/svg" width="194.421" height="49.009" viewBox="0 0 194.421 49.009"><defs><style>.a{fill:#015088;}.b{fill:#0e385f;}</style></defs><g transform="translate(0 0.001)"><path class="a" d="M199.283,123.607c.275-.659.731-.792,1.02-.294a3.32,3.32,0,0,1,.19,2.153l-2.017,7.629c-.184.69-.684.789-1.118.222l-.592-.779a2.482,2.482,0,0,1-.285-2.226Z" transform="translate(-170.776 -123.012)"/><path class="b" d="M202.3,124.989c.082-.709.44-.782.795-.168l.849,1.466a6.076,6.076,0,0,1,.684,2.416l.285,10.023a4.012,4.012,0,0,0,.364,1.726c.181.237-.168.735-.776,1.108l-3.328,2.049a1.727,1.727,0,0,1-2.02-.234l-2.255-2.239a2.483,2.483,0,0,1-.589-2.166L198,132.583c.18-.687.684-.788,1.115-.222l1.245,1.631c.431.567.852.453.934-.257Z" transform="translate(-170.959 -119.995)"/><path class="a" d="M199.724,128a2.493,2.493,0,0,0-.285-2.226l-.146-.19a.8.8,0,0,0-1.435.092l-3.278,5.678a1.772,1.772,0,0,0,.272,2.033l.931.925a.811.811,0,0,0,1.419-.282Z" transform="translate(-175.02 -118.308)"/><path class="a" d="M199.624,132.4a1.152,1.152,0,0,1,.317-1.71l2.784-1.713a1.255,1.255,0,0,1,1.751.443l2.983,5.165a1.126,1.126,0,0,1-.542,1.634l-2.106.912a1.739,1.739,0,0,1-1.973-.513Z" transform="translate(-164.191 -110.487)"/><path class="a" d="M200.09,132.5a2.5,2.5,0,0,0-.589-2.166l-1.5-1.485a.812.812,0,0,0-1.419.282l-2.271,5.431a1.74,1.74,0,0,0,.542,1.967l2.448,1.815a.819.819,0,0,0,1.371-.481Z" transform="translate(-175.401 -111.024)"/><path class="b" d="M196.253,135.425a3.727,3.727,0,0,1,1.435-1.932l3.965-2.442a1.727,1.727,0,0,1,2.02.234l3.309,3.284a3.765,3.765,0,0,1,.956,2.207l.13,4.661a1.729,1.729,0,0,1-1.213,1.634l-4.494,1.222a3.748,3.748,0,0,1-2.391-.276l-4.1-2.217a1.733,1.733,0,0,1-.808-1.868Z" transform="translate(-173.642 -106.078)"/><path class="a" d="M199.585,134.471a.817.817,0,0,1,.269-1.425l2.8-1.21a1.743,1.743,0,0,1,1.976.513l3.569,4.684a.813.813,0,0,1-.465,1.371l-2.036.554a2.5,2.5,0,0,1-2.169-.573Z" transform="translate(-164.408 -104.156)"/><path class="a" d="M202.739,135.252a.813.813,0,0,1,.465-1.371l1.27-.342a1.775,1.775,0,0,1,1.9.782L209.649,140a.8.8,0,0,1-.637,1.286l-.247.032a2.481,2.481,0,0,1-2.071-.865Z" transform="translate(-157.385 -100.313)"/><path class="b" d="M199.159,136.761a1.733,1.733,0,0,1,1.213-1.637l3.069-.833a2.066,2.066,0,0,1,1.694.123c.247.257.861.874,1.368,1.374l3.791,3.734c.51.5.345.985-.361,1.077l-2.036.26c-.706.092-.817.513-.244.937l7.071,5.25c.573.424.459.773-.253.773h-1.694a6.086,6.086,0,0,1-2.435-.618l-8.822-4.763a3.977,3.977,0,0,0-1.675-.548c-.295.038-.554-.513-.573-1.225Z" transform="translate(-164.658 -98.811)"/><path class="a" d="M203.457,137.276c-.5-.5-.342-.988.367-1.08l.963-.123a2.5,2.5,0,0,1,2.071.865l4.411,5.782c.434.564.32,1.029-.253,1.029a3.3,3.3,0,0,1-1.96-.915Z" transform="translate(-155.978 -94.74)"/><path class="a" d="M203.566,136.7a1.151,1.151,0,0,1,1.321,1.13l.092,3.268a1.253,1.253,0,0,1-1.257,1.3h-5.963a1.135,1.135,0,0,1-1.15-1.289l.263-2.28a1.745,1.745,0,0,1,1.435-1.45Z" transform="translate(-170.201 -93.383)"/><path class="a" d="M201.687,135.324a.819.819,0,0,1,1.1.95l-.351,3.024a1.749,1.749,0,0,1-1.435,1.45l-5.836.751a.814.814,0,0,1-.956-1.089l.541-2.046a2.476,2.476,0,0,1,1.583-1.59Z" transform="translate(-175.469 -96.43)"/><path class="a" d="M199.456,137.356a.813.813,0,0,1,.956,1.086l-.336,1.27a1.781,1.781,0,0,1-1.628,1.254H191.89a.8.8,0,0,1-.795-1.2l.092-.222a2.491,2.491,0,0,1,1.786-1.359Z" transform="translate(-182.33 -91.957)"/><path class="a" d="M197.752,136.761c.687-.187,1.023.2.751.858l-.38.9a2.489,2.489,0,0,1-1.786,1.362l-7.207.925c-.706.089-1.051-.241-.763-.738a3.308,3.308,0,0,1,1.77-1.238Z" transform="translate(-188.264 -93.323)"/><path class="b" d="M197.75,142.785c-.272.659.07,1.045.757.858l6.378-1.739a2.49,2.49,0,0,0,1.58-1.593l.811-3.069a1.74,1.74,0,0,0-.807-1.868l-3.439-1.856c-.627-.339-1.235-.393-1.349-.117a3.976,3.976,0,0,1-1.311,1.178l-8.537,5.257a6.129,6.129,0,0,0-1.751,1.8l-.849,1.469c-.355.614-.111.89.541.6l8.05-3.487c.652-.282.966.025.7.684Z" transform="translate(-186.52 -100.882)"/><path class="a" d="M196.819,138.539a1.152,1.152,0,0,1-1.64.579l-2.879-1.552a1.26,1.26,0,0,1-.491-1.739l2.983-5.168a1.13,1.13,0,0,1,1.688-.348l1.843,1.368a1.747,1.747,0,0,1,.542,1.967Z" transform="translate(-180.95 -107.714)"/><g transform="translate(68.921 35.072)"><path class="b" d="M210.036,134.116H212.3a2.076,2.076,0,0,1,1.495.526,1.452,1.452,0,0,1,.405,1.039v.013a1.534,1.534,0,0,1-1.425,1.533l1.615,2.15h-.728l-1.526-2.046h-1.5v2.046h-.592Zm2.21,2.682c.789,0,1.352-.405,1.352-1.083V135.7c0-.649-.5-1.039-1.346-1.039h-1.624V136.8Z" transform="translate(-210.011 -134.024)"/><path class="b" d="M212.135,134.116h3.8v.542h-3.208v1.8H215.6v.541h-2.872v1.84h3.246v.541h-3.838Z" transform="translate(-205.463 -134.024)"/><path class="b" d="M214,138.662l.367-.437a2.5,2.5,0,0,0,1.8.744c.706,0,1.172-.377,1.172-.893v-.016c0-.488-.263-.766-1.368-1-1.21-.266-1.764-.656-1.764-1.52v-.016a1.553,1.553,0,0,1,1.729-1.435,2.74,2.74,0,0,1,1.846.646l-.345.459a2.3,2.3,0,0,0-1.517-.57c-.684,0-1.121.374-1.121.849v.013c0,.5.272.776,1.428,1.023,1.172.256,1.713.684,1.713,1.488v.016c0,.9-.75,1.488-1.8,1.488A3.074,3.074,0,0,1,214,138.662Z" transform="translate(-201.424 -134.076)"/><path class="b" d="M216.01,134.116h3.8v.542H216.6v1.8h2.869v.541H216.6v1.84h3.246v.541H216.01Z" transform="translate(-197.067 -134.024)"/><path class="b" d="M220.237,134.1h.554l2.4,5.3h-.637l-.618-1.39h-2.863l-.624,1.39h-.608Zm1.466,3.373-1.2-2.682-1.2,2.682Z" transform="translate(-193.102 -134.05)"/><path class="b" d="M220.24,134.116H222.5a2.076,2.076,0,0,1,1.495.526,1.454,1.454,0,0,1,.408,1.039v.013a1.537,1.537,0,0,1-1.428,1.533l1.615,2.15h-.728l-1.526-2.046h-1.5v2.046h-.6Zm2.21,2.682c.789,0,1.352-.405,1.352-1.083V135.7c0-.649-.5-1.039-1.346-1.039h-1.621V136.8Z" transform="translate(-187.901 -134.024)"/><path class="b" d="M222.265,136.823v-.016a2.653,2.653,0,0,1,2.66-2.72,2.732,2.732,0,0,1,2.052.836l-.405.434a2.3,2.3,0,0,0-1.653-.719,2.062,2.062,0,0,0-2.036,2.157v.013a2.076,2.076,0,0,0,2.036,2.172,2.289,2.289,0,0,0,1.7-.757l.393.38a2.74,2.74,0,0,1-2.106.925A2.624,2.624,0,0,1,222.265,136.823Z" transform="translate(-183.514 -134.087)"/><path class="b" d="M224.473,134.116h.6v2.337H228.1v-2.337h.6v5.26h-.6V137.01h-3.034v2.366h-.6Z" transform="translate(-178.73 -134.024)"/><path class="b" d="M231,138.695a2.286,2.286,0,0,1-1.723.82,1.511,1.511,0,0,1-1.653-1.476v-.013a1.668,1.668,0,0,1,1.27-1.52,1.7,1.7,0,0,1-.526-1.156v-.016a1.285,1.285,0,0,1,1.39-1.248,1.216,1.216,0,0,1,1.276,1.188v.016c0,.668-.472,1.1-1.238,1.368l1.2,1.225a7.027,7.027,0,0,0,.63-1.172l.488.225a7.26,7.26,0,0,1-.757,1.321l.915.941-.45.345Zm-.361-.367-1.406-1.45c-.7.253-1.007.684-1.007,1.127v.013a1.014,1.014,0,0,0,1.1.991A1.794,1.794,0,0,0,230.641,138.327Zm-.158-3.005v-.016a.715.715,0,0,0-.744-.728.752.752,0,0,0-.8.757v.016c0,.307.13.542.529.969C230.137,136.095,230.482,135.772,230.482,135.322Z" transform="translate(-171.898 -134.087)"/><path class="b" d="M230.9,134.116h.592v5.26H230.9Z" transform="translate(-164.804 -134.024)"/><path class="b" d="M231.957,134.116h.554l3.316,4.215v-4.215h.576v5.26h-.472l-3.4-4.313v4.313h-.576Z" transform="translate(-162.514 -134.024)"/><path class="b" d="M234.215,134.116h.554l3.312,4.215v-4.215h.58v5.26h-.475l-3.395-4.313v4.313h-.576Z" transform="translate(-157.622 -134.024)"/><path class="b" d="M236.4,136.823v-.016a2.682,2.682,0,1,1,5.364-.013v.013a2.665,2.665,0,0,1-2.692,2.72A2.638,2.638,0,0,1,236.4,136.823Zm4.747,0v-.016a2.089,2.089,0,0,0-2.074-2.169,2.066,2.066,0,0,0-2.058,2.157v.013a2.09,2.09,0,0,0,2.074,2.172A2.066,2.066,0,0,0,241.146,136.823Z" transform="translate(-152.889 -134.087)"/><path class="b" d="M238.633,134.116h.662l1.868,4.532,1.878-4.532h.64l-2.261,5.3h-.526Z" transform="translate(-148.049 -134.024)"/><path class="b" d="M242.955,134.1h.557l2.4,5.3h-.64l-.618-1.39h-2.86l-.624,1.39h-.611Zm1.466,3.373-1.194-2.682-1.2,2.682Z" transform="translate(-143.878 -134.05)"/><path class="b" d="M244.393,134.664h-1.767v-.548h4.133v.548h-1.764v4.712h-.6Z" transform="translate(-139.397 -134.024)"/><path class="b" d="M244.682,134.116h.6v5.26h-.6Z" transform="translate(-134.942 -134.024)"/><path class="b" d="M245.665,136.823v-.016a2.682,2.682,0,1,1,5.364-.013v.013a2.682,2.682,0,1,1-5.364.016Zm4.75,0v-.016a2.091,2.091,0,0,0-2.074-2.169,2.064,2.064,0,0,0-2.058,2.157v.013a2.09,2.09,0,0,0,2.074,2.172A2.068,2.068,0,0,0,250.415,136.823Z" transform="translate(-132.813 -134.087)"/><path class="b" d="M248.139,134.116h.554l3.316,4.215v-4.215h.58v5.26h-.475l-3.395-4.313v4.313h-.579Z" transform="translate(-127.452 -134.024)"/><path class="b" d="M210.028,136.856h3.645v.532H210.6V139.2h2.746v.523H210.6v2.21h-.573Z" transform="translate(-210.028 -128.087)"/><path class="b" d="M211.6,139.467v-.013a2.589,2.589,0,1,1,5.178-.016v.016a2.589,2.589,0,1,1-5.178.013Zm4.582,0v-.013a2.02,2.02,0,0,0-2-2.1,2,2,0,0,0-1.989,2.081v.016a2.02,2.02,0,0,0,2,2.1A2,2,0,0,0,216.185,139.467Z" transform="translate(-206.615 -128.146)"/><path class="b" d="M213.8,136.856h2.185a2,2,0,0,1,1.441.51,1.4,1.4,0,0,1,.393,1v.013a1.482,1.482,0,0,1-1.378,1.479L218,141.932h-.7l-1.473-1.97h-1.45v1.97H213.8Zm2.131,2.59c.763,0,1.308-.393,1.308-1.045v-.013c0-.624-.481-1-1.3-1h-1.567v2.058Z" transform="translate(-201.859 -128.087)"/><path class="b" d="M216.392,141.242l.355-.421a2.428,2.428,0,0,0,1.742.719c.681,0,1.131-.364,1.131-.865v-.016c0-.469-.253-.738-1.321-.963-1.165-.253-1.7-.63-1.7-1.466v-.013a1.5,1.5,0,0,1,1.669-1.384,2.632,2.632,0,0,1,1.783.624l-.333.44a2.239,2.239,0,0,0-1.466-.551c-.659,0-1.08.364-1.08.82v.013c0,.478.263.747,1.378.988,1.131.247,1.653.659,1.653,1.435v.016c0,.871-.725,1.434-1.732,1.434A2.984,2.984,0,0,1,216.392,141.242Z" transform="translate(-196.239 -128.135)"/><path class="b" d="M218.116,139.807v-2.951h.573v2.917c0,1.1.579,1.71,1.552,1.71.934,0,1.53-.564,1.53-1.675v-2.951h.573v2.91a2.117,2.117,0,1,1-4.228.041Z" transform="translate(-192.504 -128.087)"/><path class="b" d="M219.952,141.242l.355-.421a2.423,2.423,0,0,0,1.742.719c.681,0,1.131-.364,1.131-.865v-.016c0-.469-.253-.738-1.321-.963-1.165-.253-1.7-.63-1.7-1.466v-.013a1.5,1.5,0,0,1,1.669-1.384,2.644,2.644,0,0,1,1.783.624l-.332.44a2.239,2.239,0,0,0-1.466-.551c-.659,0-1.08.364-1.08.82v.013c0,.478.26.747,1.377.988s1.653.659,1.653,1.435v.016c0,.871-.725,1.434-1.732,1.434A2.979,2.979,0,0,1,219.952,141.242Z" transform="translate(-188.525 -128.135)"/><path class="b" d="M223.259,137.388h-1.707v-.532h3.99v.532h-1.7v4.544h-.579Z" transform="translate(-185.059 -128.087)"/><path class="b" d="M225.3,136.845h.535l2.315,5.111h-.617l-.6-1.34h-2.761l-.6,1.34h-.586Zm1.412,3.255-1.153-2.587L224.4,140.1Z" transform="translate(-181.952 -128.111)"/><path class="b" d="M225.126,136.856h.573v5.076h-.573Z" transform="translate(-177.315 -128.087)"/><path class="b" d="M225.955,136.856h.535l3.2,4.069v-4.069h.557v5.076h-.456l-3.278-4.161v4.161h-.557Z" transform="translate(-175.519 -128.087)"/><path class="b" d="M230.117,136.845h.538l2.312,5.111h-.617l-.6-1.34h-2.761l-.6,1.34H227.8Zm1.412,3.255-1.153-2.587-1.159,2.587Z" transform="translate(-171.51 -128.111)"/><path class="b" d="M229.929,136.856h2.16a1.875,1.875,0,0,1,1.33.45,1.136,1.136,0,0,1,.323.814v.013a1.223,1.223,0,0,1-.8,1.175c.6.184,1.089.532,1.089,1.226v.016c0,.871-.735,1.384-1.843,1.384h-2.255ZM232,139.12c.687,0,1.165-.314,1.165-.906V138.2c0-.5-.4-.826-1.124-.826H230.5v1.748Zm.2,2.3c.77,0,1.248-.342,1.248-.909V140.5c0-.551-.465-.871-1.349-.871h-1.6v1.792Z" transform="translate(-166.908 -128.087)"/><path class="b" d="M231.777,136.856h.573v5.076h-.573Z" transform="translate(-162.904 -128.087)"/><path class="b" d="M232.605,136.856h.573V141.4h2.856v.529h-3.43Z" transform="translate(-161.11 -128.087)"/><path class="b" d="M234.217,136.856h.573v5.076h-.573Z" transform="translate(-157.617 -128.087)"/><path class="b" d="M236.635,137.388h-1.7v-.532h3.99v.532h-1.707v4.544h-.579Z" transform="translate(-156.07 -128.087)"/><path class="b" d="M238.652,139.925l-2.109-3.069h.7l1.71,2.54,1.726-2.54h.668l-2.112,3.062v2.014h-.579Z" transform="translate(-152.577 -128.087)"/><path class="b" d="M239.32,139.467v-.013a2.559,2.559,0,0,1,2.568-2.625,2.65,2.65,0,0,1,1.979.8l-.393.421a2.208,2.208,0,0,0-1.6-.7,1.989,1.989,0,0,0-1.963,2.081v.016a2,2,0,0,0,1.963,2.1,2.206,2.206,0,0,0,1.64-.735l.377.371a2.651,2.651,0,0,1-2.03.893A2.532,2.532,0,0,1,239.32,139.467Z" transform="translate(-146.56 -128.146)"/><path class="b" d="M241.259,136.856h3.67v.522h-3.1v1.732H244.6v.523h-2.771v1.777h3.132v.522h-3.705Z" transform="translate(-142.359 -128.087)"/><path class="b" d="M242.972,136.856h.535l3.2,4.069v-4.069h.557v5.076h-.456l-3.278-4.161v4.161h-.557Z" transform="translate(-138.648 -128.087)"/><path class="b" d="M246.548,137.388h-1.7v-.532h3.99v.532h-1.707v4.544h-.58Z" transform="translate(-134.591 -128.087)"/><path class="b" d="M246.621,136.856h3.667v.522h-3.094v1.732h2.768v.523h-2.768v1.777h3.132v.522h-3.705Z" transform="translate(-130.741 -128.087)"/><path class="b" d="M248.333,136.856h2.182a2,2,0,0,1,1.444.51,1.4,1.4,0,0,1,.393,1v.013a1.482,1.482,0,0,1-1.378,1.479l1.558,2.074h-.7l-1.473-1.97h-1.45v1.97h-.573Zm2.131,2.59c.763,0,1.308-.393,1.308-1.045v-.013c0-.624-.478-1-1.3-1h-1.567v2.058Z" transform="translate(-127.032 -128.087)"/></g><g transform="translate(68.994 0.269)"><path class="b" d="M224.854,123.526l-2.255,4.836a.5.5,0,0,0-.044.206v21.125a1.166,1.166,0,0,0,1.165,1.165h2.638a1.166,1.166,0,0,0,1.165-1.165v-25.3a1.156,1.156,0,0,0-1.156-1.153H225.3A.491.491,0,0,0,224.854,123.526Z" transform="translate(-182.958 -122.792)"/><path class="b" d="M228.2,140.262h0a.492.492,0,0,0-.31-.231h0l-3.344-.836v-.146h1.78a20.52,20.52,0,0,0,2.2-.07c3.027-.361,6.815-2.315,6.815-7.739,0-4.937-3.414-8-8.911-8H213.88a1.166,1.166,0,0,0-1,.58l-2.761,4.782a.488.488,0,0,0-.063.241v20.872a1.146,1.146,0,0,0,1.146,1.146h3.265a.509.509,0,0,0,.51-.507V139.866a.475.475,0,0,1,.478-.475l6.419,0a.506.506,0,0,1,.437.253l6.28,10.97a.5.5,0,0,0,.427.247h3.255a1.147,1.147,0,0,0,1-1.713Zm-11.815-5.605h0a.5.5,0,0,0-.478.377l-.795,3.183h-.146v-4.152h0v-5.653a.489.489,0,0,1,.491-.491h10.919c1.777,0,3.9.592,3.9,3.417,0,2.233-1.321,3.319-4.038,3.319Z" transform="translate(-210.051 -122.792)"/><path class="b" d="M252.834,137.021a11.614,11.614,0,0,0-6.786-2.812h0c-1.207-.127-2.353-.219-3.4-.266-1.029-.048-2-.117-2.869-.212a15.646,15.646,0,0,1-2.318-.409,4.473,4.473,0,0,1-1.612-.763,1.558,1.558,0,0,1-.13-.117l0,.01a2.739,2.739,0,0,1-.956-1.587,5.04,5.04,0,0,1,1.191-4.085,8.987,8.987,0,0,1,3.376-2.511h.31c-1.3.763-3.322,2.258-3.721,4.4l0,.019a.247.247,0,0,0,.247.247.251.251,0,0,0,.152-.051v.006l.054-.044a11.944,11.944,0,0,1,5.333-1.07,14.847,14.847,0,0,1,7.451,2.046.453.453,0,0,0,.231.063h2.508a1.148,1.148,0,0,0,.994-.576l.678-1.172a1.147,1.147,0,0,0-.358-1.536,22.952,22.952,0,0,0-4.861-2.381,20.47,20.47,0,0,0-6.691-1.124,22.721,22.721,0,0,0-5.292.586,11.016,11.016,0,0,0-3.423,1.666,7.8,7.8,0,0,0-2.252,2.556,6.61,6.61,0,0,0-.795,3.176c0,2.7,1.4,4.75,4.171,6.08a11.132,11.132,0,0,0,2.353.8,24.917,24.917,0,0,0,2.613.424c.88.092,1.808.171,2.834.241.95.06,1.97.139,3.122.238a7.047,7.047,0,0,1,4.041,1.33,3.891,3.891,0,0,1,.738.855l.006-.022a4.751,4.751,0,0,1,.592,3.322c-.418,2.929-3.259,5.108-5.811,6.321h-.26A10.822,10.822,0,0,0,248.837,146a.225.225,0,0,0,.013-.063.247.247,0,0,0-.247-.247.251.251,0,0,0-.152.051h0l-.047.041a6.162,6.162,0,0,1-2.242,1.017,20.481,20.481,0,0,1-4.1.377,18.12,18.12,0,0,1-8.417-2.492.518.518,0,0,0-.237-.06h-2.486a1.148,1.148,0,0,0-.994.573l-.782,1.355a1.149,1.149,0,0,0,.333,1.52,21.379,21.379,0,0,0,5.231,2.625,23.366,23.366,0,0,0,7.4,1.146,24.4,24.4,0,0,0,6.086-.709,12,12,0,0,0,3.832-1.938,8.727,8.727,0,0,0,2.438-2.917,7.836,7.836,0,0,0,.855-3.566A7.585,7.585,0,0,0,252.834,137.021Z" transform="translate(-169.014 -123.097)"/><path class="b" d="M267.34,144.538l-.6-1.036a1.155,1.155,0,0,0-.994-.576l-2.169,0a.485.485,0,0,0-.4.209,9.6,9.6,0,0,1-2.72,2.641,9.141,9.141,0,0,1-4.937,1.352,9.5,9.5,0,0,1-3.67-.7,8.344,8.344,0,0,1-2.894-1.979,9.543,9.543,0,0,1-1.935-3.056,9.722,9.722,0,0,1-.56-2.112l-.006.016a16.492,16.492,0,0,1,1.732-10.1,11.4,11.4,0,0,1,5.738-4.934h.241a9.337,9.337,0,0,0-5.212,5.637l-.01.041a.247.247,0,0,0,.247.247.257.257,0,0,0,.177-.073l-.009.019a8.911,8.911,0,0,1,2.5-1.606,9.773,9.773,0,0,1,8.344.459,7.963,7.963,0,0,1,2.229,1.887.5.5,0,0,0,.38.184h2.223a1.172,1.172,0,0,0,1.01-.586l.576-.994a1.167,1.167,0,0,0-.085-1.308,13.365,13.365,0,0,0-4.079-3.4,14.5,14.5,0,0,0-6.935-1.678,14.9,14.9,0,0,0-5.659,1.067,13.273,13.273,0,0,0-4.522,3.018,14.1,14.1,0,0,0-2.958,4.582,16,16,0,0,0,0,11.483,13.849,13.849,0,0,0,2.958,4.535,13.326,13.326,0,0,0,4.522,2.989,14.86,14.86,0,0,0,5.656,1.07,14.456,14.456,0,0,0,7.42-1.913,13.392,13.392,0,0,0,4.367-4.2A1.138,1.138,0,0,0,267.34,144.538Z" transform="translate(-142.295 -123.086)"/></g></g></svg>