<svg xmlns="http://www.w3.org/2000/svg" width="291.297" height="89.233" viewBox="0 0 291.297 89.233"><defs><style>.a{fill:#9d4793;}.b{fill:#ffb500;}.c{fill:#79b95f;}.d{fill:#22612b;}.e{fill:#ffb600;}.f{fill:#003979;}.g{fill:#fff;}</style></defs><g transform="translate(-666.332 -1012.497)"><g transform="translate(690.744 1020.16)"><path class="a" d="M710.06,1048.051a10.474,10.474,0,0,0-9.144,4L682.5,1026.136l18.3-8.563Z" transform="translate(-682.502 -1017.573)"/></g><g transform="translate(718.936 1012.497)"><path class="b" d="M709.1,1056.542a10.485,10.485,0,0,0-7.921-5.829l21.015-38.217,16.622,11.484Z" transform="translate(-701.176 -1012.497)"/></g><g transform="translate(726.685 1054.781)"><path class="c" d="M706.309,1051.745a10.5,10.5,0,0,0,.471-8.862l35.91-2.378-1.627,19.465Z" transform="translate(-706.309 -1040.505)"/></g><g transform="translate(717.275 1066.943)"><path class="d" d="M705.9,1048.561" transform="translate(-697.109 -1048.561)"/><path class="d" d="M727.494,1074.785l-18.3,8.563-9.12-30.161a10.481,10.481,0,0,0,8.789-4.626Z" transform="translate(-700.076 -1048.561)"/></g><g transform="translate(686.947 1077.869)"><circle class="e" cx="10.483" cy="10.483" r="10.483"/></g><g transform="translate(666.332 1046.976)"><path class="f" d="M666.332,1054.8l1.627-19.465,40.564,8.7c.852.073,1.374,2.133,1.167,4.6s-1.064,4.417-1.916,4.346Z" transform="translate(-666.332 -1035.335)"/></g><path class="g" d="M846.66,1025.466V1015.2H809.639v10.266h12.623v31.856a15.07,15.07,0,0,1,11.715-.03v-31.826Z" transform="translate(73.044 1.378)"/><path class="g" d="M793.445,1015.388l-7.324,24.312-8.152-24.581H767.883l-8.152,24.581-7.345-24.382a15.039,15.039,0,0,1-12.363.044l14.092,42.456H764.32l8.515-24.339,8.456,24.339H791.5l14.079-42.421Z" transform="translate(37.56 1.336)"/><path class="g" d="M809.979,1015H798.686l-17.911,42.515a15.026,15.026,0,0,1,12.247.03l11.042-28.061h0l11.35,28.093h.148l12.4-.024Z" transform="translate(58.332 1.275)"/><g transform="translate(857.301 1043.608)"><circle class="e" cx="5.267" cy="5.267" r="5.267"/></g><path class="g" d="M870.532,1020.29c-4.579-3.652-10.177-5.571-17.333-5.571-10.145,0-16.367,5.678-16.367,13.528v.121c0,8.635,6.946,11.173,15.944,13.227,5.8,1.389,7.186,2.295,7.186,4.106v.121c0,1.811-1.691,2.9-4.891,2.9a21.9,21.9,0,0,1-13.708-5.073l-6.523,7.79a29.644,29.644,0,0,0,19.809,7.006c10.268,0,17.091-5.135,17.091-13.77v-.121c0-7.912-6.039-11.052-15.7-13.166-5.918-1.328-7.367-2.174-7.367-4.106v-.121c0-1.57,1.389-2.718,4.227-2.718a20.726,20.726,0,0,1,11.767,4.119A10.33,10.33,0,0,1,870.532,1020.29Z" transform="translate(85.889 1.132)"/><path class="g" d="M768.408,1047.964H742.2v32.688a11.685,11.685,0,0,1,9.084-.078v-11.539h15.5V1061.5h-15.5v-5.571h17.032Z" transform="translate(38.669 18.078)"/><path class="g" d="M840.632,1048.056l-9.177.06v18.249c0,4.588-2.388,6.742-6.087,6.742-3.652,0-6.04-2.247-6.04-6.976V1048.1a11.689,11.689,0,0,1-9.177-.023v18.243c0,10.254,5.853,14.984,15.124,14.984,9.318,0,15.358-4.683,15.358-15.218Z" transform="translate(73.304 18.125)"/><path class="g" d="M868.744,1080.545v-32.581h-9.6l-7.819,12.689-7.82-12.689h-9.6v32.623a11.691,11.691,0,0,1,8.9-.029v-18.595l8.335,12.782h.187l8.38-12.829v18.749Z" transform="translate(85.413 18.078)"/><path class="g" d="M810.434,1069.316a10.387,10.387,0,0,0,6.742-10.115v-.092a10.234,10.234,0,0,0-2.9-7.633c-2.2-2.2-5.664-3.512-10.675-3.512H788.1v32.721a11.668,11.668,0,0,1,9.084-.14v-24.762h5.993c3,0,4.916,1.312,4.916,3.934v.094c0,2.388-1.825,3.886-4.869,3.886h-5.35l10.627,17.04,9.721-.044Z" transform="translate(62.065 18.078)"/><path class="g" d="M761.613,1064.667v-.094c0-9.411,7.585-17.043,17.7-17.043s17.606,7.538,17.606,16.949v.094c0,9.412-7.585,17.045-17.7,17.045S761.613,1074.078,761.613,1064.667Zm17.651-8.943a8.85,8.85,0,1,0,8.85,8.85A8.849,8.849,0,0,0,779.265,1055.723Z" transform="translate(48.565 17.856)"/></g></svg>