<svg xmlns="http://www.w3.org/2000/svg" viewBox="0 0 435.45 146.43"><defs><style>.cls-1{fill:#fff;}</style></defs><title>logo</title><g id="Layer_2" data-name="Layer 2"><g id="Layer_1-2" data-name="Layer 1"><path class="cls-1" d="M141.78,81.8v-47h6.06v47Z"/><path class="cls-1" d="M176,81.8V61.26a32.37,32.37,0,0,0-.22-4.12,7,7,0,0,0-.86-2.77,3.71,3.71,0,0,0-1.83-1.55,14.91,14.91,0,0,0-4.14-.49,5.13,5.13,0,0,0-2.39.56,6.82,6.82,0,0,0-1.92,1.48,9.79,9.79,0,0,0-1.49,2.17,15.75,15.75,0,0,0-1.05,2.62,19.33,19.33,0,0,0-.63,2.81,18.74,18.74,0,0,0-.21,2.73V81.8h-5.62V47.11h5.62v3.53A14.77,14.77,0,0,1,165,47.48a8.28,8.28,0,0,1,4.22-1.14,18.1,18.1,0,0,1,6.64,1.09,8.74,8.74,0,0,1,3.52,3.06,12.61,12.61,0,0,1,1.83,4.71,33.22,33.22,0,0,1,.52,6.06V81.8Z"/><path class="cls-1" d="M209,71.15a12.31,12.31,0,0,1-.85,4.68,11.28,11.28,0,0,1-2.32,3.64,10.44,10.44,0,0,1-7.57,3.19,10.76,10.76,0,0,1-3.88-.7A10.48,10.48,0,0,1,191,79.9a13.18,13.18,0,0,1-2.66-3.41,19,19,0,0,1-1.78-4.76l5.21-2.18a19.08,19.08,0,0,0,1.2,3.35,8.16,8.16,0,0,0,1.45,2.19,5,5,0,0,0,1.75,1.21,5.56,5.56,0,0,0,2.07.37,4.48,4.48,0,0,0,1.94-.44,5.19,5.19,0,0,0,1.6-1.19,5.62,5.62,0,0,0,1.08-1.78,5.93,5.93,0,0,0,.4-2.2,4.61,4.61,0,0,0-.3-1.77,3.68,3.68,0,0,0-.88-1.26,6.08,6.08,0,0,0-1.43-1c-.58-.28-1.24-.56-2-.84-1.15-.45-2.29-1-3.41-1.52a13.79,13.79,0,0,1-3-2A9.53,9.53,0,0,1,190,59.83a8.51,8.51,0,0,1-.83-3.88,10.11,10.11,0,0,1,.76-4,9.42,9.42,0,0,1,2-3.07,9,9,0,0,1,3-1.94,9.21,9.21,0,0,1,3.53-.69,8.42,8.42,0,0,1,2.51.39,8.73,8.73,0,0,1,2.47,1.22,11.58,11.58,0,0,1,2.3,2.21,17.08,17.08,0,0,1,2,3.31l-4.87,3a15.61,15.61,0,0,0-1.24-2.08,7.12,7.12,0,0,0-1.15-1.28,3.33,3.33,0,0,0-1.08-.64,3.49,3.49,0,0,0-1.05-.17,3.06,3.06,0,0,0-1.29.28,3.32,3.32,0,0,0-1.09.75,3.47,3.47,0,0,0-.75,1.1,3.11,3.11,0,0,0-.28,1.3,2.68,2.68,0,0,0,.37,1.41,4.26,4.26,0,0,0,1,1.11,7.52,7.52,0,0,0,1.37.89c.52.26,1,.5,1.54.71l1.49.58c.48.18.89.35,1.24.52a23.24,23.24,0,0,1,2.91,1.68,9.75,9.75,0,0,1,2.2,2.09,9.08,9.08,0,0,1,1.4,2.78A12.75,12.75,0,0,1,209,71.15Z"/><path class="cls-1" d="M245.69,64.7a22.56,22.56,0,0,1-1.07,7.09,16.65,16.65,0,0,1-3.1,5.69,14.51,14.51,0,0,1-4.93,3.8A15.18,15.18,0,0,1,230,82.66a14.64,14.64,0,0,1-5.13-.94,13.45,13.45,0,0,1-4.66-3.15V94.86h-5.8V47.11h5.7v3.23a13.05,13.05,0,0,1,4.75-3.1,14.8,14.8,0,0,1,5.06-.9,14.55,14.55,0,0,1,11.6,5.43,17.61,17.61,0,0,1,3.1,5.85A22.9,22.9,0,0,1,245.69,64.7Zm-5.8.09a16.09,16.09,0,0,0-.72-4.83,13.25,13.25,0,0,0-2-4A10,10,0,0,0,234,53.17a8.14,8.14,0,0,0-4-1,8.89,8.89,0,0,0-4.29,1,9.55,9.55,0,0,0-3.12,2.75,12.42,12.42,0,0,0-1.92,4.1,19.13,19.13,0,0,0-.64,5.07,14.93,14.93,0,0,0,.7,4.71,11,11,0,0,0,2,3.67,9.07,9.07,0,0,0,3.16,2.38,9.94,9.94,0,0,0,4.16.84,8.38,8.38,0,0,0,3.95-1,9.71,9.71,0,0,0,3.1-2.58,12.24,12.24,0,0,0,2-3.78A14.07,14.07,0,0,0,239.89,64.79Z"/><path class="cls-1" d="M257.41,38.39a4.91,4.91,0,0,1-.31,1.79,4.4,4.4,0,0,1-.86,1.4,4,4,0,0,1-2.93,1.27,3.83,3.83,0,0,1-2.86-1.27,4.33,4.33,0,0,1-.83-1.4,5.13,5.13,0,0,1-.3-1.79,4.85,4.85,0,0,1,.3-1.69,4.71,4.71,0,0,1,.83-1.43,3.94,3.94,0,0,1,1.27-1,3.45,3.45,0,0,1,1.59-.38,3.59,3.59,0,0,1,1.63.38,4.17,4.17,0,0,1,1.3,1,4.78,4.78,0,0,1,.86,1.43A4.64,4.64,0,0,1,257.41,38.39Zm-7,43.41V47.11h5.79V81.8Z"/><path class="cls-1" d="M277.77,53.77a10.26,10.26,0,0,0-.91-.5,4.31,4.31,0,0,0-.64-.25,1.82,1.82,0,0,0-.41-.1h-.24a4.49,4.49,0,0,0-2.23.53,5.17,5.17,0,0,0-1.61,1.45A8.45,8.45,0,0,0,270.65,57a16.34,16.34,0,0,0-.65,2.5,23.63,23.63,0,0,0-.33,2.68c-.05.91-.08,1.78-.08,2.6v17.1h-5.7V47.11h5.7v3.23a9.9,9.9,0,0,1,1.16-1.42,10.08,10.08,0,0,1,1.45-1.25,8,8,0,0,1,1.64-.9,4.74,4.74,0,0,1,1.73-.33l1,0a8.75,8.75,0,0,1,1.1.17A13.36,13.36,0,0,1,279,47c.51.17,1.1.4,1.78.69Z"/><path class="cls-1" d="M288.35,66.11a13.92,13.92,0,0,0,1.09,4.42,10.41,10.41,0,0,0,2.25,3.32,9.58,9.58,0,0,0,3.21,2.09,10.69,10.69,0,0,0,4,.73q6,0,10.06-7.79l4.87,2.94a26.54,26.54,0,0,1-3.07,4.86A16.8,16.8,0,0,1,307.21,80a14.45,14.45,0,0,1-4.07,1.93,16.19,16.19,0,0,1-4.55.63,15.11,15.11,0,0,1-4.59-.68A14.6,14.6,0,0,1,290.09,80a15.2,15.2,0,0,1-3.15-2.9,17.9,17.9,0,0,1-2.34-3.71,20.32,20.32,0,0,1-1.46-4.34,22.59,22.59,0,0,1-.5-4.75,21.88,21.88,0,0,1,.5-4.66,20,20,0,0,1,1.46-4.28,17.69,17.69,0,0,1,2.34-3.68,15.38,15.38,0,0,1,3.15-2.88A14.88,14.88,0,0,1,294,46.92a15.43,15.43,0,0,1,4.59-.67,14,14,0,0,1,11.54,5.65,19.28,19.28,0,0,1,3.07,6.3,28.12,28.12,0,0,1,1.06,7.91Zm20-5.8a12.11,12.11,0,0,0-1.4-3.23,11.15,11.15,0,0,0-2.16-2.59,9.74,9.74,0,0,0-2.81-1.72,8.87,8.87,0,0,0-3.35-.63,9.12,9.12,0,0,0-3.39.63,10.45,10.45,0,0,0-2.92,1.72A11.06,11.06,0,0,0,290,57.08a11.55,11.55,0,0,0-1.42,3.23Z"/><path class="cls-1" d="M65.18,26.39A9.71,9.71,0,0,0,68,23.26l9.35-15.2H75.63c-6.26,0-7.92,6.53-7.92,7.92,0,.6-.36.6-.36,0V9.53c0-1.38-.12-1.74,1.3-1.74H83.93c1.74,0,2.53-.36,3-.87.27-.32.42-.12.23.16l-6.88,9.77-3.2,4.75a8.44,8.44,0,0,1-6,3.17c-1,.11-1.14.6-.28.44,2.26-.36,5.39.54,7.72.54a2.62,2.62,0,0,0,2.74-2.64,2.41,2.41,0,0,0-2.1-2.46c-.24,0-.32-.16-.32-.43A4.07,4.07,0,0,1,83.07,17c2.45,0,4.07,1.58,4.07,3.6,0,4.55-4.91,5.86-8.71,5.55-2.8-.24-4.31-.72-6.45-.68a18.54,18.54,0,0,0-6.61,1.19c-.31.15-.51,0-.19-.24m-1.5-.29a4.23,4.23,0,0,1-2.51.72,3,3,0,0,1-2.36-.9,3.83,3.83,0,0,1-.65-2.61V11.86h-2V9.28h5.55v14c0,.83.25,1.14.86,1.14A2.7,2.7,0,0,0,63.82,24Zm-4-19.57a2.1,2.1,0,0,1-2.08-2.12A2.07,2.07,0,0,1,59.7,2.33a2.09,2.09,0,0,1,2.12,2.08A2.13,2.13,0,0,1,59.7,6.53M75.33,83.21a11.58,11.58,0,0,1-6-1.34A12.24,12.24,0,0,1,66,79.13q-3-3.81-3-10.72V46.07q0-6.9,3-10.71A10.68,10.68,0,0,1,67.33,34a9.35,9.35,0,0,1,2-1.3,13.05,13.05,0,0,1,2.65-1,13.25,13.25,0,0,1,3.38-.39,11.65,11.65,0,0,1,6,1.34,12.66,12.66,0,0,1,3.35,2.75q3,3.81,3,10.71V68.41q0,6.91-3,10.72a12.45,12.45,0,0,1-3.35,2.74,11.55,11.55,0,0,1-6,1.34m0-45.24a11.26,11.26,0,0,0-1.74.14,3.91,3.91,0,0,0-1.86.88,5.37,5.37,0,0,0-1.51,2.4,14.27,14.27,0,0,0-.6,4.68V68.41a14.61,14.61,0,0,0,.6,4.76,5.37,5.37,0,0,0,1.51,2.4,4,4,0,0,0,1.86.88,12.66,12.66,0,0,0,1.74.14A13,13,0,0,0,77,76.45a4,4,0,0,0,1.9-.88,5.28,5.28,0,0,0,1.51-2.4,14.34,14.34,0,0,0,.6-4.76V46.07a14,14,0,0,0-.6-4.68A5.28,5.28,0,0,0,78.92,39a3.91,3.91,0,0,0-1.9-.88A11.45,11.45,0,0,0,75.33,38m11,106.19H93v2.27H55.08v-2.27h6.56V97h-.17L42.7,146.43H39.25l-19.1-50H20V137c0,3.2.16,7.16,5.8,7.16h1.6v2.27H10.05v-2.27h1.6c4.63,0,5.22-4.3,5.22-7V90.38H10.64V88.1H41.11l10.34,27.77L62.06,88.1H93v2.28H86.38ZM41.9,1.24H38.81l.27-1L46.29,0,42.94,14.64c1.83-1.94,3.73-3.76,6.56-3.76,1.89,0,3.52,1,3.52,3.1a14,14,0,0,1-.46,2.71L51.2,22.11c-.27,1.09-.51,2.13-.51,2.29a.68.68,0,0,0,.75.73c1.54,0,3.09-2.94,3.63-4.22l.86.28a11.85,11.85,0,0,1-1.75,3.1c-1,1.31-3,2.74-4.53,2.74-1.32,0-2.94-.62-2.94-2.24A16.62,16.62,0,0,1,47.17,22l1.36-5.65c.69-2.9.77-3.87-1.2-3.87-1,0-2.56,1.36-3.22,2.09a9.23,9.23,0,0,0-2,3.76l-1.94,8.09h-4ZM9.19,7.89V7.14h10.1v.75h-.92L21.3,18.66l1.4-4.72-1.57-6h-1V7.14H30.7v.75H29.33l2.51,10.58h.06l2.46-8.73c.39-1.34-.22-1.85-1-1.85h-.61V7.14H37v.75a1.72,1.72,0,0,0-1.42,1.46l-4.9,17.16H26L23.15,15.76l-3,10.75H15.44L9.92,7.89ZM49.31,37.42a33.08,33.08,0,0,1,2.86-2.16c1.27-.88,1.69-1.17,1.69-1.76a1.39,1.39,0,0,0-1.4-1.41c-1.22,0-4.32,2.32-5.82,3.6A32.36,32.36,0,0,0,30.5,31.23a21.84,21.84,0,0,0-14.21,4.91,18,18,0,0,0-6.23,14.1,17.52,17.52,0,0,0,4.49,11.84,21.19,21.19,0,0,0,9.68,6,31.63,31.63,0,0,1-8,7.93c-1.37-.19-6.4-1.39-7.79-1.47C3.51,74.31,0,76.41,0,79.05c.08,4.82,8.32,4.59,14.07,1.53l1.51.35.14,0a67.05,67.05,0,0,0,15.77,2.29,32.76,32.76,0,0,0,19.15-6.52c4.44-3.38,9.73-9.41,9.73-18.92,0-8-3.72-14.82-11.06-20.4m-18.85,21c-1.44,2.31-2.8,4.5-4.05,6.46-6.11-2-12.82-9.38-12.82-16.9,0-9.21,6.87-12.47,12.75-12.47a37.14,37.14,0,0,1,16.48,4.2C40.15,42.89,35,51.11,30.46,58.39M27.73,68.86A16.21,16.21,0,0,0,30,69c7.92,0,12.65-3.17,15.22-5.82,3-3.1,4-6.33,4-7.32A1.26,1.26,0,0,0,48,54.55c-.9,0-1.11.81-1.26,1.4a11.6,11.6,0,0,1-2.87,5.18c-2.75,3.09-7,4.65-12.75,4.65a6.79,6.79,0,0,1-1.13-.1c2.66-3.76,5.43-8.33,8.1-12.76,2.92-4.85,5.69-9.44,7.63-11.7C52.43,45.43,57.13,53.11,57.13,60a18.18,18.18,0,0,1-4.64,11.73c-3.94,4.42-10,6.76-17.42,6.76-4.25,0-9.73-.89-15-1.75a39,39,0,0,0,7.71-7.84M4.79,77.64c2.12-.2,5.85.69,5.7,1.49-.2,1.07-8.17,1.87-8-.17,0-.39.77-1.17,2.31-1.32"/><rect class="cls-1" x="117.08" width="1" height="145.63"/><path class="cls-1" d="M171.17,130.58a15.28,15.28,0,0,1-1.25,6.21,16.21,16.21,0,0,1-3.34,4.92,15,15,0,0,1-4.79,3.22,14,14,0,0,1-5.58,1.16,12.43,12.43,0,0,1-8.6-3.32,22.48,22.48,0,0,1-5.83-9.69l5.35-2.79q1.91,5.21,4.07,7.32a7.12,7.12,0,0,0,5.19,2.12,7.76,7.76,0,0,0,3.28-.72,9,9,0,0,0,2.77-2,9.44,9.44,0,0,0,1.9-3,9.8,9.8,0,0,0,.69-3.66,5,5,0,0,0-.78-2.75,10,10,0,0,0-1.9-2.17,14.05,14.05,0,0,0-2.46-1.68c-.9-.49-1.69-1-2.38-1.4l-4.5-2.5a25.85,25.85,0,0,1-4.11-2.85,13,13,0,0,1-3-3.8,11.58,11.58,0,0,1-1.16-5.4,16.55,16.55,0,0,1,.9-5.54,12.9,12.9,0,0,1,2.55-4.38,11.8,11.8,0,0,1,9-4A12.43,12.43,0,0,1,164,95.93a17.93,17.93,0,0,1,5.71,6.7l-4.59,4.15a17.36,17.36,0,0,0-4-5.06,6.65,6.65,0,0,0-4.1-1.4,5.68,5.68,0,0,0-4.49,2.12,7.67,7.67,0,0,0-1.82,5.2,4.5,4.5,0,0,0,.69,2.51,8.72,8.72,0,0,0,1.73,1.93,13.3,13.3,0,0,0,2.2,1.49c.78.41,1.49.82,2.12,1.21l8,4.72a13.48,13.48,0,0,1,4.24,4.62A13.32,13.32,0,0,1,171.17,130.58Z"/><path class="cls-1" d="M204.45,131.06a29.49,29.49,0,0,1-.6,6.17,12.78,12.78,0,0,1-2.08,4.82,9.79,9.79,0,0,1-3.89,3.13,17.51,17.51,0,0,1-12.27,0,9.76,9.76,0,0,1-3.9-3.13,12.62,12.62,0,0,1-2.07-4.82,28.8,28.8,0,0,1-.61-6.17V110.25h5.71v20.81q0,4.73,1.34,6.94c.9,1.47,2.78,2.22,5.66,2.22s4.69-.75,5.58-2.22,1.34-3.79,1.34-6.94V110.25h5.79Z"/><path class="cls-1" d="M234.28,145.42l-13.84-15.61-.26.29v15.32h-5.79V97h5.79v24.16l9.86-11h7.78l-13.48,15.32,17.81,19.95Z"/><path class="cls-1" d="M273.26,145.42h-5.79v-21a32,32,0,0,0-.21-3.85,8,8,0,0,0-.87-2.89,4.28,4.28,0,0,0-1.94-1.79,8,8,0,0,0-3.46-.62,7,7,0,0,0-4.06,1.06,7.15,7.15,0,0,0-2.43,2.79,14,14,0,0,0-1.21,4A34.08,34.08,0,0,0,253,128v17.44h-5.71V93.86H253v18.8a11.65,11.65,0,0,1,8.3-3.38,13.71,13.71,0,0,1,5.88,1.11,8.92,8.92,0,0,1,3.67,3.13,13.44,13.44,0,0,1,1.9,4.82,30.48,30.48,0,0,1,.56,6.07Z"/><path class="cls-1" d="M308.45,131.06a29.49,29.49,0,0,1-.6,6.17,12.78,12.78,0,0,1-2.08,4.82,9.79,9.79,0,0,1-3.89,3.13,17.51,17.51,0,0,1-12.27,0,9.73,9.73,0,0,1-3.89-3.13,12.48,12.48,0,0,1-2.08-4.82,29.49,29.49,0,0,1-.6-6.17V110.25h5.7v20.81q0,4.73,1.34,6.94c.9,1.47,2.78,2.22,5.67,2.22s4.68-.75,5.57-2.22,1.34-3.79,1.34-6.94V110.25h5.79Z"/><path class="cls-1" d="M359.72,145.42h-5.88V123.83a17,17,0,0,0-.91-6.26q-.92-2.22-4.36-2.22a5.25,5.25,0,0,0-5.23,3.08,17.86,17.86,0,0,0-1.43,7.52v19.47H336.2V124.7a31.21,31.21,0,0,0-.21-3.81,9.86,9.86,0,0,0-.82-2.94,4.49,4.49,0,0,0-1.73-1.92,5.47,5.47,0,0,0-2.85-.68,4.1,4.1,0,0,0-2.86,1.11,8.59,8.59,0,0,0-2,2.8,16.31,16.31,0,0,0-1.17,3.75,22.06,22.06,0,0,0-.38,3.91v18.5H318.4V110.25h5.79l-.09,3.27a9.09,9.09,0,0,1,3.33-3.18,8.28,8.28,0,0,1,3.85-1,9.19,9.19,0,0,1,8.3,4.62,10.59,10.59,0,0,1,4.1-3.56,12.63,12.63,0,0,1,10.55.19,9.07,9.07,0,0,1,3.41,3.32,13.49,13.49,0,0,1,1.64,4.72,34.29,34.29,0,0,1,.44,5.55Z"/><path class="cls-1" d="M383.92,145.42h-3.54l-14-35.17h6.14l9.68,24.09,9.34-24.09h6.23Z"/><path class="cls-1" d="M411.68,102.08a4.58,4.58,0,0,1-1.21,3.22,3.87,3.87,0,0,1-2.94,1.3,3.71,3.71,0,0,1-2.9-1.3,4.64,4.64,0,0,1-1.17-3.22,4.73,4.73,0,0,1,1.17-3.19,3.69,3.69,0,0,1,2.9-1.35,3.85,3.85,0,0,1,2.94,1.35A4.67,4.67,0,0,1,411.68,102.08Zm-7.1,43.34V110.25h5.89v35.17Z"/><path class="cls-1" d="M428.87,116.32v29.1h-5.79v-29.1h-4.66v-6.07h4.66V97.53h5.79v12.72h6.58v6.07Z"/><path class="cls-1" d="M164.62,26.13H163L156.9,9.45,156.51,8l-.36,1.45L150,26.13h-1.58L141.78,3h2.83l4.53,15.63.35,1.67.44-1.63L155.84,3h1.53l5.83,15.54.48,1.71.39-1.76L168.48,3h2.84Z"/><path class="cls-1" d="M185,26.13h-2.64V16.56a13.49,13.49,0,0,0-.1-1.76,3.37,3.37,0,0,0-.39-1.31,1.92,1.92,0,0,0-.89-.82,3.65,3.65,0,0,0-1.57-.28,3,3,0,0,0-3,1.75,5.9,5.9,0,0,0-.55,1.85,14.11,14.11,0,0,0-.16,2.19v8h-2.6V3h2.6V11.2a5.32,5.32,0,0,1,3.78-1.53,6.23,6.23,0,0,1,2.68.5,4.09,4.09,0,0,1,1.67,1.43,6.24,6.24,0,0,1,.87,2.19,14.12,14.12,0,0,1,.25,2.77Z"/><path class="cls-1" d="M191.72,6.39a2.09,2.09,0,0,1-.55,1.47,1.76,1.76,0,0,1-1.34.59,1.67,1.67,0,0,1-1.32-.59A2.08,2.08,0,0,1,188,6.39a2.12,2.12,0,0,1,.54-1.45,1.66,1.66,0,0,1,1.32-.61,1.74,1.74,0,0,1,1.34.61A2.13,2.13,0,0,1,191.72,6.39Zm-3.23,19.74v-16h2.68v16Z"/><path class="cls-1" d="M194.32,26.13V23.71L201,15.37l2-2.54h-8.27V10.1h12.06v2.29l-8.71,11h8.71v2.72Z"/><path class="cls-1" d="M221.14,26.13V24.59A6.21,6.21,0,0,1,218.91,26a7.1,7.1,0,0,1-2.46.44,7,7,0,0,1-3.11-.68A7.29,7.29,0,0,1,211,23.89a7.72,7.72,0,0,1-1.5-2.7,10.46,10.46,0,0,1-.51-3.27,10.19,10.19,0,0,1,.51-3.27A7.92,7.92,0,0,1,211,12a6.81,6.81,0,0,1,2.32-1.75,7.15,7.15,0,0,1,3.09-.64,7.36,7.36,0,0,1,2.54.46,6.72,6.72,0,0,1,2.23,1.38V3h2.6V26.13Zm.08-8.39a5.69,5.69,0,0,0-1.32-3.88,4.5,4.5,0,0,0-3.57-1.52,4.06,4.06,0,0,0-1.89.46,5,5,0,0,0-1.5,1.24,5.94,5.94,0,0,0-1,1.77,6.53,6.53,0,0,0-.35,2.11,7.27,7.27,0,0,0,.33,2.22,5.78,5.78,0,0,0,1,1.82,4.79,4.79,0,0,0,1.51,1.25,4.23,4.23,0,0,0,2,.46A4.33,4.33,0,0,0,220,21.94a6,6,0,0,0,.92-1.89A8.21,8.21,0,0,0,221.22,17.74Z"/><path class="cls-1" d="M241.58,18a9,9,0,0,1-.59,3.33A8.36,8.36,0,0,1,239.35,24a7.25,7.25,0,0,1-5.49,2.41,6.7,6.7,0,0,1-3-.65A7.8,7.8,0,0,1,228.48,24a8.19,8.19,0,0,1-1.63-2.67,9.25,9.25,0,0,1,0-6.5,8.78,8.78,0,0,1,1.63-2.7,7.83,7.83,0,0,1,2.43-1.82,6.71,6.71,0,0,1,3-.66,7.19,7.19,0,0,1,3,.64A7.39,7.39,0,0,1,239.35,12,8.36,8.36,0,0,1,241,14.72,8.94,8.94,0,0,1,241.58,18Zm-2.6,0a6.14,6.14,0,0,0-.4-2.26,5.14,5.14,0,0,0-1.1-1.78,5,5,0,0,0-3.7-1.58,4.29,4.29,0,0,0-1.91.44,4.72,4.72,0,0,0-1.53,1.21,5.68,5.68,0,0,0-1,1.8,6.3,6.3,0,0,0-.37,2.17,6.11,6.11,0,0,0,.37,2.15,5.72,5.72,0,0,0,1,1.78,5.5,5.5,0,0,0,1.54,1.23,3.94,3.94,0,0,0,1.89.46,4.87,4.87,0,0,0,2.05-.44A5.28,5.28,0,0,0,237.48,22a5,5,0,0,0,1.1-1.77A6,6,0,0,0,239,18.05Z"/><path class="cls-1" d="M263,26.13h-2.67V16.29a7.68,7.68,0,0,0-.42-2.85c-.27-.67-.94-1-2-1a2.39,2.39,0,0,0-2.39,1.41,8.12,8.12,0,0,0-.65,3.42v8.87h-2.6V16.69a12.91,12.91,0,0,0-.1-1.73,4.23,4.23,0,0,0-.37-1.34,2,2,0,0,0-.79-.88,2.45,2.45,0,0,0-1.3-.31,1.85,1.85,0,0,0-1.3.51,3.74,3.74,0,0,0-.9,1.27,7.14,7.14,0,0,0-.54,1.71,10.37,10.37,0,0,0-.17,1.78v8.43h-2.64v-16h2.64l0,1.5a4.06,4.06,0,0,1,1.51-1.45,3.7,3.7,0,0,1,1.76-.44,4.18,4.18,0,0,1,3.78,2.11,4.92,4.92,0,0,1,1.87-1.63,5.22,5.22,0,0,1,2.23-.48,5.15,5.15,0,0,1,2.57.57,4.19,4.19,0,0,1,1.56,1.51,6.35,6.35,0,0,1,.75,2.16,15.71,15.71,0,0,1,.19,2.52Z"/></g></g></svg>