<?xml version="1.0" standalone="no"?>
<!DOCTYPE svg PUBLIC "-//W3C//DTD SVG 1.1//EN" "http://www.w3.org/Graphics/SVG/1.1/DTD/svg11.dtd" >
<svg xmlns="http://www.w3.org/2000/svg" xmlns:xlink="http://www.w3.org/1999/xlink" version="1.1">
<metadata></metadata>
<defs>
<font id="db_airystd_med" horiz-adv-x="0" >
<font-face units-per-em="2048" ascent="1638" descent="-410" />
<missing-glyph horiz-adv-x="511" />
<glyph unicode="&#x2b;&#x2d;" horiz-adv-x="891" d="M102 0v138h686v-138h-686zM102 445v138h273v253h141v-253h272v-138h-272v-254h-141v254h-273z" />
<glyph unicode="&#x2e;&#x2e;&#x2e;" horiz-adv-x="918" d="M50 0v203h206v-203h-206zM356 0v203h206v-203h-206zM662 0v203h206v-203h-206z" />
<glyph unicode="&#x3c;&#x3d;" horiz-adv-x="887" d="M112 318v139l668 -251v-138zM112 506v128l668 256v-154l-474 -169l474 -163v-144z" />
<glyph unicode="&#x3e;&#x3d;" horiz-adv-x="887" d="M107 68v138l669 251v-139zM107 260v144l473 163l-473 169v154l669 -256v-128z" />
<glyph unicode="&#xe4f;&#x22;" horiz-adv-x="1104" d="M113 424q0 60 15.5 117t44.5 105.5t69 88.5t88.5 68.5t105 44.5t116.5 16t116.5 -16t105 -44.5t88.5 -68.5t69 -88.5t45 -104.5q15 -58 15 -118t-15.5 -116t-44.5 -105t-69 -89t-88.5 -68.5t-105 -44t-116.5 -15.5t-116.5 15.5t-105 44t-88.5 68.5t-69 89t-44.5 105 t-15.5 116zM246 424q0 -64 24 -120t66 -97.5t98 -66t119 -24.5q64 0 119.5 24.5t97.5 66t66 97.5t24 120t-24 120t-66 97.5t-98 66t-119 24.5q-64 0 -119.5 -24.5t-97.5 -66t-66 -97.5t-24 -120zM326 424q0 47 17.5 88.5t48 72.5t72 48.5t88.5 17.5t88.5 -17.5t72 -48.5 t48 -72t17.5 -89q0 -47 -17.5 -88t-48 -71.5t-72 -48.5t-88.5 -18t-88.5 18t-72 48.5t-48 71.5t-17.5 88zM358 1120v88h147v-287h-105zM442 424q0 -22 8.5 -42t23.5 -35t35.5 -24t42.5 -9t42.5 9t35.5 24t23.5 35t8.5 42t-8.5 43t-23.5 36t-35.5 23.5t-42.5 8.5t-42.5 -8.5 t-35.5 -23.5t-23.5 -36t-8.5 -43zM602 921v287h148v-88l-42 -199h-106z" />
<glyph unicode="&#xe0e;&#xe3a;" horiz-adv-x="979" d="M59 619q31 56 74 100.5t96 75.5t116 48t134 17q77 0 145 -23.5t119.5 -68t81.5 -110.5t30 -150v-657h-286l-161 81l-194 -96l-80 122l274 130l202 -93h67v511q0 44 -15.5 80t-42.5 61t-63 39q-36 16 -75 18q-51 3 -104 -15.5t-99 -58.5q23 -23 39 -48.5t26 -51t15.5 -49 t7.5 -43.5t2.5 -34t0.5 -18q0 -46 -12.5 -90t-36.5 -84t-60 -74q-34 -34 -82 -58l-110 131q39 23 63 46.5t37 46.5t17.5 44.5t4.5 41.5q0 30 -6 60t-20.5 59t-40 57t-64.5 53zM650 -290q0 22 9 41t23 33.5t33 23t41 8.5t41 -8.5t33 -23t23 -33.5t9 -41t-9 -41t-23 -33 t-34 -22q-18 -9 -40 -9t-41 8.5t-33 22.5t-23 33t-9 41z" />
<glyph unicode="&#xe0f;&#xe3a;" horiz-adv-x="979" d="M59 619q31 56 74 100.5t96 75.5t116 48t134 17q77 0 145 -23.5t119.5 -68t81.5 -110.5t30 -150v-656h-289l-100 60l-120 -77l-206 89l68 126l128 -50l129 78l141 -80h71v508q0 44 -15.5 80t-42.5 61t-63 39q-36 16 -75 18q-51 3 -104 -15.5t-99 -58.5q23 -23 39 -48.5 t26 -51t15.5 -49t7.5 -43.5t2.5 -34t0.5 -18q0 -46 -12.5 -90t-36.5 -84t-60 -74q-34 -34 -82 -58l-110 131q39 23 63 46.5t37 46.5t17.5 44.5t4.5 41.5q0 30 -6 60t-20.5 59t-40 57t-64.5 53zM650 -290q0 22 9 41t23 33.5t33 23t41 8.5t41 -8.5t33 -23t23 -33.5t9 -41 t-9 -41t-23 -33t-34 -22q-18 -9 -40 -9t-41 8.5t-33 22.5t-23 33t-9 41z" />
<glyph unicode="&#xe0e;&#xe38;" horiz-adv-x="979" d="M59 619q31 56 74 100.5t96 75.5t116 48t134 17q77 0 145 -23.5t119.5 -68t81.5 -110.5t30 -150v-657h-286l-161 81l-194 -96l-80 122l274 130l202 -93h67v511q0 44 -15.5 80t-42.5 61t-63 39q-36 16 -75 18q-51 3 -104 -15.5t-99 -58.5q23 -23 39 -48.5t26 -51t15.5 -49 t7.5 -43.5t2.5 -34t0.5 -18q0 -46 -12.5 -90t-36.5 -84t-60 -74q-34 -34 -82 -58l-110 131q39 23 63 46.5t37 46.5t17.5 44.5t4.5 41.5q0 30 -6 60t-20.5 59t-40 57t-64.5 53zM559 -260q20 12 41.5 21.5t42.5 15t40 8t33 2.5q41 0 67.5 -13.5t42.5 -34t22.5 -45t6.5 -46.5 v-165h-170v156q0 7 -3.5 12t-8 8t-10 4t-9.5 1h-7.5t-11.5 -1.5t-16 -5t-21 -11.5z" />
<glyph unicode="&#xe0f;&#xe38;" horiz-adv-x="979" d="M59 619q31 56 74 100.5t96 75.5t116 48t134 17q77 0 145 -23.5t119.5 -68t81.5 -110.5t30 -150v-656h-289l-100 60l-120 -77l-206 89l68 126l128 -50l129 78l141 -80h71v508q0 44 -15.5 80t-42.5 61t-63 39q-36 16 -75 18q-51 3 -104 -15.5t-99 -58.5q23 -23 39 -48.5 t26 -51t15.5 -49t7.5 -43.5t2.5 -34t0.5 -18q0 -46 -12.5 -90t-36.5 -84t-60 -74q-34 -34 -82 -58l-110 131q39 23 63 46.5t37 46.5t17.5 44.5t4.5 41.5q0 30 -6 60t-20.5 59t-40 57t-64.5 53zM559 -260q20 12 41.5 21.5t42.5 15t40 8t33 2.5q41 0 67.5 -13.5t42.5 -34 t22.5 -45t6.5 -46.5v-165h-170v156q0 7 -3.5 12t-8 8t-10 4t-9.5 1h-7.5t-11.5 -1.5t-16 -5t-21 -11.5z" />
<glyph unicode="&#xe0e;&#xe39;" horiz-adv-x="979" d="M59 619q31 56 74 100.5t96 75.5t116 48t134 17q77 0 145 -23.5t119.5 -68t81.5 -110.5t30 -150v-657h-286l-161 81l-194 -96l-80 122l274 130l202 -93h67v511q0 44 -15.5 80t-42.5 61t-63 39q-36 16 -75 18q-51 3 -104 -15.5t-99 -58.5q23 -23 39 -48.5t26 -51t15.5 -49 t7.5 -43.5t2.5 -34t0.5 -18q0 -46 -12.5 -90t-36.5 -84t-60 -74q-34 -34 -82 -58l-110 131q39 23 63 46.5t37 46.5t17.5 44.5t4.5 41.5q0 30 -6 60t-20.5 59t-40 57t-64.5 53zM356 -264q36 19 66 24.5t52 5.5q35 0 57 -9t34 -23.5t16 -33t4 -36.5v-18q0 -21 4.5 -33.5 t12.5 -20t18 -10t20 -2.5q9 0 18 2t16.5 9t12.5 20t5 36v112h163v-117q0 -43 -15.5 -76t-44.5 -55.5t-69 -34.5t-90 -12t-88.5 11.5t-65 32.5t-41 51.5t-14.5 67.5q0 20 -5 28.5t-15 8.5q-4 0 -14 -2t-19 -6z" />
<glyph unicode="&#xe0f;&#xe39;" horiz-adv-x="979" d="M59 619q31 56 74 100.5t96 75.5t116 48t134 17q77 0 145 -23.5t119.5 -68t81.5 -110.5t30 -150v-656h-289l-100 60l-120 -77l-206 89l68 126l128 -50l129 78l141 -80h71v508q0 44 -15.5 80t-42.5 61t-63 39q-36 16 -75 18q-51 3 -104 -15.5t-99 -58.5q23 -23 39 -48.5 t26 -51t15.5 -49t7.5 -43.5t2.5 -34t0.5 -18q0 -46 -12.5 -90t-36.5 -84t-60 -74q-34 -34 -82 -58l-110 131q39 23 63 46.5t37 46.5t17.5 44.5t4.5 41.5q0 30 -6 60t-20.5 59t-40 57t-64.5 53zM356 -264q36 19 66 24.5t52 5.5q35 0 57 -9t34 -23.5t16 -33t4 -36.5v-18 q0 -21 4.5 -33.5t12.5 -20t18 -10t20 -2.5q9 0 18 2t16.5 9t12.5 20t5 36v112h163v-117q0 -43 -15.5 -76t-44.5 -55.5t-69 -34.5t-90 -12t-88.5 11.5t-65 32.5t-41 51.5t-14.5 67.5q0 20 -5 28.5t-15 8.5q-4 0 -14 -2t-19 -6z" />
<glyph unicode="&#xd;" horiz-adv-x="579" />
<glyph unicode=" "  horiz-adv-x="511" />
<glyph unicode="&#x09;" horiz-adv-x="511" />
<glyph unicode="&#xa0;" horiz-adv-x="511" />
<glyph unicode="!" horiz-adv-x="417" d="M106 0v203h206v-203h-206zM112 865v205h194v-205l-34 -572h-127z" />
<glyph unicode="&#x22;" horiz-adv-x="640" d="M75 616l35 454h180v-112l-93 -342h-122zM352 616l34 454h180v-112l-93 -342h-121z" />
<glyph unicode="#" horiz-adv-x="1049" d="M66 284v116h154l38 262h-148v116h164l41 283h145l-42 -283h290l41 283h145l-42 -283h132v-116h-148l-38 -262h142v-116h-158l-42 -284h-144l41 284h-289l-42 -284h-144l41 284h-137zM364 400h290l38 262h-290z" />
<glyph unicode="$" horiz-adv-x="957" d="M38 180l118 120q30 -30 63.5 -54t69 -42t71.5 -29t70 -17v306q-102 24 -167.5 56.5t-103 73t-51.5 87.5t-14 99q0 64 27 114.5t74 86t108 55.5q61 22 127 26v114h117v-118q35 -5 70 -16.5t71 -29.5t74 -45t80 -64l-110 -124q-28 26 -53 45.5t-48 33.5t-44 22.5t-40 13.5 v-292q94 -22 154.5 -54t96.5 -71.5t50 -87t14 -101.5q0 -64 -25.5 -113t-69 -85t-100.5 -58.5t-120 -30.5v-147h-117v144q-48 4 -98 15.5t-100.5 33t-99 54.5t-94.5 79zM272 788q0 -30 6 -53t23 -42t48 -35q31 -14 81 -28v272q-34 -4 -63 -14t-50 -25.5t-33 -34.5t-12 -40z M547 162q28 6 53 16t43.5 25t29.5 35.5t11 45.5q0 21 -5 40.5t-19.5 38.5t-41.5 36t-71 33v-270z" />
<glyph unicode="%" horiz-adv-x="1186" d="M24 788q0 66 23 118t61 87.5t87 54t101 18.5t100 -17t85 -51.5t59.5 -87t22.5 -122.5t-22.5 -122t-59.5 -87t-85 -52t-100 -17t-101 19t-87 54t-61 87t-23 118zM149 0l735 1061h166l-735 -1061h-166zM164 788q0 -41 12 -71.5t31 -51t43 -31t46 -10.5q23 0 46 10.5t41 31 t29.5 51.5t11.5 71q0 41 -11.5 72t-29.5 51.5t-40.5 30.5t-46.5 10q-23 0 -46.5 -10t-42.5 -30.5t-31 -51.5t-12 -72zM620 260q0 66 23 118t61 87.5t87 54t101 18.5t100 -17t85 -51.5t59.5 -87t22.5 -122.5t-22.5 -122t-59.5 -87t-85 -52t-100 -17t-101 19t-87 54t-61 87 t-23 118zM760 260q0 -41 12 -71.5t31 -51t43 -31t46 -10.5q23 0 46 10.5t41 31t29.5 51.5t11.5 71q0 41 -11.5 72t-29.5 51.5t-40.5 30.5t-46.5 10q-23 0 -46.5 -10t-42.5 -30.5t-31 -51.5t-12 -72z" />
<glyph unicode="&#x26;" horiz-adv-x="1103" d="M82 304q0 38 11 77t37 76.5t68 72.5q40 34 100 65q-30 34 -48.5 65t-29.5 59.5t-15.5 54.5t-4.5 51q0 46 19.5 90.5t58 79.5t96.5 56t136 21t135 -20t95 -54t56.5 -79t18.5 -95q0 -46 -16.5 -84t-48 -72t-77 -63.5t-103.5 -56.5l203 -202q33 42 53 87t30 91l142 -55 q-10 -34 -21 -65.5t-24.5 -60.5t-30 -56t-36.5 -55l152 -152l-114 -116l-148 148q-39 -32 -79.5 -55t-82.5 -37t-85 -21t-86 -7q-44 0 -88 10t-84 28.5t-74.5 45.5t-60.5 61.5t-40 76.5t-14 90zM260 302q0 -38 15.5 -68t41 -51t59 -32t68.5 -11q26 0 55 4t58 13t57.5 25 t52.5 40l-253 257q-46 -22 -76 -43.5t-47 -43t-24 -44t-7 -46.5zM366 824q0 -10 1 -23.5t7.5 -31t20.5 -38.5q13 -21 39 -47l24 -24q94 37 143 79.5t49 85.5q0 29 -12 49t-31 33t-45 19t-54 6q-36 0 -63 -10t-44.5 -25t-26 -35t-8.5 -38z" />
<glyph unicode="'" horiz-adv-x="364" d="M75 616l35 454h180v-112l-93 -342h-122z" />
<glyph unicode="(" horiz-adv-x="696" d="M88 460q0 124 29 236.5t83.5 209.5t131 178t172.5 143l80 -117q-73 -56 -131.5 -125t-99.5 -151t-63 -175t-22 -199q0 -105 22.5 -198.5t64 -174.5t101.5 -150q58 -69 132 -125l-81 -116q-99 64 -177 145t-132 177t-82 207t-28 235z" />
<glyph unicode=")" horiz-adv-x="696" d="M108 -188q74 56 133 125t100.5 150t64 175t22.5 198q0 105 -22 198.5t-63 175.5t-99 151t-132 125l80 117q95 -62 172 -143t131.5 -178t83.5 -209.5t29 -236.5t-28 -235t-82 -207t-132 -177t-177 -145z" />
<glyph unicode="*" horiz-adv-x="625" d="M70 766l166 61l-166 63l72 122l130 -116l-30 177h142l-32 -177l131 116l73 -122l-169 -63l169 -61l-73 -122l-131 115l32 -179h-142l31 179l-132 -115z" />
<glyph unicode="+" horiz-adv-x="891" d="M102 445v138h273v273h141v-273h272v-138h-272v-274h-141v274h-273z" />
<glyph unicode="," horiz-adv-x="401" d="M71 -106q54 20 82.5 45.5t32.5 59.5h-87v205h223v-146q0 -50 -14 -90t-41 -71t-66 -52t-88 -34z" />
<glyph unicode="-" horiz-adv-x="631" d="M94 443v143h442v-143h-442z" />
<glyph unicode="." horiz-adv-x="376" d="M85 0v203h206v-203h-206z" />
<glyph unicode="/" horiz-adv-x="852" d="M16 -174l684 1365h160l-684 -1365h-160z" />
<glyph unicode="0" horiz-adv-x="924" d="M74 521q0 78 11.5 149.5t34.5 131.5t56.5 109t76.5 83t96 52.5t114 18.5t113.5 -18.5t96 -52.5t76.5 -83t56 -109t35 -131t12 -150q0 -76 -12 -145.5t-35.5 -128.5t-57 -108t-76.5 -83t-95.5 -53t-112.5 -19q-90 0 -162.5 40t-122.5 111t-77 170t-27 216zM252 524 q0 -84 13 -154t40 -121.5t66.5 -80t91.5 -28.5t91.5 28.5t66 80t40 121.5t13.5 154q0 87 -13.5 158.5t-40 122t-66.5 77.5q-40 28 -92 28t-91 -27.5t-66 -78t-40 -122t-13 -158.5z" />
<glyph unicode="1" horiz-adv-x="924" d="M134 922l306 134h128v-910h249v-146h-681v146h259v720l-211 -90z" />
<glyph unicode="2" horiz-adv-x="924" d="M90 832q30 57 71.5 100t91 71.5t106.5 43t119 14.5q80 0 147 -23.5t115 -64.5t75 -99t27 -126q0 -52 -18 -103t-51.5 -102t-82 -102t-110.5 -100l-232 -187h492v-154h-748v134l381 328q45 39 80 72.5t59 67.5t37 69t13 77q0 37 -15 67t-40 50.5t-59 32.5q-32 11 -70 11 q-37 0 -72 -9.5t-67.5 -29.5t-61.5 -52t-55 -77z" />
<glyph unicode="3" horiz-adv-x="924" d="M58 190l118 120q24 -30 54 -60t65 -54t74 -39t83 -15q40 0 76 11t63 33.5t43 55t16 74.5q0 36 -18 67t-51 54t-81 36t-108 13h-64l-30 112l274 296h-428v152h678v-115l-287 -307q62 -12 114.5 -40t92 -68t62 -91t22.5 -109q0 -66 -25 -126t-73 -105.5t-118 -73 t-158 -27.5q-64 0 -122 17t-108 46t-91 66t-73 77z" />
<glyph unicode="4" horiz-adv-x="925" d="M22 324l588 732h145v-698h140v-148h-140v-210h-169v210h-534zM253 358h333v413z" />
<glyph unicode="5" horiz-adv-x="924" d="M67 163l98 135q39 -48 76 -77.5t72 -46t69 -22.5t65 -6q40 0 77.5 14t66.5 39t46.5 60t17.5 79q0 46 -15.5 81t-42.5 59t-63 36.5t-77 12.5q-32 0 -61 -3.5t-57 -10t-56 -17.5t-58 -26l-99 68l26 508h636v-154h-478l-13 -235q38 12 82.5 18.5t84.5 6.5q48 0 93 -10 t86 -30t75 -49t59 -67t39 -84t14 -100q0 -52 -14 -98.5t-40 -86t-61.5 -70.5t-78.5 -53t-91 -33t-99 -11q-56 0 -109 10t-101 31t-90 54t-79 78z" />
<glyph unicode="6" horiz-adv-x="924" d="M68 484q0 134 33 240t91 180t137 114t171 40q38 0 76 -6t77 -21t80 -42t84 -69l-89 -123q-36 34 -68 55t-60.5 32t-54 14.5t-50.5 3.5q-43 0 -84 -21t-75 -61.5t-57.5 -99t-31.5 -133.5q24 24 53 41.5t59.5 28t62 15t62.5 4.5q78 0 146 -22t117 -64.5t77.5 -104 t28.5 -139.5q0 -56 -15 -105t-41.5 -89t-63 -71t-79 -52.5t-89.5 -33t-95 -11.5q-50 0 -97 12.5t-87 32.5t-71 45.5t-51 51.5q-28 38 -47 77.5t-30 83t-15 91.5q-4 50 -4 106zM262 342q0 -46 15.5 -84t43 -66t66.5 -43t85 -15q40 0 77 13t65.5 40t46 66t17.5 89 q0 42 -16.5 76t-45 58t-66 36.5t-80.5 12.5q-40 0 -77.5 -12.5t-66.5 -36t-46.5 -57.5t-17.5 -77z" />
<glyph unicode="7" horiz-adv-x="924" d="M77 892v154h741v-112l-502 -934h-196l490 892h-533z" />
<glyph unicode="8" horiz-adv-x="924" d="M59 294q0 90 41 154q42 64 121 104q-29 17 -53.5 38.5t-42 48.5t-27.5 60.5t-10 73.5q0 44 14 81.5t38.5 69.5t59 57t76.5 42t89 26t97 9q76 0 143 -20t118.5 -57t82 -90t30.5 -120q0 -38 -10 -70.5t-27.5 -59.5t-42 -49t-52.5 -40q38 -20 68 -47t50.5 -60t31.5 -71 t11 -80q0 -70 -31 -127t-85.5 -97t-127.5 -62t-159 -22q-56 0 -108 10t-97 29t-81 46.5t-62 62t-40.5 74.5t-14.5 86zM234 293q0 -33 16 -62t46 -51t72 -35t94 -13t94 13t72 34.5t46 51t16 62.5q0 37 -18 69.5t-49 57t-73 38.5t-88 14q-47 0 -88.5 -14t-72.5 -38.5t-49 -57 t-18 -69.5zM260 770q0 -33 18 -60.5t46 -47.5t64.5 -31.5t73.5 -11.5q38 0 74 11.5t64 31.5t46 48t18 60t-16 58.5t-43 45t-64 28.5t-79 10t-79 -10t-64 -28.5t-43 -45t-16 -58.5z" />
<glyph unicode="9" horiz-adv-x="924" d="M51 698q0 56 15 105t41.5 89t63 71t79 52.5t89.5 33t95 11.5q100 0 175 -32.5t129 -101.5q29 -38 48.5 -78.5t30.5 -86t15.5 -95.5t4.5 -106q0 -136 -33 -242.5t-91 -181t-137 -113.5t-171 -39q-38 0 -76.5 7t-77.5 23t-80 43t-84 66l99 131q22 -26 51 -47t59 -35.5 t59 -23t54 -8.5q44 0 85 23t74.5 65.5t56 102t29.5 133.5q-24 -26 -54 -46t-62 -33t-66 -20t-67 -7q-73 0 -137 23.5t-112.5 68t-76.5 107.5t-28 141zM226 698q0 -42 17 -77t45 -60t66 -38.5t80 -13.5q40 0 77 14t66 39.5t47 61.5t18 80t-15.5 81.5t-43 65t-66.5 43.5 t-85 16q-40 0 -77 -14t-65.5 -41t-46 -67t-17.5 -90z" />
<glyph unicode=":" horiz-adv-x="441" d="M118 0v203h206v-203h-206zM118 590v202h206v-202h-206z" />
<glyph unicode=";" horiz-adv-x="476" d="M98 -106q54 20 82 45.5t32 59.5h-86v205h223v-146q0 -50 -14.5 -90t-41.5 -71t-65.5 -52t-87.5 -34zM143 590v202h206v-202h-206z" />
<glyph unicode="&#x3c;" horiz-adv-x="787" d="M84 460v108l605 330v-155l-435 -227l435 -231v-155z" />
<glyph unicode="=" horiz-adv-x="834" d="M112 318v141h611v-141h-611zM112 569v141h611v-141h-611z" />
<glyph unicode="&#x3e;" horiz-adv-x="787" d="M84 130v155l435 231l-435 227v155l605 -330v-108z" />
<glyph unicode="?" horiz-adv-x="838" d="M50 878q28 38 66.5 72.5t85 61t99.5 41.5t110 15q95 0 164 -23t113.5 -65t65.5 -98q22 -58 22 -124t-24 -122t-66 -99t-98 -70t-120 -33l-10 -130h-144l-19 267q9 -1 24 -2t37 -1q56 0 101 15t76 41t47.5 61t16.5 73q0 29 -11.5 57t-34.5 49.5t-57 34.5t-80 13 q-41 0 -77.5 -12t-67.5 -33t-57 -47t-46 -52zM280 0v203h206v-203h-206z" />
<glyph unicode="@" horiz-adv-x="1280" d="M80 521q0 76 20 146.5t56 132.5t86.5 113.5t112 88t133.5 56.5t150 20q93 0 169 -20t136 -55t104.5 -83t73 -103.5t43 -115.5t14.5 -120q0 -55 -13 -101t-34 -83t-48.5 -65t-58 -46.5t-62.5 -28t-62 -9.5q-21 0 -41.5 7t-38.5 20t-31 32.5t-19 45.5q-20 -22 -42.5 -41.5 t-49 -33.5t-57 -22t-64.5 -8q-45 0 -87 17.5t-74 50t-51 78.5t-19 102q0 47 13 89.5t35 79.5t52 66t65 50t72 32t73 11q32 0 55.5 -7t41 -18t29.5 -25t20 -30l12 76l148 -16l-54 -314q-4 -24 -5.5 -42t-1.5 -27q0 -31 7.5 -45t19.5 -14q24 0 49 17t44.5 45t32 67t12.5 83 q0 77 -24.5 146.5t-75 121.5t-127.5 83t-181 31q-60 0 -115 -16t-102 -45t-85 -69t-65 -88t-41.5 -103t-14.5 -114q0 -58 14.5 -112.5t41.5 -102t65 -87t86 -67.5t105 -43.5t119 -15.5q92 0 169 26q77 27 141 87l74 -102q-90 -72 -186 -104t-196 -32q-82 0 -156 20t-137 56 t-113.5 87t-86.5 112t-55.5 132t-19.5 146zM470 502q0 -30 8.5 -52t24 -38t37.5 -24t48 -8q33 0 62.5 15t52 41t36 60t13.5 72q0 27 -9 49.5t-25 39.5t-36 26t-44 9q-32 0 -62 -14.5t-54 -40t-38 -60.5t-14 -75z" />
<glyph unicode="A" horiz-adv-x="1167" d="M18 0l484 1072h162l484 -1072h-194l-125 278h-491l-125 -278h-195zM413 442h341l-170 378z" />
<glyph unicode="B" horiz-adv-x="1064" d="M120 0v1061h475q36 0 71.5 -3.5t68.5 -12.5t63 -23t55 -34q48 -40 74 -94t26 -128q0 -41 -10 -73.5t-26.5 -57.5t-39.5 -45t-48 -35q36 -18 67.5 -41.5t53.5 -54.5t34 -71t12 -88q0 -76 -30 -131t-90 -96q-51 -34 -121.5 -53.5t-152.5 -19.5h-482zM304 164h303q46 0 84 8 t64.5 24t40.5 42t14 62t-13 65.5t-41 50t-70 30.5q-42 11 -100 11h-282v-293zM304 619h284q41 0 74 9t56.5 27.5t36 46t12.5 64.5q0 66 -47 98t-131 32h-285v-277z" />
<glyph unicode="C" horiz-adv-x="1119" d="M71 528q0 76 18.5 147t52.5 132t83 111.5t110 86.5t133 55.5t152 19.5q65 0 123.5 -11t111.5 -34t101 -59q48 -34 92 -84l-118 -130q-66 73 -142 109.5t-168 36.5q-52 0 -98.5 -13t-86 -37t-72.5 -58t-55.5 -76t-35 -91t-12.5 -105q0 -82 27 -151t74 -120t112 -79.5 t141 -28.5q43 0 82.5 7.5t77.5 25.5t76 48t77 73l129 -121q-48 -55 -98 -93t-105 -61.5t-115.5 -34.5t-126.5 -11q-78 0 -148.5 19t-130.5 53.5t-108.5 84t-82 110t-52 131t-18.5 148.5z" />
<glyph unicode="D" horiz-adv-x="1137" d="M120 0v1060h414q52 0 102.5 -8t97.5 -24.5t88.5 -40t73.5 -52.5q38 -34 68.5 -77.5t52 -94t32.5 -108t11 -121.5q0 -74 -15.5 -138.5t-43.5 -120t-66.5 -101t-85.5 -80.5q-32 -22 -68.5 -39t-76.5 -29.5t-83 -19t-87 -6.5h-414zM304 164h226q30 0 59.5 3t57 10t51.5 17 q26 12 46 28q30 24 53.5 56t40.5 71t26.5 85.5t9.5 98.5q0 92 -30 163q-30 70 -82 118q-44 40 -103 61t-129 21h-226v-732z" />
<glyph unicode="E" horiz-adv-x="975" d="M120 0v1061h783v-165h-599v-278h550v-163h-550v-295h610v-160h-794z" />
<glyph unicode="F" horiz-adv-x="891" d="M120 0v1060h748v-164h-564v-284h508v-164h-508v-448h-184z" />
<glyph unicode="G" horiz-adv-x="1123" d="M68 533q0 78 19 148t54.5 130t85 108t110 82t131 52.5t146.5 18.5q71 0 129 -11t108 -31t95 -50q45 -28 90 -66l-116 -128q-42 32 -79 55t-73 38t-74 22t-80 7q-72 0 -136 -27t-113 -76t-78 -118.5t-29 -153.5q0 -92 29 -163.5t78 -121.5t113 -76t134 -26q30 0 65 4.5 t70 14t67 23.5t58 34v214h-280v164h460v-460q-54 -43 -108.5 -72.5t-110 -47.5t-111.5 -26t-114 -8q-74 0 -143 17t-129 50t-109 81t-84.5 108.5t-55 133.5t-19.5 157z" />
<glyph unicode="H" horiz-adv-x="1119" d="M120 0v1061h184v-439h511v439h185v-1061h-185v458h-511v-458h-184z" />
<glyph unicode="I" horiz-adv-x="474" d="M145 0v1061h185v-1061h-185z" />
<glyph unicode="J" horiz-adv-x="807" d="M-15 178l137 113q23 -39 50 -66t54.5 -44.5t55.5 -25t52 -7.5q38 0 69.5 14.5t53.5 41t33.5 63t11.5 80.5v713h185v-713q0 -86 -27.5 -153t-75 -113.5t-112 -70.5t-138.5 -24q-48 0 -98 11.5t-96.5 35t-86 59.5t-68.5 86z" />
<glyph unicode="K" horiz-adv-x="1064" d="M120 0v1061h184v-531l512 531h231l-429 -447l446 -614h-222l-350 484l-188 -193v-291h-184z" />
<glyph unicode="L" horiz-adv-x="881" d="M120 0v1061h184v-897h562v-164h-746z" />
<glyph unicode="M" horiz-adv-x="1288" d="M120 0v1061h188l335 -501l336 501h189v-1061h-184v772l-340 -510l-341 510v-772h-183z" />
<glyph unicode="N" horiz-adv-x="1168" d="M120 0v1061h172l572 -745v745h184v-1061h-162l-583 763v-763h-183z" />
<glyph unicode="O" horiz-adv-x="1245" d="M74 531q0 76 20 146t55.5 131t85.5 111t111 85.5t131 55.5t146 20t146 -20t131 -55.5t111 -85.5t85.5 -111t55.5 -131.5t20 -145.5q0 -76 -20 -146t-55.5 -131t-85.5 -111t-111 -85.5t-131.5 -55.5t-145.5 -20q-76 0 -146 20t-131 55.5t-111 85.5t-85.5 111t-55.5 131 t-20 146zM258 531q0 -52 12.5 -100t36 -89.5t56 -74.5t73 -57t87.5 -37t100 -13q52 0 99.5 13t88 37t73 57t56 74.5t36 89t12.5 100.5q0 52 -12.5 100t-36 89.5t-56 74.5t-73 57t-88 37t-99.5 13t-99.5 -13t-88 -37t-73 -57t-56 -74.5t-36 -89.5t-12.5 -100z" />
<glyph unicode="P" horiz-adv-x="989" d="M120 0v1061h428q89 0 161.5 -25t123.5 -71.5t79 -112.5t28 -150q0 -88 -30 -153.5t-84 -108.5t-127 -64.5t-157 -21.5l-238 -1v-353h-184zM304 518h234q51 0 91 12t67.5 35t42.5 57q15 32 15 76q0 46 -15 83t-42 63t-67 39q-38 13 -88 13h-238v-378z" />
<glyph unicode="Q" horiz-adv-x="1246" d="M74 531q0 76 20 146t55.5 131t85.5 111t111 85.5t131 55.5t146 20t146 -20t131 -55.5t111 -85.5t85.5 -111t55.5 -131.5t20 -145.5q0 -94 -29 -177.5t-82 -152.5l132 -113l-115 -126l-137 122q-68 -48 -148.5 -75t-169.5 -27q-76 0 -146 20t-131 55.5t-111 85.5 t-85.5 111t-55.5 131t-20 146zM258 531q0 -52 12.5 -100t36 -89.5t56 -74.5t73 -57t87.5 -37t100 -13q50 0 95.5 12t84.5 34l-181 156l113 128l191 -171q30 45 46 98.5t16 113.5q0 52 -12.5 100t-36 89.5t-56 74.5t-73 57t-88 37t-99.5 13t-99.5 -13t-88 -37t-73 -57 t-56 -74.5t-36 -89.5t-12.5 -100z" />
<glyph unicode="R" horiz-adv-x="1084" d="M120 0v1061h454q88 0 163 -22t130 -64.5t86 -105.5t31 -145q0 -60 -20 -112t-55 -93.5t-82 -70.5t-101 -43l304 -405h-216l-281 378h-229v-378h-184zM304 538h247q54 0 99.5 12t79.5 35t53 57t19 77q0 40 -16 72.5t-46 55.5t-74 36t-100 13h-262v-358z" />
<glyph unicode="S" horiz-adv-x="919" d="M32 171l110 131q82 -80 166 -117t162 -37q48 0 86.5 9t66 27t42.5 44.5t15 60.5q0 10 -2 22.5t-10 25.5t-23 27.5t-41.5 29t-66 28t-97.5 26.5q-78 17 -134 38.5t-96 45.5t-65 52.5t-39.5 60t-19.5 65.5t-5 72q0 66 29 120t80.5 93t121 60t150.5 21q53 0 101 -6.5 t94.5 -23t92.5 -45.5t96 -75l-106 -136q-23 24 -54.5 46.5t-68.5 40t-77.5 28t-81.5 10.5q-37 0 -71 -8.5t-60.5 -24.5t-42 -39t-15.5 -53q0 -27 7.5 -51.5t33 -46t73 -41t127.5 -35.5q76 -16 133 -36.5t96.5 -44.5t64.5 -51.5t39.5 -57.5t19.5 -63t5 -69q0 -43 -13 -82.5 t-38 -74t-60 -62.5t-79.5 -48t-96.5 -30.5t-111 -10.5q-52 0 -107 6.5t-110 26.5t-110 56.5t-111 95.5z" />
<glyph unicode="T" horiz-adv-x="885" d="M22 896v165h841v-165h-329v-896h-185v896h-327z" />
<glyph unicode="U" horiz-adv-x="1145" d="M120 400v661h184v-659q0 -62 23 -110t60 -80.5t85.5 -49t99.5 -16.5q50 0 98 15.5t86 47t61 79t23 110.5v663h185v-655q0 -69 -17.5 -127.5t-48.5 -105.5t-73 -82t-92.5 -59t-107 -36t-114.5 -12t-113 12t-105.5 35.5t-93 59t-74 81.5t-49 103t-17.5 125z" />
<glyph unicode="V" horiz-adv-x="1107" d="M30 1061h202l323 -821l326 821h197l-449 -1068h-149z" />
<glyph unicode="W" horiz-adv-x="1639" d="M28 1061h197l261 -771l250 771h167l251 -771l260 771h198l-379 -1068h-149l-264 804l-265 -804h-149z" />
<glyph unicode="X" horiz-adv-x="1037" d="M9 0l399 548l-376 513h230l256 -377l258 377h228l-376 -513l400 -548h-228l-282 408l-280 -408h-229z" />
<glyph unicode="Y" horiz-adv-x="1060" d="M8 1061h218l304 -483l304 483h218l-430 -645v-416h-184v416z" />
<glyph unicode="Z" horiz-adv-x="972" d="M54 0v114l622 792h-600v155h847v-115l-620 -791h620v-155h-869z" />
<glyph unicode="[" horiz-adv-x="674" d="M120 -284v1472h458v-140h-286v-1192h286v-140h-458z" />
<glyph unicode="\" horiz-adv-x="868" d="M16 1191h161l683 -1365h-160z" />
<glyph unicode="]" horiz-adv-x="674" d="M96 -144h286v1192h-286v140h458v-1472h-458v140z" />
<glyph unicode="^" horiz-adv-x="730" d="M60 728l252 343h107l252 -343h-161l-145 206l-147 -206h-158z" />
<glyph unicode="_" horiz-adv-x="971" d="M12 -86h943v-134h-943v134z" />
<glyph unicode="`" horiz-adv-x="798" d="M211 1012l134 124l225 -260l-101 -83z" />
<glyph unicode="a" horiz-adv-x="876" d="M66 256q0 62 27 108t73 77t108 47t132 16q52 0 102 -7t88 -16v19q0 74 -47 113t-141 39q-26 0 -57.5 -6t-64 -15.5t-63.5 -22t-55 -24.5l-63 137q33 16 73 30.5t81.5 24.5t83 16.5t76.5 6.5q96 0 163 -21q68 -20 108 -60q38 -39 59 -92.5t21 -123.5v-502h-173v100 q-32 -38 -63.5 -60t-63.5 -33t-63 -14t-63 -3q-54 0 -104 17t-89 51t-62 84t-23 114zM241 258q0 -38 13.5 -62t34.5 -38t46 -20t49 -6q42 0 81 15t68 40t46.5 57t17.5 65v47q-16 4 -37.5 8.5t-45 7.5t-48 5t-47.5 2q-34 0 -66.5 -9t-57.5 -25t-39.5 -38.5t-14.5 -48.5z" />
<glyph unicode="b" horiz-adv-x="971" d="M106 0v1144h170v-470q22 32 53 55t65 38t69 22t67 7q50 0 96 -11t87 -34t75 -57t58 -79t37.5 -100t13.5 -121q0 -68 -15.5 -124t-42.5 -101t-63.5 -78t-77.5 -55.5t-84.5 -33.5t-85.5 -11q-24 0 -56 4.5t-66 17.5t-68 37t-62 60v-110h-170zM272 388q0 -58 20 -104.5 t52 -79t73.5 -50.5t84.5 -18q46 0 87 16.5t71 49t47 80.5t17 110q0 60 -17.5 107.5t-48 81t-71.5 51.5t-89 18q-47 0 -88 -20t-71.5 -54t-48.5 -82t-18 -106z" />
<glyph unicode="c" horiz-adv-x="825" d="M57 392q0 60 15 113t42.5 98t65 81t83 61.5t97.5 39t108 13.5q102 0 180 -39q76 -39 136 -109l-110 -114q-26 30 -52 51t-51.5 35t-52 21t-54.5 7q-43 0 -84.5 -17t-75.5 -50t-54 -81q-21 -48 -21 -108q0 -66 21.5 -115t55.5 -80.5t76 -47t82 -15.5q26 0 52 5t52 17 t52 32q28 20 54 49l106 -111q-36 -42 -73 -68t-76 -42t-81 -22t-86 -6q-50 0 -99.5 11.5t-95 34.5t-84 57t-67 78.5t-45 100t-16.5 120.5z" />
<glyph unicode="d" horiz-adv-x="951" d="M54 394q0 66 13.5 121t38 100t58.5 79t74.5 57t87 34t95.5 11q32 0 67.5 -7t69.5 -22t64 -38t52 -55v470h171v-1144h-171v110q-28 -37 -61 -60.5t-67 -36.5t-66 -17.5t-56 -4.5q-42 0 -86 11t-85 33.5t-77 55.5t-63 78t-43 101t-16 124zM227 392q0 -62 17.5 -110 t47.5 -80.5t70 -49t86 -16.5q43 0 84.5 18t74 50.5t52 79t19.5 104.5q0 57 -17.5 105.5t-48 82.5t-71.5 54t-89 20t-89 -18t-71 -51.5t-47.5 -81t-17.5 -107.5z" />
<glyph unicode="e" horiz-adv-x="884" d="M58 394q0 63 14.5 117.5t41 99.5t63 80t80 58.5t91.5 36t99 12.5q82 0 149.5 -28t115.5 -79.5t75 -123t27 -157.5q0 -4 -0.5 -13.5t-1 -21t-0.5 -23.5q-2 -12 -2 -22h-576q6 -48 30 -84.5t57 -61t71 -37.5t74 -13q26 0 55 3.5t58 15t59 31.5q28 22 56 56l106 -97 q-38 -44 -77 -73.5t-80 -47.5t-86 -25t-95 -7q-48 0 -97 12t-94 35.5t-84 58t-68 79.5t-45 100t-16 119zM235 468h405q0 10 -1 19t-3 18q-7 32 -23.5 59t-40.5 46.5t-56 31t-70 11.5q-32 0 -59 -8.5t-49.5 -22t-40.5 -32t-31 -40.5q-13 -20 -20 -41t-11 -41z" />
<glyph unicode="f" horiz-adv-x="540" d="M1 635v147h137v110q0 62 18 110t50 78q18 16 38.5 28t43 19.5t45 11t42.5 3.5q28 0 53.5 -4t48.5 -10t42 -14t34 -15l-37 -131q-25 14 -43.5 21t-34 10.5t-28 4t-26.5 0.5t-28 -8t-25 -23.5t-18 -37.5q-7 -21 -7 -49v-104h220v-147h-218v-635h-170v635h-137z" />
<glyph unicode="g" horiz-adv-x="961" d="M56 411q0 65 15 118.5t41.5 96t62 73.5t76.5 51.5t85 30.5t88 10q38 0 72 -5.5t66.5 -19.5t63 -37.5t59.5 -58.5v112h171v-704q0 -58 -16 -107t-44 -87t-66.5 -66t-84 -47t-95.5 -28t-102 -9q-40 0 -86 8t-94.5 24t-96 39t-89.5 55l78 130q73 -56 146.5 -84t139.5 -28 q50 0 94 12t77 37t51 63q17 36 17 83v5l-1 86q-48 -67 -112 -96.5t-146 -29.5q-41 0 -84 10.5t-84.5 32t-78 52.5t-64 72.5t-43.5 93t-16 112.5zM228 410q0 -56 20.5 -98.5t52.5 -71t70.5 -42.5t75.5 -14q42 0 84.5 15t77.5 44t57 72t22 99q0 53 -22.5 95.5t-58 73t-77.5 47 t-83 16.5q-40 0 -79.5 -16t-70.5 -46t-50 -74t-19 -100z" />
<glyph unicode="h" horiz-adv-x="908" d="M106 0v1144h170v-480q21 28 46.5 52t55 42.5t64 29t74.5 10.5q61 0 114.5 -21t93 -62t62.5 -103q22 -62 22 -146v-466h-170v466q0 42 -11 75.5t-31.5 57.5t-50 36.5t-65.5 12.5q-39 0 -75.5 -15t-65 -46t-46 -76.5t-17.5 -105.5v-405h-170z" />
<glyph unicode="i" horiz-adv-x="424" d="M121 902v178h183v-178h-183zM128 0v782h170v-782h-170z" />
<glyph unicode="j" horiz-adv-x="444" d="M-6 -252l36 130q23 -8 42 -12q18 -4 32 -4q26 0 42 19t16 55v846h170v-854q0 -50 -15 -89t-42 -66t-66 -41t-89 -14q-10 0 -24.5 1t-31 4.5t-34.5 9t-36 15.5zM156 902v178h182v-178h-182z" />
<glyph unicode="k" horiz-adv-x="890" d="M106 0v1144h170v-702l341 340h225l-316 -314l339 -468h-207l-246 352l-136 -134v-218h-170z" />
<glyph unicode="l" horiz-adv-x="412" d="M121 0v1144h171v-1144h-171z" />
<glyph unicode="m" horiz-adv-x="1394" d="M106 0v782h170v-104q46 57 109 88.5t139 31.5q74 0 130 -36t98 -106q16 26 40.5 51t58 45t75.5 33t96 13q68 0 119 -25t85 -69.5t51 -105t17 -129.5v-469h-170v461q0 43 -12 78t-32 59t-48 37.5t-60 13.5q-38 0 -72 -14t-59 -38.5t-39 -59.5t-14 -75v-462h-170v457 q0 42 -12 77.5t-33.5 61t-50 39.5t-60.5 14q-40 0 -74 -16.5t-59 -43.5t-39 -63t-14 -76v-450h-170z" />
<glyph unicode="n" horiz-adv-x="904" d="M106 0v782h170v-112q50 64 112 94t130 30q64 0 117 -20t90.5 -60.5t58 -102t20.5 -145.5v-466h-170v466q0 42 -12 75t-34 56t-52 35t-66 12q-39 0 -74.5 -13.5t-61.5 -42.5t-42 -74.5t-16 -107.5v-406h-170z" />
<glyph unicode="o" horiz-adv-x="935" d="M57 392q0 56 14.5 108t41.5 97t64.5 82t83 63.5t98 41t109.5 14.5q56 0 109 -14.5t98 -41t83 -63.5t64.5 -82t41 -97t14.5 -108t-14.5 -108t-41 -97t-64.5 -82t-83 -64t-98 -41t-109 -14t-109 14t-98.5 41t-83 64t-64.5 82t-41.5 97t-14.5 108zM226 392q0 -54 19 -101.5 t52 -83t77 -56.5q46 -21 96 -21t94 21t77 56.5t52.5 83t19.5 101.5t-19.5 102t-52.5 83.5t-77 56t-94 20.5t-95 -20.5t-78 -56t-52 -83.5t-19 -102z" />
<glyph unicode="p" horiz-adv-x="953" d="M106 -278v1060h170v-110q28 37 62 60.5t68 36.5t66 18t56 5q42 0 85.5 -11t84.5 -33.5t77.5 -56t63.5 -78.5t42.5 -101t15.5 -124q0 -66 -13.5 -121t-37.5 -100t-58 -78.5t-75 -56.5t-87 -34.5t-96 -11.5q-32 0 -67 7t-69 22t-64 39q-32 22 -54 54v-386h-170zM272 394 q0 -57 18 -105t48.5 -82.5t72 -54t87.5 -19.5q48 0 89 18t71.5 51.5t48 81t17.5 107.5q0 62 -17 110t-47 80.5t-71 48.5t-87 16q-43 0 -84.5 -17.5t-73.5 -50t-52 -79.5t-20 -105z" />
<glyph unicode="q" horiz-adv-x="954" d="M56 388q0 68 16 124t43 101t63 78.5t77 56t85 33.5t86 11q24 0 56 -5t66 -18t67.5 -36.5t61.5 -60.5v110h171v-1060h-171v386q-22 -32 -52.5 -55t-64.5 -38t-69 -22t-67 -7q-50 0 -96 11.5t-87 34.5t-75 56.5t-58 78.5t-38 100t-14 121zM230 391q0 -60 17 -107.5 t47.5 -81t72 -51.5t88.5 -18t88 19.5t72 54t48.5 82.5t17.5 105q0 58 -19.5 105t-52 79.5t-74 50t-84.5 17.5q-46 0 -86.5 -16t-70.5 -48.5t-47 -80t-17 -110.5z" />
<glyph unicode="r" horiz-adv-x="603" d="M106 -1v783h170v-164q16 36 40 67t54.5 54t66 37t74.5 14q8 0 18.5 -0.5t22.5 -2t24.5 -3.5t24.5 -4l-33 -166q-34 6 -63 6q-32 0 -61.5 -11t-54.5 -30t-46 -45t-36 -57t-23 -64t-8 -67v-347h-170z" />
<glyph unicode="s" horiz-adv-x="693" d="M26 114l84 120q37 -33 70.5 -52.5t64.5 -30.5t59 -14.5t56 -3.5q24 0 46.5 5.5t40 16.5t27.5 27t10 35q0 21 -12 38t-34.5 31t-55 24.5t-72.5 19.5q-64 14 -110 36t-76 52t-43.5 68t-13.5 84q0 53 24.5 95t64.5 70.5t92 43.5q50 15 106 15q38 0 72 -5t68 -16t68 -29 t72 -45l-72 -125q-52 38 -108 58.5t-106 20.5q-34 0 -57 -6.5t-37 -17t-20 -24t-6 -27.5q0 -20 7.5 -35t25 -28t47.5 -24t76 -21q70 -16 120 -38t82 -51t47 -67t15 -86q0 -59 -25 -103t-67 -73.5t-95 -44.5t-109 -15q-42 0 -80 4t-77 17t-81 37t-88 64z" />
<glyph unicode="t" horiz-adv-x="566" d="M36 635v147h100v263h170v-263h222v-147h-222v-424q0 -20 4 -34t11 -22.5t17 -11.5t23 -3q10 0 23.5 1t30.5 5t38 12t46 20l36 -134q-42 -27 -91 -39.5t-101 -12.5q-45 0 -83 12t-65.5 37t-43 65.5t-15.5 97.5v431h-100z" />
<glyph unicode="u" horiz-adv-x="908" d="M100 310v472h170v-470q0 -40 12 -73t34 -57t52 -37.5t67 -13.5q39 0 74.5 15.5t63 43.5t43.5 66t16 84v442h170v-782h-170v104q-20 -27 -48 -49t-59 -38t-66 -24.5t-69 -8.5q-62 0 -115 23t-92 66t-61 103t-22 134z" />
<glyph unicode="v" horiz-adv-x="860" d="M25 782h182l223 -560l222 560h182l-336 -783h-137z" />
<glyph unicode="w" horiz-adv-x="1226" d="M25 782h179l163 -538l183 538h128l182 -538l163 538h179l-262 -783h-142l-184 553l-185 -553h-143z" />
<glyph unicode="x" horiz-adv-x="863" d="M26 0l310 404l-292 378h206l182 -258l182 258h206l-292 -378l310 -404h-211l-195 280l-196 -280h-210z" />
<glyph unicode="y" horiz-adv-x="864" d="M26 782h186l225 -572l216 572h185l-348 -856q-22 -52 -52 -86t-64 -53t-70 -26t-68 -7q-18 0 -43 4.5t-50 12t-48 16.5t-40 19l59 124q12 -6 26 -12t29 -10t29 -6.5t27 -2.5q4 0 14 0.5t22.5 3.5t25.5 10t25 21q6 8 13 20t13 25t10 24.5t6 18.5z" />
<glyph unicode="z" horiz-adv-x="759" d="M15 0v108l455 532h-430v142h665v-107l-455 -533h454v-142h-689z" />
<glyph unicode="{" horiz-adv-x="728" d="M64 394v138h52q36 0 60 9.5t39 26.5t21 41t6 53q0 56 -3.5 112t-3.5 117q0 54 22.5 107.5t69.5 99.5t119 81t172 51l28 -133q-64 -14 -109.5 -35.5t-75 -49.5t-43.5 -62q-13 -34 -13 -70q0 -56 4 -111t4 -114q0 -70 -27.5 -116.5t-78.5 -75.5q51 -28 78.5 -75t27.5 -117 q0 -56 -4 -111q-4 -54 -4 -114q0 -36 13.5 -70t43 -62t75 -50t109.5 -36l-26 -131q-106 16 -179 50.5t-119 80.5t-66.5 99t-20.5 107q0 57 3.5 113.5t3.5 116.5q0 29 -6 53.5t-21 41t-39 26t-60 9.5h-52z" />
<glyph unicode="|" horiz-adv-x="464" d="M152 -180v1376h160v-1376h-160z" />
<glyph unicode="}" horiz-adv-x="728" d="M82 -172q64 14 109.5 36t75 50t43.5 62q13 34 13 70q0 60 -4 115t-4 110q0 70 27.5 116.5t78.5 75.5q-50 28 -78 75t-28 117q0 59 4 114t4 111q0 36 -13.5 70t-43 62t-75 50t-109.5 35l28 133q100 -16 172 -51t119 -81t69.5 -99.5t22.5 -107.5q0 -60 -3.5 -116.5 t-3.5 -112.5q0 -29 6 -53t21 -41t39 -26.5t60 -9.5h52v-138h-52q-36 0 -60 -9.5t-39 -26t-21 -40.5t-6 -54q0 -60 3.5 -116.5t3.5 -113.5q0 -54 -20.5 -107t-66.5 -99t-120 -80q-72 -35 -178 -51z" />
<glyph unicode="~" horiz-adv-x="783" d="M80 377q12 52 33 87.5t46.5 58t54 32.5t56.5 10q30 0 64 -7.5t70 -19.5q16 -4 30.5 -9t28.5 -9.5t25.5 -7t21.5 -2.5q7 0 16.5 3.5t19.5 12t18 21.5t12 34l126 -35q-13 -51 -34.5 -86.5t-47 -57.5t-54 -32t-56.5 -10q-30 0 -67 9t-75 20q-30 9 -55 18t-43 9q-10 0 -20 -4 t-19 -13t-16 -23t-10 -33z" />
<glyph unicode="&#xa2;" horiz-adv-x="876" d="M89 510q0 80 26 147t71.5 119t106.5 86t131 47v183h117v-178q87 -8 155 -45q66 -37 120 -101l-110 -114q-42 48 -82 74t-83 36v-506q40 7 81.5 29.5t83.5 69.5l106 -111q-31 -36 -63.5 -61t-66 -41t-69 -24t-72.5 -11v-139h-117v144q-66 11 -126 41.5t-107 81t-74.5 119 t-27.5 154.5zM261 512q0 -52 13.5 -93t36.5 -71.5t52 -51t61 -30.5v490q-33 -12 -62.5 -33.5t-51.5 -52t-35.5 -70.5t-13.5 -88z" />
<glyph unicode="&#xa3;" horiz-adv-x="912" d="M71 0v108q12 3 31 11.5t36.5 21.5t29.5 31t12 40v230h-105v152h105v135q0 74 25 136.5t70.5 107.5t110 70.5t145.5 25.5q50 0 98 -13.5t90.5 -34.5t77.5 -49t59 -58l-116 -106q-24 24 -50 44.5t-53.5 35.5t-55 23.5t-54.5 8.5q-42 -2 -73 -18t-51.5 -41.5t-30.5 -59 t-10 -71.5v-136h390v-152h-390v-235q0 -6 -1 -14t-3 -16.5t-4 -16.5q-2 -6 -6 -10h505v-150h-782z" />
<glyph unicode="&#xa5;" horiz-adv-x="1082" d="M16 1061h214l311 -471l311 471h214l-322 -471h203v-138h-297l-18 -26v-52h315v-138h-315v-236h-182v236h-316v138h316v52l-18 26h-298v138h204z" />
<glyph unicode="&#xa9;" horiz-adv-x="1253" d="M81 533q0 75 19.5 145t55 130.5t85.5 110t110.5 85.5t130.5 55t145 19t145 -19t130.5 -55t110 -85.5t85.5 -110t55 -130.5t19 -145q0 -76 -19 -145.5t-55 -130t-85.5 -110.5t-110 -85.5t-130.5 -55t-145 -19.5q-76 0 -145.5 19.5t-130 55t-110.5 85.5t-85.5 110.5 t-55 130t-19.5 145.5zM206 530q0 -58 15 -112t42.5 -101t66 -85t85.5 -65.5t100.5 -42.5t111.5 -15t111.5 15t100.5 42.5t85 65.5t66 85t43 101t15 112t-15 111.5t-43 100t-66 85t-85 66t-100.5 42.5t-111.5 15t-111.5 -15t-100.5 -42.5t-85.5 -66t-66 -85t-42.5 -100 t-15 -111.5zM354 532v7q0 68 22.5 125.5t61 98.5t90.5 64q54 23 114 23q34 0 64.5 -7t57.5 -20t51.5 -31t47.5 -38l-77 -94q-14 14 -30.5 27t-34.5 23t-38 16q-19 6 -41 6q-36 0 -66 -14t-51.5 -39t-33.5 -61t-12 -78v-8q0 -43 12.5 -78.5t34 -60.5t51.5 -39q29 -14 65 -14 t76 18t76 52l72 -89q-22 -22 -48.5 -39.5t-56 -31t-61 -21t-62.5 -7.5q-62 0 -114 23t-89.5 63t-59 97t-21.5 127z" />
<glyph unicode="&#xab;" horiz-adv-x="835" d="M66 400l290 344l114 -81l-216 -263l216 -263l-114 -80zM365 400l289 344l114 -81l-215 -263l215 -263l-114 -80z" />
<glyph unicode="&#xad;" horiz-adv-x="631" d="M94 443v143h442v-143h-442z" />
<glyph unicode="&#xae;" horiz-adv-x="1253" d="M81 533q0 75 19.5 145t55 130.5t85.5 110t110.5 85.5t130.5 55t145 19t145 -19t130.5 -55t110 -85.5t85.5 -110t55 -130.5t19 -145q0 -76 -19 -145.5t-55 -130t-85.5 -110.5t-110 -85.5t-130.5 -55t-145 -19.5q-76 0 -145.5 19.5t-130 55t-110.5 85.5t-85.5 110.5 t-55 130t-19.5 145.5zM206 530q0 -58 15 -112t42.5 -101t66 -85t85.5 -65.5t100.5 -42.5t111.5 -15t111.5 15t100.5 42.5t85 65.5t66 85t43 101t15 112t-15 111.5t-43 100t-66 85t-85 66t-100.5 42.5t-111.5 15t-111.5 -15t-100.5 -42.5t-85.5 -66t-66 -85t-42.5 -100 t-15 -111.5zM413 242v600h251q42 0 77 -12.5t60.5 -37t40 -60.5t14.5 -82q0 -33 -8 -60.5t-21 -49t-31 -38.5q-20 -16 -42 -28l126 -232h-130l-106 206h-119v-206h-112zM525 554h131q42 0 64 24t22 65q0 44 -23 66t-63 22h-131v-177z" />
<glyph unicode="&#xbb;" horiz-adv-x="835" d="M66 137l216 263l-216 263l115 81l289 -344l-289 -343zM364 137l216 263l-216 263l115 81l289 -344l-289 -343z" />
<glyph unicode="&#xbc;" horiz-adv-x="1184" d="M60 408v118h153v296l-107 -52l-42 112l186 86h92v-442h142v-118h-424zM271 -11l635 981h144l-636 -981h-143zM646 204l278 358h120v-340h78v-110h-78v-111h-122v111h-258zM788 220h136v168z" />
<glyph unicode="&#xbd;" horiz-adv-x="1205" d="M30 408v118h153v296l-107 -52l-42 112l186 86h92v-442h142v-118h-424zM231 -11l635 981h144l-636 -981h-143zM716 0v90l234 192q16 14 31 26t26 25t17.5 26t6.5 28q0 12 -6.5 23t-18 18.5t-26 12t-30.5 4.5q-26 0 -47.5 -6.5t-39.5 -17.5t-31.5 -26.5t-23.5 -32.5l-90 84 q19 26 42.5 48t51.5 37.5t62.5 24t75.5 8.5q42 0 80 -12t67 -34t46 -54t17 -73q0 -36 -13 -65.5t-35 -55.5t-51 -50t-61 -46l-90 -60h250v-114h-444z" />
<glyph unicode="&#xbe;" horiz-adv-x="1138" d="M56 512l73 86q18 -22 36 -37t35.5 -24t33.5 -13t30 -4t30 5t30 13.5t23 21.5q9 12 9 30q0 17 -9 31.5t-24 24.5t-35 15t-41 5h-51l-27 66l139 125h-216v111h381v-88l-137 -120q26 -8 52 -24t47 -37t34.5 -48t13.5 -59q0 -43 -19.5 -77.5t-50.5 -59.5t-70.5 -38t-79.5 -13 q-30 0 -59.5 8.5t-56.5 23t-50 34.5t-41 42zM216 -11l636 981h142l-636 -981h-142zM602 204l278 358h120v-340h78v-110h-78v-111h-122v111h-258zM744 220h136v168z" />
<glyph unicode="&#xd7;" horiz-adv-x="757" d="M90 330l187 188l-187 188l102 98l180 -187l182 187l98 -97l-185 -187l185 -188l-100 -98l-182 186l-179 -186z" />
<glyph unicode="&#xf7;" horiz-adv-x="790" d="M92 444v140h606v-140h-606zM297 294q0 20 7.5 37.5t21 31t31 21t37.5 7.5t38 -7.5t31 -21t21 -31t8 -37.5t-8 -38t-21 -31t-31 -21t-38 -8t-37.5 8t-31 21t-21 31t-7.5 38zM297 736q0 20 7.5 37.5t21 30.5t31 20.5t37.5 7.5t38 -7.5t31 -20.5t21 -30.5t8 -37.5t-8 -38 t-21 -31t-31 -21t-38 -8t-37.5 8t-31 21t-21 31t-7.5 38z" />
<glyph unicode="&#xe01;" horiz-adv-x="987" d="M124 0v508q0 56 14 104t39 87t59.5 69t75.5 50t87.5 30.5t94.5 10.5t95 -10.5t88 -30.5t75 -50t59 -69t39 -87t14 -104v-508h-178v506q0 42 -11.5 78t-35 62t-59.5 41t-86 15q-47 0 -82.5 -15t-60 -41t-37 -62t-12.5 -78v-506h-178z" />
<glyph unicode="&#xe02;" horiz-adv-x="741" d="M12 850h188l170 -570l170 570h188l-281 -850h-152z" />
<glyph unicode="&#xe03;" horiz-adv-x="893" d="M76 696v148q6 2 15.5 3.5t19 2t17.5 1t12 0.5q34 0 68 -8.5t61 -26.5t47 -47t28 -70q8 18 12.5 34.5t7 34.5t3.5 37.5t1 44.5h170q0 -94 -30 -166t-88 -132q-30 -30 -55 -56t-43 -53t-28 -58t-10 -69q0 -33 10.5 -63.5t30 -53.5t48.5 -37t65 -14t65 14t49 37t30 53.5 t10 63.5v534h178v-534q0 -45 -12 -86.5t-33 -77.5t-51 -66t-66 -51t-79 -33t-90 -12q-46 0 -88.5 12t-78.5 33t-66.5 51t-52 66t-33.5 78t-12 86q0 50 13.5 91t34 75t44.5 61t46 51q0 22 -8 41t-23 34t-36 24t-47 9h-8.5t-15 -1t-16.5 -2t-16 -3z" />
<glyph unicode="&#xe04;" horiz-adv-x="997" d="M124 0v508q0 56 14 104t40 87t61 69t77 50.5t89 31t95 10.5t95 -10.5t88.5 -31t76 -50.5t60 -69t39.5 -87t14 -104v-508h-178v506q0 42 -11.5 78t-36 62t-61 41t-86.5 15q-48 0 -84.5 -15t-62 -41t-38.5 -62t-13 -78v-3h227v-153h-227v-350h-178z" />
<glyph unicode="&#xe05;" horiz-adv-x="1002" d="M124 0v850h123l253 -156l256 156h122v-850h-178v643l-200 -121l-198 120v-201h226v-153h-226v-288h-178z" />
<glyph unicode="&#xe06;" horiz-adv-x="979" d="M56 696v148q6 2 15.5 3.5t19 2t17.5 1t12 0.5q34 0 68 -8.5t61 -26.5t47 -47t28 -70q10 18 15 34.5t7 34t2 37.5v45h170q0 -48 -7 -88t-21.5 -76t-37 -69t-52.5 -65q-24 -25 -42 -47.5t-30.5 -45.5t-18.5 -47q-6 -26 -6 -54l1 -37q0 -14 8.5 -32.5t23 -37.5t33.5 -38 t42 -33.5t50 -23.5t55 -9q30 0 58.5 7.5t51 26.5t36.5 50t14 79v540h179v-541q0 -78 -25.5 -137.5t-66.5 -99.5t-92 -61t-102 -21q-44 0 -82.5 11.5t-72 31t-61 44.5t-50.5 51l-1 -128h-176v370q0 37 8.5 67.5t22 57.5t32 51.5t37.5 47.5q0 22 -8 41t-23 34t-36 24t-47 9 h-8.5t-15 -1t-16.5 -2t-16 -3z" />
<glyph unicode="&#xe07;" horiz-adv-x="670" d="M-22 218l142 88q12 -34 27 -63t33.5 -50.5t39.5 -33.5q20 -12 44 -12q47 0 75.5 43.5t28.5 131.5v528h178v-529q0 -74 -17 -135.5t-51.5 -104.5t-87 -67t-124.5 -24q-42 0 -78 11t-65 28.5t-52.5 41t-41 48.5t-30.5 51t-21 48z" />
<glyph unicode="&#xe08;" horiz-adv-x="743" d="M-2 632q16 47 48.5 88.5t78 72t102.5 48.5t120 18q74 0 136.5 -19.5t108.5 -57.5t73 -94t27 -129q0 -18 -3.5 -41.5t-10 -48.5t-16.5 -53t-22 -55q-6 -12 -16 -32.5t-22 -45.5t-26.5 -54t-28.5 -58q-12 -24 -25 -50.5t-24.5 -50t-19.5 -42.5q-10 -18 -14 -28h-148 l-252 489h190l133 -285q8 18 17.5 39t18.5 42t17 42t15 38.5t13 32t8 22.5q6 18 13 37t13 37t9 34t3 30q0 37 -14 64.5t-37 46.5t-53 28t-63 9q-27 0 -55 -8t-54.5 -25t-49.5 -45q-22 -26 -38 -66z" />
<glyph unicode="&#xe09;" horiz-adv-x="974" d="M53 672q40 51 87.5 86.5t98.5 57.5t103 32.5t100 10.5q82 0 154 -25.5t124 -74t82 -119t30 -162.5v-478h-178v112q-26 -26 -56 -49t-63 -39t-69 -25t-73 -9q-64 0 -117.5 22t-92.5 63.5t-61 102.5t-22 140v171h179v-169q0 -50 11.5 -83t33 -53t51 -28.5t63.5 -8.5 q44 0 83.5 15.5t69 42t46.5 63t17 78.5v132q0 56 -17 97.5t-46.5 70t-68 42.5t-80.5 14q-33 0 -67.5 -8t-68.5 -25.5t-67.5 -44.5t-64.5 -65z" />
<glyph unicode="&#xe0a;" horiz-adv-x="837" d="M46 773q22 21 46.5 36t51 25t52.5 14.5t50 4.5q34 0 68 -11.5t62 -34.5t45 -60t17 -90q0 -38 -11 -67.5t-27 -53t-33 -42t-29 -32.5q-13 -16 -24.5 -33t-20.5 -34.5t-15 -37t-6 -41.5q0 -33 11.5 -62.5t32.5 -51.5t51.5 -35.5t68.5 -13.5t68 13.5t50 35.5t31 51.5 t11 62.5q0 30 -7.5 59t-24 52t-43 37t-64.5 16v160l165 210h210l-222 -265q39 -14 69.5 -39.5t51.5 -60t31 -77t10 -92.5q0 -45 -11 -86.5t-32.5 -77.5t-51.5 -66t-67.5 -51t-81 -33t-91.5 -12q-72 0 -134.5 26t-108.5 70t-72 104q-26 58 -26 126q0 44 11.5 81t29 67 t39.5 53q20 23 40 41q13 11 25 22.5t21 23.5t14 26q6 14 6 30q0 12 -5.5 21t-13 14.5t-17.5 8.5q-8 2 -16 2q-30 -2 -57.5 -17.5t-53.5 -40.5z" />
<glyph unicode="&#xe0b;" horiz-adv-x="837" d="M44 700v148q4 0 10 1t12.5 1t12.5 0.5t10 0.5q34 0 67.5 -8.5t61 -26.5t47 -47t27.5 -70q8 18 13 34.5t7 34.5t3 37.5t1 44.5h154q0 -95 -27 -169t-77 -128q-23 -25 -40 -50t-29 -53t-18 -61q-7 -33 -7 -73q0 -33 11 -62.5t32 -51.5t51 -35.5t68 -13.5t68 13.5t51 35.5 t32 51.5t11 62.5q0 30 -7.5 59t-24 52t-43 37t-64.5 16v160l165 210h210l-222 -265q39 -14 69.5 -39.5t51.5 -60t31 -77t10 -92.5q0 -45 -11.5 -86.5t-33 -77.5t-52 -66t-68 -51t-81.5 -33t-92 -12t-92 12t-81 33t-68 51t-52 66t-33 78t-12 86q0 50 7.5 89t21 72t31.5 61 q17 30 38 56q0 22 -8 41t-22.5 34t-35.5 24t-48 9h-16t-20 -2z" />
<glyph unicode="&#xe0c;" horiz-adv-x="1389" d="M66 634q14 20 33 44.5t44.5 49.5t58 48.5t73.5 42t91 29.5q48 11 108 11q46 0 90 -9.5t83.5 -27.5t72.5 -46t57 -66t37.5 -86t13.5 -107v-186q0 -18 7 -38.5t19 -40.5t27.5 -39t34 -33.5t37.5 -23t38 -8.5q24 0 42.5 8t30 26t17 47t5.5 71v550h179v-552 q0 -74 -13.5 -130.5t-42 -95.5t-73 -59t-106.5 -20q-28 0 -58 10.5t-57.5 28t-51 41t-37.5 49.5v-122h-176v516q-2 50 -17 86t-40 58t-56 32t-63 10q-36 0 -65 -4t-53.5 -13t-45.5 -21q-22 -14 -42 -30l112 -120q-24 -22 -46 -48t-39 -57t-27 -66t-10 -75q0 -20 5 -42 t14 -40t23 -30t32 -12h9.5t13 2t17.5 6q10 2 22 10l75 -122q-14 -11 -33.5 -19.5t-41.5 -14.5t-45 -9.5t-42 -3.5q-38 0 -69.5 11.5t-55.5 31.5t-42.5 47t-30.5 57.5t-17.5 63t-5.5 62.5q0 40 6 75t17 66t27.5 59t36.5 54z" />
<glyph unicode="&#xe0d;" horiz-adv-x="1365" d="M66 634q6 14 23 36t42 47t58.5 50.5t75 46t91.5 32.5q50 13 106 13q46 0 90 -9t85 -27.5t75 -46.5t59.5 -66t40 -86t14.5 -107v-137q0 -42 11 -69.5t28.5 -44t39 -23.5t42.5 -7q20 0 40.5 7t37.5 23.5t27 44t10 69.5v470h179v-472q0 -54 -12.5 -96.5t-34.5 -75.5 t-51 -56.5t-61.5 -39.5t-67.5 -23t-68 -7q-34 0 -69 7t-68 23t-62.5 39.5t-51.5 56.5t-35 75.5t-13 96.5v138q-2 50 -17.5 86t-41 58t-58 32t-68.5 10q-34 0 -64 -5t-54 -14t-43 -21t-33 -26l113 -122q-24 -22 -46 -48t-38.5 -57t-26.5 -66t-10 -75q0 -20 4.5 -42t13.5 -40 t22.5 -30t33.5 -12h9t13 2t18 6q10 2 22 10l74 -122q-14 -11 -34 -19.5t-42 -14.5t-44 -9.5t-42 -3.5q-38 0 -69 11.5t-56 31.5t-43 47t-30 57.5t-18 63t-6 62.5q0 40 6.5 75t18 66t27.5 59t36 54zM656 0h572v-149h-572v149z" />
<glyph unicode="&#xe0e;" horiz-adv-x="976" d="M54 628q36 52 79 94t95.5 73t114 48t135.5 17q78 0 146.5 -22.5t119 -66.5t79.5 -108.5t29 -149.5v-764h-286l-161 83l-188 -94l-79 126l268 132l201 -101h67v617q0 42 -12 77t-37 60.5t-62 39.5t-85 14q-21 0 -46.5 -4t-52.5 -13.5t-53 -23.5q-25 -14 -46 -36 q31 -46 47.5 -90t24.5 -79t9 -60t1 -34q0 -44 -8 -93.5t-29 -100.5t-56.5 -100t-90.5 -91l-118 122q36 32 60 64.5t38.5 65t20 65.5t5.5 65q0 30 -6 63t-21 68t-40 69q-25 36 -63 68z" />
<glyph unicode="&#xe0f;" horiz-adv-x="979" d="M54 628q36 52 79 94t95 73t114 48t134 17q77 0 145.5 -23.5t119.5 -68t81 -110.5t30 -150v-759h-289l-99 60l-120 -77l-226 86l79 130l136 -50l129 82l142 -85h70v611q0 42 -13 78t-38 62.5t-62.5 41.5t-84.5 15q-21 0 -46.5 -4t-51.5 -13.5t-52 -23.5q-25 -14 -46 -36 q31 -46 47.5 -90t24.5 -79t9 -60t1 -34q0 -44 -8 -93.5t-29 -100.5t-56.5 -100t-90.5 -91l-118 122q36 32 60 64.5t38.5 65t20 65.5t5.5 65q0 30 -6 63t-21 68t-40 69q-25 36 -63 68z" />
<glyph unicode="&#xe10;" horiz-adv-x="768" d="M8 626q16 47 47 87.5t75 70.5t99 47.5t119 17.5h380v-141h-120q16 -12 29 -30t22.5 -39t15 -44.5t5.5 -45.5q0 -38 -18 -97q-18 -58 -52 -139q-8 -18 -19 -42.5t-24 -52.5t-26.5 -58t-26.5 -58.5t-24.5 -55t-18.5 -46.5h-149l-252 479h190l130 -265q9 21 19 42.5 t18.5 42.5t16.5 39t12 32q6 16 14 41t15 51t11.5 49t4.5 37q0 37 -11.5 64.5t-32.5 46.5t-49 28t-60 9q-27 0 -53 -7t-50 -24t-44.5 -44t-36.5 -66zM63 -71h161q0 -20 4 -34t12 -22.5t17 -12.5t19 -4t18 4t14.5 12.5t10.5 22.5t4 34h147q0 -20 3.5 -34t10 -22.5t14.5 -12.5 t18 -4t19 4t17 12.5t12 22.5t4 34h162q0 -46 -17 -84.5t-45 -66.5t-66 -43.5t-80 -15.5q-16 0 -34 4t-34.5 11.5t-31.5 18t-27 23.5q-26 -26 -58 -42q-33 -15 -67 -15q-42 0 -80 15.5t-66 43.5t-44.5 67t-16.5 84z" />
<glyph unicode="&#xe11;" horiz-adv-x="1010" d="M56 696v148q6 2 15.5 3.5t19 2t17.5 1t12 0.5q34 0 68 -8.5t61 -26.5t47 -47t28 -70q10 18 15 34.5t7 34t2 37.5v45h170q0 -48 -7 -88t-21.5 -76t-37 -69t-52.5 -65q-4 -4 -6 -5t-2.5 -2l-1.5 -3q0 -1 -4 -5q-11 -14 -19.5 -28.5t-14 -31.5t-8 -39t-2.5 -50v-96l385 558 h159v-850h-178v552l-382 -552h-163v388q0 61 18 110.5t46 89.5q0 22 -8.5 42t-23 36t-36 26t-47.5 10h-8.5t-15 -1t-16.5 -2t-16 -3z" />
<glyph unicode="&#xe12;" horiz-adv-x="1447" d="M39 425q0 60 11.5 115.5t32.5 103.5t52 88t70 68t86 44t99 16q114 0 188 -112l134 102h160l1 -528q0 -18 6.5 -38t18.5 -39t28 -37t34 -31.5t38 -21.5t39 -8q24 0 43.5 8.5t32.5 26.5t20 47t7 71v550h178v-552q0 -74 -15.5 -131t-46.5 -96.5t-77.5 -60t-108.5 -20.5 q-26 0 -53 9t-53.5 25t-50 40t-43.5 52v-116h-176v650l-134 -102q-14 27 -32 55t-39.5 50t-46 36t-52.5 14q-37 0 -68.5 -20.5t-54.5 -57.5t-36.5 -88t-13.5 -112q0 -51 11 -101.5t34.5 -90t59.5 -64.5t88 -25q12 0 27 2.5t33 9t36 19.5t36 32l74 -125q-22 -24 -47 -41.5 t-52 -28.5t-54 -16.5t-53 -5.5q-56 0 -105 15.5t-90 43.5t-74 67.5t-55.5 87.5t-34.5 104t-12 117z" />
<glyph unicode="&#xe13;" horiz-adv-x="1388" d="M65 634q14 20 33 44.5t44.5 49.5t58.5 48.5t74 42t90 29.5t109 11q69 0 132.5 -20.5t113 -62.5t79 -106.5t29.5 -152.5v-217q0 -42 5.5 -71t17.5 -47t30 -26q19 -8 43 -8q19 0 38 8.5t37.5 23t34 33.5t27.5 39t18.5 40.5t6.5 38.5v519h178v-850h-175l-1 122 q-14 -26 -37 -49.5t-51 -41t-58 -28t-58 -10.5q-62 0 -106 20.5t-73 59.5t-42 96t-13 131v216q-2 50 -17.5 86t-40 58t-55.5 32t-63 10q-36 0 -65 -4t-54 -13t-46 -21q-21 -14 -41 -30l112 -120q-24 -22 -46 -48t-39 -57t-27 -66t-10 -75q0 -20 5 -42t14 -40t22.5 -30 t32.5 -12h9t13 2t18 6q10 2 22 10l74 -122q-14 -11 -33.5 -19.5t-41.5 -14.5t-44.5 -9.5t-42.5 -3.5q-38 0 -69 11.5t-55.5 31.5t-43 47t-30.5 57.5t-17.5 63t-5.5 62.5q0 40 6.5 75t17.5 66t27 59t36 54z" />
<glyph unicode="&#xe14;" horiz-adv-x="973" d="M39 420q0 64 14.5 122t42 107t66 88t87 66t105 41t120.5 14q78 0 146 -22t119 -64.5t80.5 -105t29.5 -144.5v-522h-178v520q0 42 -13 76t-38.5 57t-62 36t-84.5 13q-54 0 -100.5 -19.5t-81.5 -56t-54.5 -88.5t-19.5 -118q0 -33 6.5 -66t19.5 -63.5t31.5 -57.5t42 -47 t52.5 -31t62 -11q14 0 30.5 3t32 9.5t30 15t26.5 20.5l72 -120q-24 -24 -50 -39t-51 -25t-48 -14t-45 -4q-58 0 -109 16t-94 44t-77.5 67t-58.5 87t-37 103t-13 113z" />
<glyph unicode="&#xe15;" horiz-adv-x="996" d="M39 425q0 60 11.5 115.5t32.5 103.5t52 88t70 68t86 44t99 16q114 0 188 -112l134 102h160v-850h-178v650l-134 -102q-14 27 -32 55t-39.5 50t-46 36t-52.5 14q-37 0 -68.5 -20.5t-54.5 -57.5t-36.5 -88t-13.5 -112q0 -51 11 -101.5t34.5 -90t59.5 -64.5t88 -25 q12 0 27 2.5t33 9t36 19.5t36 32l74 -125q-22 -24 -47 -41.5t-52 -28.5t-54 -16.5t-53 -5.5q-56 0 -105 15.5t-90 43.5t-74 67.5t-55.5 87.5t-34.5 104t-12 117z" />
<glyph unicode="&#xe16;" horiz-adv-x="961" d="M68 634q14 20 33 44.5t45 49.5t58.5 48.5t73.5 42t90.5 29.5t108.5 11q46 0 90.5 -9.5t84.5 -27.5t74 -46t59 -66t39 -86t14 -107v-517h-178v516q-2 50 -18.5 86t-42.5 58t-58 32t-64 10q-36 0 -65.5 -4t-53.5 -13t-45 -21q-21 -14 -41 -30l111 -120q-24 -22 -46 -48 t-38.5 -57t-26.5 -66t-10 -75q0 -20 4.5 -42t13.5 -40t22.5 -30t33.5 -12h9t13 2t18 6q10 2 22 10l74 -122q-14 -11 -34 -19.5t-42 -14.5t-44 -9.5t-42 -3.5q-38 0 -69 11.5t-56 31.5t-43 47t-30 57.5t-18 63t-6 62.5q0 40 6.5 75t18 66t27.5 59t36 54z" />
<glyph unicode="&#xe17;" horiz-adv-x="988" d="M124 0v850h176v-140q23 29 52 56t63.5 48t73 33.5t82.5 12.5q62 0 115.5 -21t93 -61.5t62 -101t22.5 -139.5v-537h-178v535q0 44 -12 75.5t-33 52t-49 30.5t-60 10q-28 0 -55 -8.5t-53 -24.5t-48 -37t-38 -45t-26 -51t-10 -53v-484h-178z" />
<glyph unicode="&#xe18;" horiz-adv-x="855" d="M80 627q0 38 14.5 70t39.5 58t59 45.5t72.5 32.5t80.5 20t84 7q44 0 88 -6t87 -20t85 -36t79 -54l-91 -129q-58 47 -122.5 67.5t-125.5 20.5q-33 0 -64 -4.5t-55 -13.5t-38.5 -22t-14.5 -31q0 -14 13 -25t34 -20.5t47 -17t53.5 -14t53 -12t43.5 -9.5q82 -20 135 -47 t84 -61.5t43 -77.5q12 -44 12 -96q0 -40 -12 -75t-33 -64t-50.5 -52t-64.5 -39t-74 -24q-40 -8 -80 -8q-41 0 -82.5 7.5t-80.5 22t-73 35.5t-59 48t-39.5 59t-14.5 68v164h179v-163q0 -17 15 -32t40 -27t56 -18.5t63 -6.5q30 0 54 7.5t41.5 20.5t27 31t9.5 40t-7 42 t-25.5 37t-50 32t-77.5 27q-21 6 -48.5 11t-54 10.5t-48 10t-29.5 6.5q-40 12 -72.5 31t-56 45t-36.5 58t-13 71z" />
<glyph unicode="&#xe19;" horiz-adv-x="988" d="M124 313v537h178v-535q0 -44 12.5 -75.5t33 -52t48.5 -30.5t60 -10q28 0 55 8.5t53 24.5t48 37t38.5 45t26 50.5t9.5 53.5v484h178v-850h-176v140q-23 -30 -51.5 -56.5t-63 -47.5t-73 -33.5t-82.5 -12.5q-62 0 -116 21t-93 61.5t-62 101t-23 139.5z" />
<glyph unicode="&#xe1a;" horiz-adv-x="987" d="M124 342v508h178v-507q0 -42 12.5 -78t37 -62.5t60.5 -41t82 -14.5q50 0 86 14.5t59.5 41t35 62.5t11.5 78v507h178v-508q0 -56 -14 -104.5t-39 -87.5t-59 -68.5t-75 -50t-87.5 -31t-94.5 -10.5q-73 0 -140 23t-118.5 68t-82.5 111q-30 66 -30 150z" />
<glyph unicode="&#xe1b;" horiz-adv-x="987" d="M124 342v508h178v-507q0 -42 12.5 -78t37 -62.5t60.5 -41t82 -14.5q50 0 86 14.5t59.5 41t35 62.5t11.5 78v871h178v-872q0 -56 -14 -104.5t-39 -87.5t-59 -68.5t-75 -50t-87.5 -31t-94.5 -10.5q-73 0 -140 23t-118.5 68t-82.5 111q-30 66 -30 150z" />
<glyph unicode="&#xe1c;" horiz-adv-x="998" d="M68 648q0 38 11 75t39 66t74 47t116 19q10 0 25 -1.5t32 -4.5t36 -8t37 -13l-34 -139q-31 10 -54.5 13.5t-37.5 3.5q-35 0 -50.5 -19t-15.5 -54q0 -10 1 -23.5t3 -27.5l54 -324l202 398l202 -383l66 577h180l-115 -850h-147l-184 367l-180 -367h-146l-106 572q-2 8 -3 17 t-2 19.5l-2 21t-1 18.5z" />
<glyph unicode="&#xe1d;" horiz-adv-x="974" d="M68 648q0 38 11 75t39 66t74 47t116 19q10 0 25 -1.5t32 -4.5t36 -8t37 -13l-34 -139q-31 10 -54.5 13.5t-37.5 3.5q-35 0 -50.5 -19t-15.5 -54q0 -10 1 -23.5t3 -27.5l54 -324l202 398l202 -383l75 941h179l-123 -1214h-147l-184 367l-180 -367h-146l-106 572 q-2 8 -3 17t-2 19.5l-2 21t-1 18.5z" />
<glyph unicode="&#xe1e;" horiz-adv-x="1094" d="M52 850h180l86 -514l168 514h122l169 -514l86 514h180l-151 -850h-154l-190 565l-191 -565h-155z" />
<glyph unicode="&#xe1f;" horiz-adv-x="1082" d="M52 850h180l86 -514l168 514h122l169 -514l115 876h180l-180 -1212h-154l-190 565l-191 -565h-155z" />
<glyph unicode="&#xe20;" horiz-adv-x="976" d="M54 628q36 52 79 94t95.5 73t114 48t135.5 17q78 0 146.5 -22.5t119 -66.5t79.5 -108.5t29 -149.5v-513h-178v512q0 42 -12 77t-37 60.5t-62 39.5t-85 14q-21 0 -46.5 -4t-52.5 -13.5t-53 -23.5q-25 -14 -46 -36q31 -46 47.5 -90t24.5 -79t9 -60t1 -34q0 -44 -8 -93.5 t-29 -100.5t-56.5 -100t-90.5 -91l-118 122q36 32 60 64.5t38.5 65t20 65.5t5.5 65q0 30 -6 63t-21 68t-40 69q-25 36 -63 68z" />
<glyph unicode="&#xe21;" horiz-adv-x="988" d="M124 0v850h178v-484q0 -26 10 -53t26 -51t38 -45t48 -37t54 -24q26 -9 54 -9q32 0 60 10t49 30.5t33 52.5t12 75v535h178v-537q0 -79 -22.5 -139.5t-62 -101t-93 -61.5t-115.5 -21q-44 0 -82.5 12.5t-73 33.5t-63.5 48q-28 26 -52 56v-140h-176z" />
<glyph unicode="&#xe22;" horiz-adv-x="973" d="M88 317q0 39 11 71t28.5 58t40 45t44.5 31q-26 16 -47 35t-35.5 44t-22.5 55q-8 32 -8 72q0 16 3 34t8 35t11.5 31t12.5 22h183q-12 -17 -19.5 -34.5t-12.5 -33.5t-6.5 -30t-1.5 -24q0 -36 10.5 -62t33 -42.5t56 -24t79.5 -7.5h40v-149h-39q-46 0 -81.5 -6.5t-59.5 -21.5 t-37 -39t-13 -59q0 -30 12.5 -60t37 -54.5t61.5 -40t86 -15.5q44 0 82.5 11.5t66.5 34.5t44 59t16 84v514h178v-514q0 -58 -15 -106.5t-41.5 -87t-63 -67t-79.5 -47.5t-91 -28q-46 -10 -96 -10q-49 0 -95.5 11t-88.5 31t-77 49t-60.5 65t-40 79t-14.5 92z" />
<glyph unicode="&#xe23;" horiz-adv-x="793" d="M54 132l100 128q34 -32 66.5 -53t62.5 -34.5t57.5 -19.5t53.5 -6t48 6.5t39 18t27 29t10 39.5t-8 37.5t-26 28.5t-48.5 24.5t-75.5 25.5q-55 17 -103.5 40.5t-84.5 54.5t-57 72t-21 95q0 57 23.5 101.5t64 75.5t94 48t114.5 17q86 0 164 -32t144 -88l-92 -130 q-58 46 -115 69.5t-101 23.5q-54 0 -84 -19.5t-30 -55.5q0 -20 9 -37t28.5 -31t50 -27t72.5 -25q64 -18 113 -41.5t82.5 -54.5t51 -71.5t17.5 -92.5q0 -61 -25.5 -108.5t-68 -81t-98 -51t-116.5 -17.5q-38 0 -79 7t-84 23.5t-87 43.5q-44 28 -88 68z" />
<glyph unicode="&#xe24;" horiz-adv-x="961" d="M68 634q14 20 33 44.5t45 49.5t58.5 48.5t73.5 42t90.5 29.5t108.5 11q46 0 90.5 -9.5t84.5 -27.5t74 -46t59 -66t39 -86t14 -107v-767h-178v766q-2 50 -18.5 86t-42.5 58t-58 32t-64 10q-36 0 -65.5 -4t-53.5 -13t-45 -21q-21 -14 -41 -30l111 -120q-24 -22 -46 -48 t-38.5 -57t-26.5 -66t-10 -75q0 -20 4.5 -42t13.5 -40t22.5 -30t33.5 -12h9t13 2t18 6q10 2 22 10l74 -122q-14 -11 -34 -19.5t-42 -14.5t-44 -9.5t-42 -3.5q-38 0 -69 11.5t-56 31.5t-43 47t-30 57.5t-18 63t-6 62.5q0 40 6.5 75t18 66t27.5 59t36 54z" />
<glyph unicode="&#xe25;" horiz-adv-x="933" d="M52 267q0 70 29 124.5t78.5 91.5t115 56t137.5 19q26 0 55.5 -2t58.5 -6t56 -8q28 -4 50 -10v6q0 48 -18 80t-48 51t-70 26.5t-84 7.5q-30 0 -63 -6t-66 -17.5t-66 -26.5t-63 -34l-70 147q37 22 80.5 39t88.5 29t89 19t83 7q80 0 150.5 -18t122.5 -56.5t82 -99t30 -147.5 v-539h-178v388q-18 5 -42.5 9.5t-52 8t-56.5 6t-56 2.5q-41 0 -77 -10t-62 -28.5t-41 -45t-15 -59.5q0 -31 11 -54t30 -39t45 -23.5t54 -7.5q8 0 20 1.5t27 5.5t31 9t32 11l61 -137q-24 -12 -49.5 -20.5t-50.5 -14.5t-49 -9t-46 -3q-56 0 -109.5 17.5t-94.5 52.5t-65.5 86.5 t-24.5 120.5z" />
<glyph unicode="&#xe26;" horiz-adv-x="976" d="M54 628q36 52 79 94t95.5 73t114 48t135.5 17q78 0 146.5 -22.5t119 -66.5t79.5 -108.5t29 -149.5v-764h-178v763q0 42 -12 77t-37 60.5t-62 39.5t-85 14q-21 0 -46.5 -4t-52.5 -13.5t-53 -23.5q-25 -14 -46 -36q31 -46 47.5 -90t24.5 -79t9 -60t1 -34q0 -44 -8 -93.5 t-29 -100.5t-56.5 -100t-90.5 -91l-118 122q36 32 60 64.5t38.5 65t20 65.5t5.5 65q0 30 -6 63t-21 68t-40 69q-25 36 -63 68z" />
<glyph unicode="&#xe27;" horiz-adv-x="841" d="M23 694q60 80 147 123q88 43 198 43q60 0 114 -14.5t100.5 -41t84 -64.5t63.5 -86.5t40 -106t14 -121.5q0 -70 -15.5 -130t-43 -108.5t-66 -85.5t-84.5 -61.5t-98.5 -37.5t-106.5 -13q-96 0 -181 38t-158 122l107 115q32 -34 61.5 -56.5t58 -36.5t56.5 -19.5t57 -5.5 q44 0 86.5 16.5t75.5 51.5t53 88t20 125q0 66 -19.5 117.5t-52 86.5t-74.5 53q-44 18 -90 18q-31 0 -60.5 -6.5t-58.5 -20.5t-56 -37t-53 -58z" />
<glyph unicode="&#xe28;" horiz-adv-x="1002" d="M124 0v508q0 56 14 104t40 87t61 69t77 50.5t89 31t95 10.5q39 0 76 -7q38 -7 72 -19l74 92h220l-152 -188q39 -44 61 -101t22 -129v-508h-178v506q0 42 -11.5 78t-36 62t-61 41t-86.5 15q-48 0 -84.5 -15t-62 -41t-38.5 -62t-13 -78v-3h227v-153h-227v-350h-178z" />
<glyph unicode="&#xe29;" horiz-adv-x="996" d="M124 342v508h178v-507q0 -42 13 -78t38 -62.5t62 -41t84 -14.5q50 0 86.5 14.5t61 41t36 62.5t11.5 78v72h-229v153h229v282h178v-282h94v-153h-94v-73q0 -56 -14 -104.5t-39 -87.5t-60 -68.5t-76 -50t-88 -31t-95 -10.5t-95 10.5t-89 31t-77 50t-61 68.5t-40 87 q-14 49 -14 105z" />
<glyph unicode="&#xe2a;" horiz-adv-x="933" d="M52 267q0 70 29 124.5t78.5 91.5t115 56t137.5 19q26 0 55.5 -2t58.5 -6t56 -8q28 -4 50 -10v6q0 48 -18 80t-48 51t-70 26.5t-84 7.5q-30 0 -63 -6t-66 -17.5t-66 -26.5t-63 -34l-70 147q37 22 80.5 39t88.5 29t89 19t83 7q89 0 163 -22l70 88h220l-142 -174 q34 -38 54 -91t20 -122v-539h-178v388q-18 5 -42.5 9.5t-52 8t-56.5 6t-56 2.5q-41 0 -77 -10t-62 -28.5t-41 -45t-15 -59.5q0 -31 11 -54t30 -39t45 -23.5t54 -7.5q8 0 20 1.5t27 5.5t31 9t32 11l61 -137q-24 -12 -49.5 -20.5t-50.5 -14.5t-49 -9t-46 -3q-56 0 -109.5 17.5 t-94.5 52.5t-65.5 86.5t-24.5 120.5z" />
<glyph unicode="&#xe2b;" horiz-adv-x="988" d="M124 0v850h178v-344l350 344h242l-188 -182q38 -19 67.5 -46.5t49.5 -62.5t30.5 -76t10.5 -87v-396h-178v394q0 24 -7 48t-20 44t-32 37t-43 27l-282 -274v-276h-178z" />
<glyph unicode="&#xe2c;" horiz-adv-x="1034" d="M52 850h179l69 -572l199 388l201 -404l50 280q1 7 1.5 13.5t0.5 12.5q0 31 -11 57.5t-32 45.5t-52 30t-69 11v138h398v-140h-117q12 -10 22.5 -25t19 -33t13 -38t4.5 -42q0 -20 -4 -41l-100 -531h-152l-174 366l-179 -366h-153z" />
<glyph unicode="&#xe2d;" horiz-adv-x="920" d="M55 405q0 8 0.5 33.5t4.5 56.5h431v-151h-253q6 -44 24 -80.5t45 -63t63 -41.5t80 -15q55 0 99.5 23t76.5 60.5t49 87.5t17 106q0 74 -21 127.5t-56.5 88.5t-83 52t-100.5 17q-33 0 -67 -9.5t-66 -27t-61 -43.5t-49 -60l-120 108q33 48 76.5 83t91.5 57.5t100 33.5 q52 12 100 12q92 0 171.5 -30t138 -86t92 -137.5t33.5 -185.5q0 -68 -16 -126.5t-44.5 -106.5t-68 -85t-86 -62t-99.5 -38t-107 -13q-88 0 -161 30t-125 84t-80.5 131t-28.5 170z" />
<glyph unicode="&#xe2e;" horiz-adv-x="920" d="M55 405q0 8 0.5 33.5t4.5 56.5h431v-151h-253q6 -44 24 -80.5t45 -63t63 -41.5t80 -15q55 0 99.5 23t76.5 60.5t49 88t17 105.5q0 74 -21 127.5t-56.5 88.5t-83 52t-100.5 17q-33 0 -67 -9.5t-66 -27t-61 -43.5t-49 -60l-120 108q33 48 76.5 83t91.5 57.5t100 33.5 q52 12 100 12q46 0 88 -8t82 -22l76 96h220l-152 -186q57 -56 89 -136t32 -183q0 -68 -16 -126.5t-44.5 -106.5t-68 -85t-86 -62t-99.5 -38t-107 -13q-88 0 -161 30t-125 84t-80.5 131t-28.5 170z" />
<glyph unicode="&#xe2f;" horiz-adv-x="882" d="M60 641v209h178v-208q0 -86 34 -129t108 -43q44 0 81 17t63.5 45t41 63.5t14.5 73.5v181h178v-850h-178v438q-25 -32 -55 -55t-62.5 -37.5t-65 -21t-61.5 -6.5q-65 0 -116.5 21t-87 61.5t-54 101t-18.5 139.5z" />
<glyph unicode="&#xe30;" horiz-adv-x="535" d="M43.5 280l1 24t1.5 22q2 10 2 14h170q-4 -20 -5 -36t-1 -33q0 -14 7 -22.5t17 -8.5h244v-144h-266q-40 0 -68.5 8.5t-47.5 22t-29.5 31.5t-16.5 36t-7 36t-1 31q-1 7 -0.5 19zM43.5 720l1 24t1.5 22q2 10 2 14h170q-2 -21 -3 -38.5t-1 -35.5q0 -12 6 -19t16 -7h244v-144 h-266q-40 0 -68.5 8.5t-47.5 22t-29.5 31.5t-16.5 36t-7 36t-1 31q-1 7 -0.5 19z" />
<glyph unicode="&#xe31;" d="M-633 1130v74h163v-44q0 -54 74 -54h350v-127h-411q-41 0 -73.5 12t-55 32.5t-35 48.5t-12.5 58z" />
<glyph unicode="&#xe32;" horiz-adv-x="650" d="M-34 702q48 84 119.5 124t156.5 40q76 0 130 -24t88.5 -66.5t50 -100t15.5 -125.5v-550h-178v550q0 80 -27 120.5t-77 40.5q-21 0 -41.5 -5t-40.5 -17.5t-40.5 -34t-41.5 -54.5z" />
<glyph unicode="&#xe33;" horiz-adv-x="650" d="M-380 1109q0 30 13 55.5t35.5 45t53 30.5t64.5 11t64 -11t52.5 -30.5t35.5 -45.5t13 -55q0 -30 -13 -55.5t-35.5 -44.5t-52.5 -30t-64 -11t-64.5 11t-53 30t-35.5 44.5t-13 55.5zM-270 1107q0 -21 14 -36t39 -15q12 0 21.5 4t16.5 11t11 16t4 20q0 10 -4 19.5t-11 16 t-16.5 10.5t-21.5 4q-24 0 -38.5 -14.5t-14.5 -35.5zM-34 702q48 84 119.5 124t156.5 40q76 0 130 -24t88.5 -66.5t50 -100t15.5 -125.5v-550h-178v550q0 80 -27 120.5t-77 40.5q-21 0 -41.5 -5t-40.5 -17.5t-40.5 -34t-41.5 -54.5z" />
<glyph unicode="&#xe34;" d="M-864 979v127h740v-127h-740z" />
<glyph unicode="&#xe35;" d="M-863 979v127h561v122h178v-249h-739z" />
<glyph unicode="&#xe36;" d="M-864 979v127h510q-2 8 -3.5 16t-1.5 12q0 32 9.5 57.5t27.5 43.5t44 27q26 10 58 10t57 -11t43 -30t27.5 -46t9.5 -59t-10.5 -59t-29.5 -46.5t-44.5 -30.5t-55.5 -11h-641zM-270 1134q0 -27 12 -40q12 -14 38 -14t37.5 13t11.5 41q0 26 -11.5 40t-37.5 14t-38 -14 t-12 -40z" />
<glyph unicode="&#xe37;" d="M-863 979v127h387v132h137v-132h77v132h138v-259h-739z" />
<glyph unicode="&#xe38;" d="M-420 -133q20 12 41.5 21.5t42.5 14.5t39.5 8t33.5 3q41 0 68 -14t42.5 -34t22 -45t6.5 -47v-164h-170v156q0 7 -3 11.5t-8 7.5t-11 4t-10 1h-7.5t-11 -1t-15.5 -5t-21 -12z" />
<glyph unicode="&#xe39;" d="M-624 -118q36 19 67 25t53 6q35 0 56.5 -9.5t33.5 -23.5t16 -33t4 -37v-17q0 -21 5 -34t12.5 -20t17 -10t19.5 -3q9 0 18.5 2t17.5 9t13 21t5 36v112h162v-118q0 -43 -16 -75.5t-44.5 -55.5t-69 -35t-89.5 -12q-50 0 -88.5 12t-65.5 33t-41 51t-14 68q0 20 -5 28t-15 8 q-4 0 -14 -2t-19 -6z" />
<glyph unicode="&#xe3a;" d="M-321 -172q0 22 8.5 41t22.5 33t33 23t41 9t41 -9t33.5 -23t23.5 -34q8 -18 8 -40t-8.5 -41t-23 -33t-33.5 -23t-41 -9t-41 9t-33 23t-22.5 33t-8.5 41z" />
<glyph unicode="&#xe3d;" />
<glyph unicode="&#xe3e;" />
<glyph unicode="&#xe3f;" horiz-adv-x="1061" d="M108 0v1061h322v115h117v-115h36q36 0 71.5 -3.5t68.5 -12.5t63 -23t55 -34q48 -40 74 -94t26 -128q0 -41 -10 -73.5t-26.5 -57.5t-39.5 -45t-48 -35q36 -18 67.5 -41.5t53.5 -54.5t34 -71t12 -88q0 -76 -30 -131t-90 -96q-51 -34 -121.5 -53.5t-152.5 -19.5h-43v-146 h-117v146h-322zM292 164h138v293h-138v-293zM292 619h138v277h-138v-277zM547 164h48q46 0 84 8t64.5 24t40.5 42t14 62t-13 65.5t-41 50t-70 30.5q-42 11 -100 11h-27v-293zM547 619h29q41 0 74 9t56.5 27.5t36 46t12.5 64.5q0 66 -47 98t-131 32h-30v-277z" />
<glyph unicode="&#xe40;" horiz-adv-x="426" d="M124 0v850h178v-850h-178z" />
<glyph unicode="&#xe41;" horiz-adv-x="752" d="M124 0v850h178v-850h-178zM450 0v850h178v-850h-178z" />
<glyph unicode="&#xe42;" horiz-adv-x="420" d="M-36 1077q26 42 59 69.5t68 45t72 25t73 7.5q28 0 57 -5.5t59 -15.5t58 -25q28 -16 54 -34l-72 -112q-24 16 -45 26t-39.5 15.5t-34.5 8.5q-15 2 -29 2q-22 0 -38 -4t-22 -7q27 -24 49.5 -53.5t38.5 -60.5t24 -62.5t8 -58.5v-838h-178v837q0 36 -11 68.5t-32.5 61.5 t-51.5 57t-67 53z" />
<glyph unicode="&#xe43;" horiz-adv-x="423" d="M9 1156q17 14 40.5 26t50 21.5t54 15t52.5 5.5q49 0 88 -13t66.5 -36.5t42 -58t14.5 -78.5q0 -34 -11.5 -66t-28.5 -59t-37 -50t-38 -39v-824h-178v855q22 14 46 34t45 43.5t35 48.5t14 49q0 10 -3.5 21t-11.5 19t-20.5 13.5t-30.5 5.5q-14 0 -31 -4.5t-34 -12.5t-33 -18 t-28 -21z" />
<glyph unicode="&#xe44;" horiz-adv-x="423" d="M-20 1111l46 115q23 -12 48.5 -21t48.5 -14t41 -7t29 -2q10 0 25.5 1t36 5t46 12t57.5 22l103 -104q-30 -26 -58.5 -63t-51 -79.5t-36.5 -88t-14 -89.5l1 -798h-178l-2 798q0 30 10.5 64.5t29 69.5t44.5 68q28 34 60 63q-6 -2 -15 -3.5t-19 -3t-21.5 -2t-22.5 -0.5 q-28 0 -56 4t-54.5 11.5t-51 18t-46.5 23.5z" />
<glyph unicode="&#xe45;" horiz-adv-x="650" d="M-34 702q48 84 119.5 124t156.5 40q76 0 130 -24t88.5 -66.5t50 -100t15.5 -125.5v-800h-178v800q0 80 -27 120.5t-77 40.5q-21 0 -41.5 -5t-40.5 -17.5t-40.5 -34t-41.5 -54.5z" />
<glyph unicode="&#xe46;" horiz-adv-x="894" d="M67 557q0 62 18.5 116t51 94.5t77.5 64.5q44 24 98 24q36 0 65.5 -11t52.5 -28.5t41.5 -40t32.5 -46.5l141 120h125v-1082h-178v866l-108 -91l-24 49q-8 17 -18.5 37t-26 37.5t-35.5 28.5t-44 11q-20 0 -36 -12t-28 -33t-19 -47.5t-7 -55.5q0 -36 7 -63t20 -45t29 -27 q18 -9 36 -9q16 0 36 7.5t42 27.5l70 -95q-23 -28 -47 -44.5t-45.5 -25t-39.5 -10.5t-28 -2q-32 0 -63.5 9t-60 26t-53.5 41t-43 56t-28.5 70.5t-10.5 82.5z" />
<glyph unicode="&#xe47;" d="M-715 1124q0 33 16.5 63t50 52t84 35t117.5 13q14 0 32.5 -1.5t36 -4t34 -5t27.5 -6.5l33 52h137l-101 -165q-21 8 -45.5 14.5t-50.5 11.5t-53 8t-51 3t-48.5 -3.5t-44 -12t-32.5 -21.5t-13 -33t12 -35t30 -19l117 54q14 -17 26.5 -27.5t23.5 -15.5t20 -7t17 -2 q12 0 21 7t9 15q0 4 -1 11t-5 17h118q3 -10 4.5 -20t1.5 -16q0 -22 -9.5 -43t-27 -37t-41.5 -25t-52 -9q-26 0 -57 14q-31 12 -61 36l-100 -49q-38 4 -70 15.5t-55 30.5t-37 45q-13 26 -13 60z" />
<glyph unicode="&#xe48;" d="M-302 1295v215h178v-215h-178z" />
<glyph unicode="&#xe49;" d="M-508 1514q19 11 37.5 17.5t34 10.5t26 6t14.5 2q24 0 42.5 -8t30 -21t17.5 -29t6 -34q0 -12 -3 -27t-11 -30q64 12 105 46.5t53 85.5h126q-8 -36 -26 -69.5t-45 -61.5t-63 -49t-79 -34q-50 -14 -90.5 -19.5t-68.5 -7.5l-20 -2l-27 73q13 8 23 17q8 8 15 18t7 22 q0 14 -8.5 21.5t-21.5 7.5t-22.5 -2.5t-23.5 -10.5z" />
<glyph unicode="&#xe4a;" d="M-462 1418q0 24 8 45t21 36.5t30 24t37 8.5q29 0 52.5 -10.5t43.5 -27.5q27 20 50 29q24 9 46 9q24 0 40 -9t25.5 -22t12.5 -29q4 -15 2 -28q-1 -9 -2.5 -14.5t-2.5 -12.5q14 12 24.5 25.5t16.5 27.5t9 27t5 25h94q-5 -46 -27 -88t-54.5 -74t-70.5 -51t-74 -20 q-5 0 -9.5 -0.5t-12.5 0.5l-20 59q18 10 29 23t11 39q0 8 -2.5 13.5t-6 9t-7.5 4.5q-2 1 -4 1q-16 0 -28 -8t-23 -15q-4 -3 -9.5 -7t-11.5 -4q-7 0 -13.5 4.5t-10.5 7.5q-10 7 -21 14.5t-25 7.5q-10 0 -18 -8q-7 -6 -6 -20q0 -23 22 -33q6 -3 14 -4t18 -1l-22 -80 q-4 -1 -13 -2t-17 -1q-24 0 -42 12t-31 30.5t-20 41.5t-7 45z" />
<glyph unicode="&#xe4b;" d="M-415 1379v102h120v85h125v-85h120v-102h-120v-84h-125v84h-120z" />
<glyph unicode="&#xe4c;" d="M-444 1298q0 41 14 67.5t36 40.5t48 19.5t50 5.5h244v-112h-207q-9 0 -15.5 -3.5t-11 -8.5t-6.5 -11t-2 -13q0 -10 5 -18.5t11 -18.5l12 -18l-123 -56q-18 20 -29.5 39t-17 36.5t-7 31t-1.5 19.5z" />
<glyph unicode="&#xe4d;" d="M-380 1109q0 30 13 55.5t35.5 45t53 30.5t64.5 11t64 -11t52.5 -30.5t35.5 -45.5t13 -55q0 -30 -13 -55.5t-35.5 -44.5t-52.5 -30t-64 -11t-64.5 11t-53 30t-35.5 44.5t-13 55.5zM-270 1107q0 -21 14 -36t39 -15q12 0 21.5 4t16.5 11t11 16t4 20q0 10 -4 19.5t-11 16 t-16.5 10.5t-21.5 4q-24 0 -38.5 -14.5t-14.5 -35.5z" />
<glyph unicode="&#xe4e;" d="M-452 1004v62q0 12 2 28t7 32t14 32t25 28.5t38 21t54 10.5q2 18 10 35.5t25 32t44 23.5t67 9h131v-114h-128q-4 0 -9.5 -2t-10 -6t-7.5 -10t-3 -16v-66h-87q-20 0 -31 -10.5t-11 -34.5v-55h-130z" />
<glyph unicode="&#xe4f;" horiz-adv-x="1104" d="M113 424q0 60 15.5 117t44.5 105.5t69 88.5t88.5 68.5t105 44.5t116.5 16t116.5 -16t105 -44.5t88.5 -68.5t69 -88.5t45 -104.5q15 -58 15 -118t-15.5 -116t-44.5 -105t-69 -89t-88.5 -68.5t-105 -44t-116.5 -15.5t-116.5 15.5t-105 44t-88.5 68.5t-69 89t-44.5 105 t-15.5 116zM246 424q0 -64 24 -120t66 -97.5t98 -66t119 -24.5q64 0 119.5 24.5t97.5 66t66 97.5t24 120t-24 120t-66 97.5t-98 66t-119 24.5q-64 0 -119.5 -24.5t-97.5 -66t-66 -97.5t-24 -120zM326 424q0 47 17.5 88.5t48 72.5t72 48.5t88.5 17.5t88.5 -17.5t72 -48.5 t48 -72t17.5 -89q0 -47 -17.5 -88t-48 -71.5t-72 -48.5t-88.5 -18t-88.5 18t-72 48.5t-48 71.5t-17.5 88zM442 424q0 -22 8.5 -42t23.5 -35t35.5 -24t42.5 -9t42.5 9t35.5 24t23.5 35t8.5 42t-8.5 43t-23.5 36t-35.5 23.5t-42.5 8.5t-42.5 -8.5t-35.5 -23.5t-23.5 -36 t-8.5 -43z" />
<glyph unicode="&#xe50;" horiz-adv-x="1058" d="M69 379q0 82 29 153.5t84.5 125t137.5 84.5t189 31q106 0 188.5 -31t138 -84.5t84.5 -125t29 -153.5t-29 -154.5t-84.5 -125.5t-137.5 -84t-189 -31q-106 0 -188.5 31t-138 84t-84.5 125t-29 155zM248 378q0 -46 16 -89t48 -76t81 -52.5t115 -19.5t115 19.5t81 52.5 t48 76t16 89t-16 89t-48 76t-81 53t-115 20t-115 -20t-81 -53t-48 -76t-16 -89z" />
<glyph unicode="&#xe51;" horiz-adv-x="1057" d="M40 152l142 96q37 -37 76 -59t77.5 -33.5t75.5 -15t69 -3.5q34 0 69 8.5t67 24.5t60.5 38.5t49 50t32.5 58.5t12 66q0 54 -18 97.5t-51 74.5t-78 47t-99 16q-46 0 -86 -12t-68 -32t-44 -46t-16 -57q0 -28 12 -46.5t30 -30.5t38 -17t36 -5q8 0 19.5 2t24 5.5t25.5 9 t25 13.5l60 -126q-32 -25 -75 -39.5t-90 -14.5q-24 0 -55 5t-63 17t-62.5 31t-54.5 46.5t-38 64t-14 83.5q0 42 14 80.5t39 72t61 61.5t80 48t95.5 31t107.5 11q91 0 169 -27.5t135 -78t89 -122.5q33 -71 33 -161q0 -54 -17.5 -105.5t-49 -96t-75 -81.5t-96.5 -63t-112 -40 t-123 -14q-66 0 -128 10t-118 31.5t-105 53t-87 73.5z" />
<glyph unicode="&#xe52;" horiz-adv-x="1056" d="M54 354v524h180v-532q0 -30 11 -56t30.5 -48t46 -40t57.5 -30t65 -18.5t68 -6.5t68 6.5t65 18.5t58 30t46.5 40t30.5 48q12 26 12 56v226l-162 -106l-7 17.5t-12 28t-17 32t-23 31t-29 23.5t-35 9q-22 0 -38 -7t-25.5 -19t-14 -27.5t-4.5 -32.5q0 -24 8.5 -49t22.5 -46 h-158q-8 12 -14 26t-10 29t-6 30t-2 27q0 50 16 91t46 70t75 45t102 16q22 0 45.5 -4.5t46.5 -15t44 -27.5t37 -42l135 89h159v-406q0 -57 -18 -106.5t-50 -89.5t-76 -72t-95 -53t-107 -32.5t-114 -11.5q-56 0 -112 11.5t-107 32.5t-95 53t-76 72t-50 89.5t-18 106.5z" />
<glyph unicode="&#xe53;" horiz-adv-x="1056" d="M50 378q0 58 11 109t32 94t50 77t64 58t75 36.5t84 12.5t88 -17t76 -52q32 34 74 52q40 17 82 17q69 0 127.5 -28.5t101.5 -79.5t67 -121.5t24 -156.5q0 -49 -7 -93t-18 -82t-24.5 -71t-27 -59t-25.5 -44q-12 -20 -20 -30h-205q24 30 49.5 70.5t47.5 88.5t36 103.5 t14 115.5q0 48 -10 91t-27 74t-41 49t-54 18q-16 0 -30 -9t-24.5 -24.5t-16.5 -36t-6 -44.5l-1 -132h-171v132q0 24 -6.5 44.5t-16.5 36t-24 24.5t-30 9q-28 0 -53 -15t-44 -45t-30 -73t-11 -99q0 -51 12 -93.5t32 -73.5t46 -48t54 -17q14 0 36 12t50 42l100 -117 q-25 -24 -47.5 -41t-45.5 -28t-46 -16.5t-49 -5.5q-70 0 -129 29t-102 81t-67 122t-24 154z" />
<glyph unicode="&#xe54;" horiz-adv-x="1057" d="M69 389q0 82 31.5 151t93 119.5t151.5 79t207 28.5q28 0 61 -3.5t66 -9.5t65 -15t59 -19l51 152h189l-133 -388q-76 59 -166 92q-92 34 -194 34q-66 0 -120.5 -17t-94 -47t-61 -70t-21.5 -86q0 -50 17.5 -94t52 -78t87 -55t122.5 -25q-14 11 -28.5 24.5t-26 29.5 t-17.5 35q-8 19 -8 42q0 34 9 62.5t24 50.5t35.5 40t43 30t44.5 20t43 12l109 -132q-42 -4 -68 -14.5t-41 -23t-21 -26.5q-5 -16 -5 -28q0 -19 6.5 -35.5t17.5 -29.5t25 -24t30 -17q35 8 78 28q42 21 100 55l96 -114q-32 -28 -80 -52.5t-104 -43t-116 -29t-118 -10.5 q-74 0 -139 13.5t-119.5 39t-98 61t-73 80t-45.5 96.5t-16 111z" />
<glyph unicode="&#xe55;" horiz-adv-x="1057" d="M64 389q0 68 25 128.5t68.5 109t103 84.5t129.5 55q-2 8 -3 16.5t-1 17.5q0 32 13 60t35.5 49t53 33.5t64.5 12.5t65 -12.5t53.5 -33.5t36 -49t13.5 -60q0 -8 -1 -16t-3 -15q32 -8 67 -19.5t70.5 -29t69 -41t61.5 -54.5l-101 -115q-67 58 -149.5 89t-183.5 31 q-64 0 -119.5 -18t-96 -50t-63.5 -76t-23 -96t23 -96.5t63 -78t94 -55t114 -26.5q-19 12 -34.5 26t-27.5 31.5t-18.5 38t-6.5 46.5q0 34 8.5 62t23 50t33.5 39t40.5 29t43.5 19.5t42 11.5l108 -133q-42 -4 -68 -14t-40.5 -23t-20 -27t-5.5 -26q0 -16 7.5 -31t21 -28 t31.5 -25t40 -23q38 12 79 31.5t95 49.5l91 -112q-40 -32 -90.5 -57.5t-106.5 -43.5t-116 -27q-60 -10 -118 -10q-110 0 -200.5 30t-155 83t-99.5 126.5t-35 161.5zM506 788.5q0 -4.5 2 -8.5l44 -26l4 3q8 8 17 15q9 6 21 10q0 4 1 8t1 8q0 18 -4 29t-11 18t-14.5 9t-15.5 2 q-7 0 -15 -2t-14.5 -9t-11 -18t-4.5 -29v-9.5z" />
<glyph unicode="&#xe56;" horiz-adv-x="1056" d="M31 872h189l52 -160q49 25 110.5 40t129.5 15q104 0 184.5 -29.5t135 -82t83 -125.5t28.5 -160q0 -84 -31 -154t-87.5 -121t-135.5 -79t-176 -28q-156 0 -260.5 68t-150.5 200l168 70q18 -50 45 -85.5t59 -57t67 -31.5t71 -10q54 0 100 18t78.5 49t50.5 73q18 40 18 88 q0 57 -18.5 101.5t-51.5 75t-78 46.5t-99 16q-37 0 -76.5 -5.5t-83 -20.5t-89.5 -43q-45 -27 -95 -71z" />
<glyph unicode="&#xe57;" horiz-adv-x="1057" d="M28 364q0 89 20 163.5t58.5 128.5t94 84t127.5 30q50 0 91 -19t69 -50q14 15 32 28t39 22t44 14t47 5q38 0 72 -10t61 -27.5t46 -42t29 -52.5l78 234h188l-294 -872h-190l108 314q4 12 8 27t7 30.5t5 30.5q2 14 2 26q0 32 -7 65t-21 60.5t-36.5 45t-53.5 17.5 q-16 0 -30 -9.5t-24 -26t-16.5 -38.5t-6.5 -46v-132h-171v132q0 24 -6 46t-17 38.5t-25 25.5q-12 10 -28 10q-29 0 -51.5 -21t-37.5 -56t-23 -80.5t-8 -95.5q0 -48 9 -88t26 -68.5t40 -44.5t51 -16q16 0 40 15t52 43l91 -122q-25 -26 -47.5 -43t-45 -27t-45.5 -15t-49 -5 q-70 0 -126 26t-95 74t-60 117t-21 155z" />
<glyph unicode="&#xe58;" horiz-adv-x="1058" d="M69 380q0 81 32.5 152.5t93.5 124t147 83t193 30.5q73 0 134 -12t107 -29l50 144h188l-135 -367q-34 23 -73 42.5t-82.5 33.5t-91.5 22t-98 8q-65 0 -117 -16t-88.5 -47t-56.5 -73q-19 -44 -19 -96q0 -38 5.5 -68t16 -55t27 -46t40.5 -41l202 124l204 -120q16 16 24 36 t8 49q0 14 -7 28.5t-21 26.5t-34 21t-44 13l52 140q64 -14 107 -38t70 -56t38 -68t11 -73q0 -44 -13 -85t-37 -76.5t-58 -63.5t-76 -44l-223 144l-223 -144q-57 20 -103.5 57t-79.5 89t-51.5 115t-18.5 135z" />
<glyph unicode="&#xe59;" horiz-adv-x="1058" d="M77 395q0 50 10.5 97t31 88.5t49.5 76.5t65.5 60.5t79.5 39.5t93 14t94 -13t80 -46q11 15 25.5 25t30.5 16.5t33 9t32 2.5q28 0 61 -10q32 -11 60 -31l63 154h171l-140 -358q-22 16 -48.5 34t-53.5 32t-53.5 23.5t-47.5 9.5t-30 -9q-9 -8 -11 -20t8 -34l286 -556h-195 l-269 517q-6 12 -15 28.5t-21 31.5t-27 25.5t-33 10.5q-25 0 -50.5 -15.5t-46.5 -43.5t-34 -68t-13 -91q0 -72 15 -120.5t40 -78.5t54.5 -43t57.5 -13q8 0 21.5 3.5t29.5 11t33 20.5t33 32l85 -125q-20 -24 -46 -42t-52.5 -29t-52 -17t-43.5 -6q-44 0 -87.5 11t-83.5 33 t-74.5 55t-60 78t-40 102.5t-14.5 127.5z" />
<glyph unicode="&#xe5a;" horiz-adv-x="1172" d="M60 641v209h178v-208q0 -86 34 -129t108 -43q44 0 81 17t63.5 45t41 63.5t14.5 73.5v181h178v-850h-178v438q-25 -32 -55 -55t-62.5 -37.5t-65 -21t-61.5 -6.5q-65 0 -116.5 21t-87 61.5t-54 101t-18.5 139.5zM870 0v850h178v-850h-178z" />
<glyph unicode="&#xe5b;" horiz-adv-x="1547" d="M78 428q0 92 28 170t79 134t122 88t156 32q46 0 85.5 -11t71.5 -31t56.5 -47t41 -58.5t25.5 -66.5t9 -70q0 -56 -17.5 -101t-47 -78t-68.5 -51t-83 -18q-23 0 -51.5 9t-56.5 29l44 127q13 -10 27.5 -15.5t28.5 -5.5t25 8.5t17.5 21.5t10 29.5t3.5 32.5q0 36 -10.5 64 t-28 47t-40.5 29t-49 10q-39 1 -75 -17.5t-63.5 -54.5t-44.5 -89t-17 -121q0 -64 20 -116t53.5 -88t78 -55t94.5 -19q46 0 88 15.5t77 43t63.5 66.5t48 86t30.5 101t11 110l137 79q10 -15 23.5 -37t26.5 -46.5t24.5 -49t20.5 -46.5q4 11 10 29t11.5 36.5t10 35.5t7.5 27 l83 -5q2 -6 9 -22t15 -35.5t15 -39t11 -31.5q4 9 9.5 22t12 25t11.5 22t8 13q8 10 21.5 16t27.5 6h144v-146h-134q-8 0 -15 -10.5t-13 -26.5t-10 -37t-8 -41l-100 -40q-2 21 -8 42.5t-12 41.5t-12.5 37t-10.5 29q-2 -12 -6.5 -30.5t-8.5 -38t-9 -36.5t-9 -27l-90 -24 q-7 20 -16.5 45t-19 47.5t-17 40t-10.5 23.5q-18 -94 -57.5 -172t-97.5 -133t-132 -85t-160 -30q-61 0 -116.5 15t-102.5 42t-85 65.5t-65 87t-41 104.5t-14 118z" />
<glyph unicode="&#x2000;" horiz-adv-x="783" />
<glyph unicode="&#x2001;" horiz-adv-x="1566" />
<glyph unicode="&#x2002;" horiz-adv-x="783" />
<glyph unicode="&#x2003;" horiz-adv-x="1566" />
<glyph unicode="&#x2004;" horiz-adv-x="522" />
<glyph unicode="&#x2005;" horiz-adv-x="391" />
<glyph unicode="&#x2006;" horiz-adv-x="261" />
<glyph unicode="&#x2007;" horiz-adv-x="261" />
<glyph unicode="&#x2008;" horiz-adv-x="195" />
<glyph unicode="&#x2009;" horiz-adv-x="313" />
<glyph unicode="&#x200a;" horiz-adv-x="87" />
<glyph unicode="&#x200b;" />
<glyph unicode="&#x2010;" horiz-adv-x="631" d="M94 443v143h442v-143h-442z" />
<glyph unicode="&#x2011;" horiz-adv-x="631" d="M94 443v143h442v-143h-442z" />
<glyph unicode="&#x2012;" horiz-adv-x="631" d="M94 443v143h442v-143h-442z" />
<glyph unicode="&#x2013;" horiz-adv-x="859" d="M83 444v140h693v-140h-693z" />
<glyph unicode="&#x2014;" horiz-adv-x="1355" d="M92 444v140h1172v-140h-1172z" />
<glyph unicode="&#x2018;" horiz-adv-x="386" d="M81 706v146q0 50 14.5 92.5t41.5 76t65.5 57t87.5 36.5l40 -76q-27 -10 -48.5 -25t-35.5 -32t-23 -35t-11 -35h92v-205h-223z" />
<glyph unicode="&#x2019;" horiz-adv-x="386" d="M57 758q27 10 48 24.5t35.5 31.5t23 35t10.5 35h-92v205h224v-147q0 -50 -14.5 -92t-41.5 -75.5t-65.5 -57t-88.5 -36.5z" />
<glyph unicode="&#x201c;" horiz-adv-x="686" d="M81 706v146q0 50 14.5 92.5t41.5 76t65.5 57t87.5 36.5l40 -76q-27 -10 -48.5 -25t-35.5 -32t-23 -35t-11 -35h92v-205h-223zM381 706v146q0 50 14.5 92.5t41.5 76t65.5 57t87.5 36.5l40 -76q-27 -10 -48.5 -25t-35.5 -32t-23 -35t-11 -35h92v-205h-223z" />
<glyph unicode="&#x201d;" horiz-adv-x="686" d="M57 782q27 10 48 25t35.5 32t23 35t10.5 35h-92v205h224v-146q0 -50 -14.5 -92.5t-41.5 -76t-65.5 -57.5t-88.5 -36zM357 782q27 10 48 25t35.5 32t23 35t10.5 35h-92v205h224v-146q0 -50 -14.5 -92.5t-41.5 -76t-65.5 -57.5t-88.5 -36z" />
<glyph unicode="&#x2022;" horiz-adv-x="693" d="M143 518q0 42 16.5 77.5t44.5 61.5t65 40.5t79 14.5q40 0 77 -14.5t65 -40.5t44 -61.5t16 -78.5q0 -42 -16 -77.5t-43 -61.5t-64 -40.5t-79 -14.5q-43 0 -80.5 14.5t-65 40.5t-43.5 62t-16 78z" />
<glyph unicode="&#x202f;" horiz-adv-x="313" />
<glyph unicode="&#x205f;" horiz-adv-x="391" />
<glyph unicode="&#x20ac;" horiz-adv-x="1235" d="M66 358v138h126q0 8 -0.5 16t-0.5 16t1 18v18h-126v138h151q26 82 74.5 151.5t116.5 120t152 78.5t180 28q65 0 123.5 -11t111.5 -34t101 -59q48 -34 92 -84l-118 -124q-66 73 -142 106.5t-168 33.5q-55 0 -104.5 -14.5t-91 -41.5t-74 -65.5t-54.5 -84.5h462v-138h-496 q-2 -18 -2 -36v-16t2 -16h496v-138h-464q20 -48 52.5 -87.5t73.5 -68t90 -43.5q50 -15 104 -15q43 0 83.5 7t80.5 24t79 46t78 73l121 -112q-48 -55 -98 -93t-105 -61.5t-115 -34.5t-127 -11q-95 0 -178 27.5t-150 77t-115 118.5t-73 153h-149z" />
<glyph unicode="&#x2122;" horiz-adv-x="990" d="M52 966v95h386v-95h-140v-338h-105v338h-141zM474 628v433h96l119 -175l127 175h96v-433h-104v254l-104 -142h-32l-96 138v-250h-102z" />
<glyph unicode="&#x25cc;" horiz-adv-x="993" d="M241 426l67 32q-2 -16 -2 -36q0 -14 2 -30zM313 243l25 70q19 -27 45 -47zM322 606l68 -24q-28 -18 -48 -45zM461 612l35 66l32 -64q-16 2 -30 1q-18 1 -37 -3zM466 232q14 -4 32 -4q14 0 28 4l-30 -63zM608 582l72 24l-25 -71q-19 27 -47 47zM609 262q25 18 42 42 l19 -61zM689 393q2 15 2 29q0 18 -2 32l61 -32z" />
<glyph unicode="&#x25fc;" horiz-adv-x="782" d="M0 0v782h782v-782h-782z" />
<glyph unicode="&#xf700;" horiz-adv-x="766" d="M8 626q16 47 47 87.5t75 70.5t99 47.5t119 17.5h380v-141h-120q16 -12 29 -30t22.5 -39t15 -44.5t5.5 -45.5q0 -38 -18 -97q-18 -58 -52 -139q-8 -18 -19 -42.5t-24 -52.5t-26.5 -58t-26.5 -58.5t-24.5 -55t-18.5 -46.5h-149l-252 479h190l130 -265q9 21 19 42.5 t18.5 42.5t16.5 39t12 32q6 16 14 41t15 51t11.5 49t4.5 37q0 37 -11.5 64.5t-32.5 46.5t-49 28t-60 9q-27 0 -53 -7t-50 -24t-44.5 -44t-36.5 -66z" />
<glyph unicode="&#xf701;" d="M-943 979v127h574v-127h-574z" />
<glyph unicode="&#xf702;" d="M-943 979v127h397v122h177v-249h-574z" />
<glyph unicode="&#xf703;" d="M-944 979v127h308q-2 7 -3 12.5t-1 9.5q0 32 9.5 58t27.5 44t43.5 27.5t57.5 9.5t57.5 -10.5t43.5 -29.5t27.5 -45t9.5 -58t-11 -59t-29.5 -46t-44 -29.5t-55.5 -10.5h-440zM-551 1128q0 -27 11.5 -40t37.5 -13t38 13.5t12 39.5t-12 40.5t-38 14.5t-37.5 -14.5 t-11.5 -40.5z" />
<glyph unicode="&#xf704;" d="M-943 979v127h267v117h117v-117h77v117h113v-244h-574z" />
<glyph unicode="&#xf705;" d="M-636 979v273h177v-273h-177z" />
<glyph unicode="&#xf706;" d="M-889 1236q22 12 43.5 21t39.5 13t30 6q14 2 18 2q28 0 49 -9t34.5 -24t20 -34t6.5 -39q0 -14 -4 -32t-12 -34q74 14 120 54t60 98h145q-9 -42 -29 -80t-51 -70.5t-72 -57t-91 -39.5q-58 -16 -105 -22.5t-79 -10.5h-22l-33 84q14 10 26 20q10 9 18 20.5t8 25.5 q0 16 -9.5 25t-24.5 9q-16 0 -27 -4q-12 -4 -26 -12z" />
<glyph unicode="&#xf707;" d="M-952 1133q0 29 8.5 53t23.5 41.5t35 27t42 9.5q34 0 61.5 -11.5t49.5 -31.5q32 23 59 33t52 10q28 0 46.5 -10t29.5 -25t15 -33t2 -33q-1 -10 -2.5 -16.5t-3.5 -14.5q16 14 28 30t19.5 31.5t11 31t5.5 27.5h109q-4 -36 -16.5 -69t-32.5 -62.5t-45 -54t-53 -42.5 t-57.5 -29t-57.5 -11h-11q-4 -1 -14 0l-23 69q10 6 19 12t15 14.5t9 18.5q4 12 4 26q0 10 -3 16t-7 10t-8 5t-6 1q-10 0 -18 -2.5t-15 -6.5t-13.5 -8.5t-12.5 -8.5q-4 -4 -10.5 -8t-14.5 -4t-15 5t-12 7q-12 8 -24.5 17t-28.5 9q-12 0 -20 -8q-9 -8 -8 -24q0 -14 7 -23.5 t19 -14.5q7 -4 16.5 -5t19.5 -1l-26 -93q-4 -2 -14 -2.5t-20 -0.5q-26 0 -48 14t-36.5 35.5t-22 48t-7.5 51.5z" />
<glyph unicode="&#xf708;" d="M-837 1072v113h142v93h139v-93h142v-113h-142v-92h-139v92h-142z" />
<glyph unicode="&#xf709;" d="M-784 1090q0 41 15 67.5t37 42t48 21.5t48 6h246v-117h-208q-9 0 -15.5 -3t-10.5 -8.5t-6.5 -12t-2.5 -12.5q0 -10 5 -19q6 -9 12 -19l12 -18l-124 -55q-18 20 -29 39.5t-17 36.5t-8 30t-2 21z" />
<glyph unicode="&#xf70a;" d="M-302 979v273h178v-273h-178z" />
<glyph unicode="&#xf70b;" d="M-604 1236q22 12 44 21t39.5 13t30 6t16.5 2q28 0 49 -9t35 -24t21 -34t7 -39q0 -14 -4 -32t-12 -34q36 6 68 20t58 33.5t43 44.5q17 24 25 54h145q-9 -42 -31.5 -80t-56 -70.5t-76.5 -57t-93 -39.5q-58 -16 -105 -22.5t-81 -10.5h-22l-32 84q14 10 26 20q10 9 18 20.5 t8 25.5q0 16 -10 25t-24 9q-16 0 -27 -4t-25 -12z" />
<glyph unicode="&#xf70c;" d="M-632 1133q0 29 8.5 53t23.5 41.5t35 27t42 9.5q34 0 61.5 -11.5t49.5 -31.5q32 23 59 33t52 10q28 0 46.5 -10t29.5 -25t15 -33t2 -33q-1 -10 -2.5 -16.5t-3.5 -14.5q16 14 28 30t19.5 31.5t11 31t5.5 27.5h109q-4 -36 -16.5 -69t-32.5 -62.5t-45 -54t-53 -42.5 t-57.5 -29t-57.5 -11h-11q-4 -1 -14 0l-23 69q10 6 19 12t15 14.5t9 18.5q4 12 4 26q0 10 -3 16t-7 10t-8 5t-6 1q-10 0 -18 -2.5t-15 -6.5t-13.5 -8.5t-12.5 -8.5q-4 -4 -10.5 -8t-14.5 -4t-15 5t-12 7q-12 8 -24.5 17t-28.5 9q-12 0 -20 -8q-9 -8 -8 -24q0 -14 7 -23.5 t19 -14.5q7 -4 16.5 -5t19.5 -1l-26 -93q-4 -2 -14 -2.5t-20 -0.5q-26 0 -48 14t-36.5 35.5t-22 48t-7.5 51.5z" />
<glyph unicode="&#xf70d;" d="M-487 1072v113h142v93h139v-93h142v-113h-142v-92h-139v92h-142z" />
<glyph unicode="&#xf70e;" d="M-465 1090q0 41 14.5 67.5t36.5 42t48 21.5t49 6h245v-117h-208q-9 0 -15.5 -3t-10.5 -8.5t-6 -12t-2 -12.5q0 -10 5 -19t11 -19l12 -18l-124 -55q-18 20 -29 39.5t-17 36.5t-7.5 30t-1.5 21z" />
<glyph unicode="&#xf70f;" horiz-adv-x="1350" d="M66 634q10 16 27.5 39t42 48t56.5 49.5t72 44t88 32t105 12.5q42 0 85.5 -9t82.5 -27.5t73 -46.5t59 -66t39 -86t14 -107v-227q0 -42 11.5 -69.5t29 -44t39 -23.5t42.5 -7q20 0 41 7t37 23.5t26.5 44t10.5 69.5l1 560h178v-562q0 -53 -12.5 -96t-34 -76t-50.5 -56.5 t-62 -39.5t-68 -23t-68 -7q-34 0 -68.5 7t-68 23t-63 39.5t-51.5 56.5t-35 75.5t-13 96.5v228q-2 50 -18 86t-41 58t-55 32t-61 10q-34 0 -63 -5t-52.5 -14t-41.5 -21t-32 -26l113 -122q-24 -22 -46 -48t-38.5 -57t-26.5 -66t-10 -75q0 -20 4.5 -42t13.5 -40t22.5 -30 t33.5 -12h9t13 2t18 6q10 2 22 10l74 -122q-14 -11 -34 -19.5t-42 -14.5t-44 -9.5t-42 -3.5q-38 0 -69 11.5t-56 31.5t-43 47t-30 57.5t-18 63t-6 62.5q0 40 6.5 75t18 66t27.5 59t36 54z" />
<glyph unicode="&#xf710;" d="M-691 1130v74h163v-44q0 -54 74 -54h408v-127h-469q-41 0 -73.5 12t-55 32.5t-35 48.5t-12.5 58z" />
<glyph unicode="&#xf711;" d="M-701 1109q0 30 13 55.5t35.5 45t52.5 30.5t65 11q34 0 64 -11t52.5 -30.5t35.5 -45.5t13 -55q0 -30 -13 -55.5t-35.5 -44.5t-52.5 -30t-64 -11t-64.5 11t-53 30t-35.5 44.5t-13 55.5zM-592 1107q0 -21 15 -36t39 -15q12 0 22 4t17 11t10.5 16t3.5 20q0 10 -3.5 19.5 t-10.5 16t-17 10.5t-22 4q-24 0 -39 -14.5t-15 -35.5z" />
<glyph unicode="&#xf712;" d="M-910 1124q0 33 17 63t50 52t83 35t118 13q14 0 32 -1.5t36 -4t34 -5t28 -6.5l33 52h137l-100 -165q-21 8 -46 14.5t-51.5 11.5t-52.5 8q-28 3 -52 3t-48 -3.5t-44 -12t-32 -21.5t-12 -33t12 -35t29 -19l117 54q14 -17 26.5 -27.5t23 -15.5t20.5 -7t18 -2q12 0 20 7t8 15 v11t-4 17h117q3 -10 4.5 -20t1.5 -16q0 -22 -9.5 -43t-26.5 -37t-41 -25t-54 -9q-26 0 -57 14q-31 12 -60 36l-99 -49q-38 4 -70 15.5t-56 30.5t-37 45t-13 60z" />
<glyph unicode="&#xf713;" d="M-546 1295v215h177v-215h-177z" />
<glyph unicode="&#xf714;" d="M-685 1510q19 11 37.5 17.5t34 10.5t26.5 6t15 2q24 0 42 -8t30 -21t17.5 -29t5.5 -34q0 -12 -3.5 -27t-9.5 -30q64 12 104 47q42 34 54 85h125q-8 -36 -25.5 -69.5t-45 -61.5t-63 -49t-79.5 -34q-50 -14 -90 -19q-42 -6 -70 -8l-18 -2l-28 73q12 8 22 17q8 8 15.5 18 t7.5 22q0 14 -8.5 21.5t-21.5 7.5t-23 -2.5t-22 -10.5z" />
<glyph unicode="&#xf715;" d="M-701 1418q0 24 7.5 45t20.5 36.5t30 24t37 8.5q29 0 52.5 -10.5t43.5 -27.5q27 20 50.5 29t45.5 9q24 0 40 -9t26 -22t13 -28.5t1 -28.5q-1 -9 -2.5 -14.5t-1.5 -12.5q14 12 24 25.5t16.5 27.5t9.5 27t4 25h95q-5 -46 -27 -88t-54.5 -74t-70.5 -51q-39 -19 -75 -20 q-5 0 -9.5 -0.5t-12.5 0.5l-19 59q18 10 29 23t11 39q0 8 -2.5 13.5t-6.5 9t-7 4.5t-5 1q-16 0 -28 -8t-22 -15q-4 -3 -10 -7t-12 -4q-7 0 -13 4q-7 5 -11 8l-20 14q-12 8 -26 8q-10 0 -17 -8q-7 -6 -7 -20q0 -23 22 -33q6 -3 14 -4t18 -1l-22 -80q-4 -1 -13 -2t-17 -1 q-24 0 -42 12t-31 30.5t-19.5 41.5t-6.5 45z" />
<glyph unicode="&#xf716;" d="M-645 1379v102h120v85h125v-85h120v-102h-120v-84h-125v84h-120z" />
<glyph unicode="&#xf717;" d="M-602 1283q0 41 14.5 67t36.5 40.5t48 20t49 5.5h245v-112h-207q-9 0 -15.5 -3.5t-11 -9t-7 -11.5t-2.5 -12q0 -10 5 -19t12 -19l12 -18l-123 -56q-18 20 -29.5 39.5t-17 37t-7.5 30.5t-2 20z" />
<glyph unicode="&#xf718;" d="M-420 -366q20 12 41.5 21.5t42.5 15t39.5 8t33.5 2.5q41 0 68 -13.5t42.5 -34t22 -45t6.5 -46.5v-165h-170v156q0 7 -3 12t-8 8t-11 4t-10 1h-7.5t-11 -1.5t-15.5 -5t-21 -11.5z" />
<glyph unicode="&#xf719;" d="M-624 -364q36 19 67 24.5t53 5.5q35 0 56.5 -9t33.5 -24t16 -33t4 -37v-17q0 -21 5 -34t12.5 -20.5t17 -9.5t19.5 -2q9 0 18.5 2t17.5 9t13 20t5 35v112h162v-116q0 -43 -16 -76.5t-44.5 -56t-69 -34t-89.5 -11.5q-50 0 -88.5 11t-65.5 32t-41 51t-14 68q0 20 -5 28.5 t-15 8.5q-4 0 -14 -1.5t-19 -5.5z" />
<glyph unicode="&#xf71a;" d="M-321 -432q0 22 8.5 41t22.5 33t33 23t41 9t41 -9t33.5 -23t23.5 -34q8 -18 8 -40t-8.5 -41t-23 -33t-33.5 -23t-41 -9t-41 9t-33 23t-22.5 33t-8.5 41z" />
<glyph unicode="&#xf71d;" horiz-adv-x="1034" d="M52 850h179l69 -572l199 388l201 -404l50 280q1 7 1.5 13.5t0.5 12.5q0 31 -11 57.5t-32 45.5t-52 30t-69 11v138h398v-140h-117q12 -10 22.5 -25t19 -33t13 -38t4.5 -42q0 -20 -4 -41l-100 -531h-152l-174 366l-179 -366h-153z" />
<glyph d="M-688 991v63q0 12 2 27t7 31.5t14 32t25 28.5t38 21t54 10q2 18 10 36t25 32.5t44 23.5t67 9h131v-115h-128q-4 0 -9.5 -1.5t-10 -5.5t-7.5 -10.5t-3 -15.5v-66h-87q-20 0 -31 -10.5t-11 -34.5v-55h-130z" />
<glyph horiz-adv-x="650" d="M-701 1109q0 30 13 55.5t35.5 45t52.5 30.5t65 11q34 0 64 -11t52.5 -30.5t35.5 -45.5t13 -55q0 -30 -13 -55.5t-35.5 -44.5t-52.5 -30t-64 -11t-64.5 11t-53 30t-35.5 44.5t-13 55.5zM-592 1107q0 -21 15 -36t39 -15q12 0 22 4t17 11t10.5 16t3.5 20q0 10 -3.5 19.5 t-10.5 16t-17 10.5t-22 4q-24 0 -39 -14.5t-15 -35.5zM-34 702q48 84 119.5 124t156.5 40q76 0 130 -24t88.5 -66.5t50 -100t15.5 -125.5v-550h-178v550q0 80 -27 120.5t-77 40.5q-21 0 -41.5 -5t-40.5 -17.5t-40.5 -34t-41.5 -54.5z" />
<glyph horiz-adv-x="650" d="M-701 1109q0 30 13 55.5t35.5 45t52.5 30.5t65 11q34 0 64 -11t52.5 -30.5t35.5 -45.5t13 -55q0 -30 -13 -55.5t-35.5 -44.5t-52.5 -30t-64 -11t-64.5 11t-53 30t-35.5 44.5t-13 55.5zM-592 1107q0 -21 15 -36t39 -15q12 0 22 4t17 11t10.5 16t3.5 20q0 10 -3.5 19.5 t-10.5 16t-17 10.5t-22 4q-24 0 -39 -14.5t-15 -35.5zM-34 702q48 84 119.5 124t156.5 40q76 0 130 -24t88.5 -66.5t50 -100t15.5 -125.5v-550h-178v550q0 80 -27 120.5t-77 40.5q-21 0 -41.5 -5t-40.5 -17.5t-40.5 -34t-41.5 -54.5z" />
<glyph />
<glyph d="M-302 1240v216h178v-216h-178z" />
<glyph d="M-508 1464q19 11 37.5 17.5t34 10.5t26 6t14.5 2q24 0 42.5 -8t30 -21t17.5 -29t6 -34q0 -12 -3 -27t-11 -30q64 12 105 46.5t53 85.5h126q-8 -36 -26 -69.5t-45 -61.5t-63 -49t-79 -34q-50 -14 -90.5 -19.5t-68.5 -7.5l-20 -2l-27 73q13 8 23 17q8 8 15 18t7 22 q0 14 -8.5 21.5t-21.5 7.5t-22.5 -2.5t-23.5 -10.5z" />
<glyph d="M-512 1368q0 24 8 45t21 36.5t30 24t37 8.5q29 0 52.5 -10.5t43.5 -27.5q27 20 50 29q24 9 46 9q24 0 40 -9t25.5 -22t12.5 -29q4 -15 2 -28q-1 -9 -2.5 -14.5t-2.5 -12.5q14 12 24.5 25.5t16.5 27.5t9 27t5 25h94q-5 -46 -27 -88t-54.5 -74t-70.5 -51t-74 -20 q-5 0 -9.5 -0.5t-12.5 0.5l-20 59q18 10 29 23t11 39q0 8 -2.5 13.5t-6 9t-7.5 4.5q-2 1 -4 1q-16 0 -28 -8t-23 -15q-4 -3 -9.5 -7t-11.5 -4q-7 0 -13.5 4.5t-10.5 7.5q-10 7 -21 14.5t-25 7.5q-10 0 -18 -8q-7 -6 -6 -20q0 -23 22 -33q6 -3 14 -4t18 -1l-22 -80 q-4 -1 -13 -2t-17 -1q-24 0 -42 12t-31 30.5t-20 41.5t-7 45z" />
<glyph d="M-415 1329v102h120v85h125v-85h120v-102h-120v-84h-125v84h-120z" />
<glyph d="M-546 1245v215h177v-215h-177z" />
<glyph d="M-590 1480q19 11 37.5 17.5t34 10.5t26 6t14.5 2q24 0 42.5 -8t30 -21t17.5 -29t6 -34q0 -12 -3 -27t-11 -30q64 12 105 46.5t53 85.5h126q-8 -36 -26 -69.5t-45 -61.5t-63 -49t-79 -34q-50 -14 -90.5 -19.5t-68.5 -7.5l-20 -2l-27 73q13 8 23 17q8 8 15 18t7 22 q0 14 -8.5 21.5t-21.5 7.5t-22.5 -2.5t-23.5 -10.5z" />
<glyph d="M-701 1368q0 24 7.5 45t20.5 36.5t30 24t37 8.5q29 0 52.5 -10.5t43.5 -27.5q27 20 50.5 29t45.5 9q24 0 40 -9t26 -22t13 -28.5t1 -28.5q-1 -9 -2.5 -14.5t-1.5 -12.5q14 12 24 25.5t16.5 27.5t9.5 27t4 25h95q-5 -46 -27 -88t-54.5 -74t-70.5 -51q-39 -19 -75 -20 q-5 0 -9.5 -0.5t-12.5 0.5l-19 59q18 10 29 23t11 39q0 8 -2.5 13.5t-6.5 9t-7 4.5t-5 1q-16 0 -28 -8t-22 -15q-4 -3 -10 -7t-12 -4q-7 0 -13 4q-7 5 -11 8l-20 14q-12 8 -26 8q-10 0 -17 -8q-7 -6 -7 -20q0 -23 22 -33q6 -3 14 -4t18 -1l-22 -80q-4 -1 -13 -2t-17 -1 q-24 0 -42 12t-31 30.5t-19.5 41.5t-6.5 45z" />
<glyph d="M-645 1329v102h120v85h125v-85h120v-102h-120v-84h-125v84h-120z" />
<glyph d="M-665 1124q0 33 16.5 63t50 52t84 35t117.5 13q14 0 32.5 -1.5t36 -4t34 -5t27.5 -6.5l33 52h137l-101 -165q-21 8 -45.5 14.5t-50.5 11.5t-53 8t-51 3t-48.5 -3.5t-44 -12t-32.5 -21.5t-13 -33t12 -35t30 -19l117 54q14 -17 26.5 -27.5t23.5 -15.5t20 -7t17 -2 q12 0 21 7t9 15q0 4 -1 11t-5 17h118q3 -10 4.5 -20t1.5 -16q0 -22 -9.5 -43t-27 -37t-41.5 -25t-52 -9q-26 0 -57 14q-31 12 -61 36l-100 -49q-38 4 -70 15.5t-55 30.5t-37 45q-13 26 -13 60z" />
<glyph d="M-726 979v141h602v-141h-602z" />
<glyph d="M-726 979v127h424v122h178v-249h-602z" />
<glyph d="M-727 979v127h373q-2 6 -3.5 12t-1.5 10q0 32 9.5 58t27.5 44t44 28q26 9 58 9t57 -10.5t43 -29.5t27.5 -45t9.5 -58t-10.5 -59t-29.5 -46t-44.5 -29.5t-55.5 -10.5h-504zM-270 1128q0 -27 12 -40t38 -13t37.5 13.5t11.5 39.5t-11.5 40.5t-37.5 14.5t-38 -14.5t-12 -40.5 z" />
<glyph d="M-726 979v127h260v117h132v-117h78v117h132v-244h-602z" />
<glyph d="M-590 1124q0 33 17 63t50 52t83 35t118 13q14 0 32 -1.5t36 -4t34 -5t28 -6.5l33 52h137l-100 -165q-21 8 -46 14.5t-51.5 11.5t-52.5 8q-28 3 -52 3t-48 -3.5t-44 -12t-32 -21.5t-12 -33t12 -35t29 -19l117 54q14 -17 26.5 -27.5t23 -15.5t20.5 -7t18 -2q12 0 20 7t8 15 v11t-4 17h117q3 -10 4.5 -20t1.5 -16q0 -22 -9.5 -43t-26.5 -37t-41 -25t-54 -9q-26 0 -57 14q-31 12 -60 36l-99 -49q-38 4 -70 15.5t-56 30.5t-37 45t-13 60z" />
<glyph d="M-708 979v127h664v-127h-664z" />
<glyph d="M-708 979v127h486v122h178v-249h-664z" />
<glyph d="M-708 979v127h404q-2 6 -3.5 12t-1.5 10q0 32 9.5 58t27.5 44t44 28q26 9 58 9t57 -10.5t43 -29.5t27.5 -45t9.5 -58t-10.5 -59t-29.5 -46t-44.5 -29.5t-55.5 -10.5h-535zM-220 1128q0 -27 12 -40t38 -13t37.5 13.5t11.5 39.5t-11.5 40.5t-37.5 14.5t-38 -14.5t-12 -40.5 z" />
<glyph d="M-708 979v127h312v117h137v-117h77v117h138v-244h-664z" />
<glyph d="M-222 1295v215h178v-215h-178z" />
<glyph d="M-373 1514q19 11 37.5 17.5t34 10.5t26.5 6t15 2q24 0 42 -8t30 -21t17.5 -29t5.5 -34q0 -12 -3.5 -27t-9.5 -30q64 12 104 47q42 34 54 85h125q-8 -36 -25.5 -69.5t-45 -61.5t-63 -49t-79.5 -34q-50 -14 -90 -19q-42 -6 -70 -8l-18 -2l-28 73q12 8 22 17q8 8 15.5 18 t7.5 22q0 14 -8.5 21.5t-21.5 7.5t-23 -2.5t-22 -10.5z" />
<glyph d="M-366 1418q0 24 7.5 45t20.5 36.5t29.5 24t36.5 8.5q29 0 53 -10q23 -11 43 -28q27 20 50.5 29t45.5 9q24 0 40.5 -9t26 -22t12.5 -28.5t1 -28.5q-1 -9 -2 -14.5t-2 -12.5q14 12 24 25.5t17 27.5t10 27t3 25h96q-5 -46 -27.5 -88t-54.5 -74t-70 -51t-75 -20q-5 0 -9 -1 q-6 0 -14 1l-18 59q18 10 29 23t11 39q0 8 -3 13.5t-6.5 9t-7 4.5t-5.5 1q-16 0 -28 -8t-22 -15q-4 -3 -10 -7t-11 -4q-7 0 -13 4.5t-11 7.5q-10 7 -20.5 14.5t-25.5 7.5q-10 0 -17 -8q-8 -6 -7 -20q0 -23 22 -33q6 -3 14.5 -4t17.5 -1l-23 -80q-4 -1 -12 -2q-10 -1 -18 -1 q-24 0 -42 12t-30.5 30.5t-19 41.5t-6.5 45z" />
<glyph d="M-310 1379v102h120v85h126v-85h120v-102h-120v-84h-126v84h-120z" />
<glyph d="M-250 1278q0 38 14 61t36 35.5t48 17t50 4.5h200v-102h-183q-18 0 -26.5 -9t-8.5 -23q0 -10 5 -18.5t11 -18.5l12 -18l-108 -51q-16 18 -26 37t-15.5 36t-7 29.5t-1.5 19.5z" />
<glyph d="M-535 -133q20 12 41.5 21.5t42.5 14.5t40 8t33 3q41 0 67.5 -14t42.5 -34t22.5 -45t6.5 -47v-164h-170v156q0 7 -3.5 11.5t-8 7.5t-10 4t-9.5 1h-7.5t-11.5 -1t-16 -5t-21 -12z" />
<glyph d="M-638 -118q36 19 66 25t52 6q35 0 57 -9.5t34 -23.5t16 -33t4 -37v-17q0 -21 4.5 -34t12.5 -20t18 -10t20 -3q9 0 18 2t16.5 9t12.5 21t5 36v112h163v-118q0 -43 -15.5 -75.5t-44.5 -55.5t-69 -35t-90 -12t-88.5 12t-65 33t-41 51t-14.5 68q0 20 -5 28t-15 8q-4 0 -14 -2 t-19 -6z" />
<glyph d="M-471 -168q0 22 8.5 41.5t22.5 34t33 22.5t41 8t41 -8t33.5 -22.5t23 -34t8.5 -41.5t-8.5 -40.5t-23 -33t-33.5 -22.5t-41 -8t-41 8t-33 22.5t-22.5 33t-8.5 40.5z" />
<glyph horiz-adv-x="690" d="M-255 1109q0 30 13 55.5t35.5 45t52.5 30.5t65 11q34 0 64 -11t52.5 -30.5t35.5 -45.5t13 -55q0 -30 -13 -55.5t-35.5 -44.5t-52.5 -30t-64 -11t-64.5 11t-53 30t-35.5 44.5t-13 55.5zM-146 1107q0 -21 15 -36t39 -15q12 0 22 4t17 11t10.5 16t3.5 20q0 10 -3.5 19.5 t-10.5 16t-17 10.5t-22 4q-24 0 -39 -14.5t-15 -35.5zM6 702q48 84 119.5 124t156.5 40q76 0 130 -24t88.5 -66.5t50 -100t15.5 -125.5v-550h-178v550q0 80 -27 120.5t-77 40.5q-21 0 -41.5 -5t-40.5 -17.5t-40.5 -34t-41.5 -54.5z" />
<glyph d="M-255 1109q0 30 13 55.5t35.5 45t52.5 30.5t65 11q34 0 64 -11t52.5 -30.5t35.5 -45.5t13 -55q0 -30 -13 -55.5t-35.5 -44.5t-52.5 -30t-64 -11t-64.5 11t-53 30t-35.5 44.5t-13 55.5zM-146 1107q0 -21 15 -36t39 -15q12 0 22 4t17 11t10.5 16t3.5 20q0 10 -3.5 19.5 t-10.5 16t-17 10.5t-22 4q-24 0 -39 -14.5t-15 -35.5z" />
<glyph d="M-186 1295v215h177v-215h-177z" />
<glyph d="M-368 1514q19 11 37.5 17.5t34 10.5t26 6t14.5 2q24 0 42.5 -8t30 -21t17.5 -29t6 -34q0 -12 -3 -27t-11 -30q64 12 105 46.5t53 85.5h126q-8 -36 -26 -69.5t-45 -61.5t-63 -49t-79 -34q-50 -14 -90.5 -19.5t-68.5 -7.5l-20 -2l-27 73q13 8 23 17q8 8 15 18t7 22 q0 14 -8.5 21.5t-21.5 7.5t-22.5 -2.5t-23.5 -10.5z" />
<glyph d="M-342 1418q0 24 8 45t21 36.5t30 24t37 8.5q29 0 52.5 -10.5t43.5 -27.5q27 20 50 29q24 9 46 9q24 0 40 -9t25.5 -22t12.5 -29q4 -15 2 -28q-1 -9 -2.5 -14.5t-2.5 -12.5q14 12 24.5 25.5t16.5 27.5t9 27t5 25h94q-5 -46 -27 -88t-54.5 -74t-70.5 -51t-74 -20 q-5 0 -9.5 -0.5t-12.5 0.5l-20 59q18 10 29 23t11 39q0 8 -2.5 13.5t-6 9t-7.5 4.5q-2 1 -4 1q-16 0 -28 -8t-23 -15q-4 -3 -9.5 -7t-11.5 -4q-7 0 -13.5 4.5t-10.5 7.5q-10 7 -21 14.5t-25 7.5q-10 0 -18 -8q-7 -6 -6 -20q0 -23 22 -33q6 -3 14 -4t18 -1l-22 -80 q-4 -1 -13 -2t-17 -1q-24 0 -42 12t-31 30.5t-20 41.5t-7 45z" />
<glyph d="M-275 1379v102h120v85h125v-85h120v-102h-120v-84h-125v84h-120z" />
<glyph d="M-470 -133q20 12 41.5 21.5t42.5 14.5t39.5 8t33.5 3q41 0 68 -14t42.5 -34t22 -45t6.5 -47v-164h-170v156q0 7 -3 11.5t-8 7.5t-11 4t-10 1h-7.5t-11 -1t-15.5 -5t-21 -12z" />
<glyph d="M-694 -118q36 19 67 25t53 6q35 0 56.5 -9.5t33.5 -23.5t16 -33t4 -37v-17q0 -21 5 -34t12.5 -20t17 -10t19.5 -3q9 0 18.5 2t17.5 9t13 21t5 36v112h162v-118q0 -43 -16 -75.5t-44.5 -55.5t-69 -35t-89.5 -12q-50 0 -88.5 12t-65.5 33t-41 51t-14 68q0 20 -5 28t-15 8 q-4 0 -14 -2t-19 -6z" />
<glyph d="M-371 -172q0 22 8.5 41t22.5 33t33 23t41 9t41 -9t33.5 -23t23.5 -34q8 -18 8 -40t-8.5 -41t-23 -33t-33.5 -23t-41 -9t-41 9t-33 23t-22.5 33t-8.5 41z" />
<glyph d="M-515 -133q20 12 41.5 21.5t42.5 14.5t40 8t33 3q41 0 67.5 -14t42.5 -34t22.5 -45t6.5 -47v-164h-170v156q0 7 -3.5 11.5t-8 7.5t-10 4t-9.5 1h-7.5t-11.5 -1t-16 -5t-21 -12z" />
<glyph d="M-634 -118q36 19 67 25t53 6q35 0 56.5 -9.5t33.5 -23.5t16 -33t4 -37v-17q0 -21 5 -34t12.5 -20t17 -10t19.5 -3q9 0 18.5 2t17.5 9t13 21t5 36v112h162v-118q0 -43 -16 -75.5t-44.5 -55.5t-69 -35t-89.5 -12q-50 0 -88.5 12t-65.5 33t-41 51t-14 68q0 20 -5 28t-15 8 q-4 0 -14 -2t-19 -6z" />
<glyph d="M-456 -172q0 22 8.5 41t23 33t33.5 23t40 9q22 0 41.5 -9t33.5 -23t22 -34q9 -18 9 -40t-8.5 -41t-22.5 -33t-34 -23t-41 -9q-22 0 -40.5 9t-33 23t-23 33t-8.5 41z" />
<glyph d="M-798 979v127h674v-127h-674z" />
<glyph d="M-798 979v127h496v122h178v-249h-674z" />
<glyph d="M-798 979v127h444q-2 6 -3.5 12t-1.5 10q0 32 9.5 58t27.5 44t44 28q26 9 58 9t57 -10.5t43 -29.5t27.5 -45t9.5 -58t-10.5 -59t-29.5 -46t-44.5 -29.5t-55.5 -10.5h-575zM-270 1128q0 -27 12 -40t38 -13t37.5 13.5t11.5 39.5t-11.5 40.5t-37.5 14.5t-38 -14.5t-12 -40.5 z" />
<glyph d="M-798 979v127h322v117h137v-117h77v117h138v-244h-674z" />
</font>
</defs>
</svg>
