<svg xmlns="http://www.w3.org/2000/svg" xmlns:xlink="http://www.w3.org/1999/xlink" width="53.385" height="48.193" viewBox="0 0 53.385 48.193"><defs><style>.a{fill:#39454f;}.b{clip-path:url(#a);}</style><clipPath id="a"><rect class="a" width="53.385" height="48.193"/></clipPath></defs><g transform="translate(-326 -1005)"><g transform="translate(326 1005)"><g class="b" transform="translate(0 0)"><path class="a" d="M451.215,1071.036a6.376,6.376,0,1,0-6.375-6.376,6.376,6.376,0,0,0,6.375,6.376Zm0-10.947a4.572,4.572,0,1,1-4.572,4.572,4.572,4.572,0,0,1,4.572-4.572Zm0,0" transform="translate(-431.427 -1052.271)"/><path class="a" d="M373.876,1027.518a.9.9,0,0,0-.526-.636l-9.728-4.164a.9.9,0,0,0-.693-.007l-6.6,2.667a12.644,12.644,0,0,0-1.454-15.853.9.9,0,0,0-.263-.266,12.493,12.493,0,0,0-8.794-3.619,12.729,12.729,0,0,0-10.673,19.742l-3.114,1.333a.9.9,0,0,0-.526.636l-5.487,25.075a.9.9,0,0,0,1.2,1.037l11.64-4.336,13.577,4.077a.9.9,0,0,0,.5,0l13.588-3.808,11.652,4.232a.9.9,0,0,0,1.189-1.04Zm-28.845,8.111a.9.9,0,0,0,1.271,0l5.516-5.438-.027,20.935-11.972-3.6,2.007-15.111Zm8.592-7.211,8.847-3.577,3,22.981-11.88,3.33Zm-15.565-17.759a10.839,10.839,0,0,1,7.721-3.2h.036a10.658,10.658,0,0,1,7.636,3.193s0,0,0,0a10.841,10.841,0,0,1,0,15.39l-7.787,7.677-7.669-7.67a10.879,10.879,0,0,1-3.159-7.718,10.738,10.738,0,0,1,3.215-7.675Zm-4.889,17.532,3.117-1.335q.212.238.438.467l3.5,3.495-2.218,16.7-9.867,3.676Zm34.116,19.569-2.979-22.787,7.908,3.384,5.038,23.023Zm0,0" transform="translate(-325.999 -1005.568)"/></g></g></g></svg>