<svg xmlns="http://www.w3.org/2000/svg" width="26.954" height="48.849" viewBox="0 0 26.954 48.849"><defs><style>.a{fill:#39454f;}</style></defs><g transform="translate(-549 -1195)"><path class="a" d="M575.111,1217.4a.845.845,0,0,0-.843.843v5.055a11.791,11.791,0,0,1-23.581,0v-5.055a.843.843,0,1,0-1.687,0v5.055a13.479,13.479,0,0,0,12.634,13.432v4.257h-4.211a.841.841,0,1,0,0,1.681h10.109a.841.841,0,0,0,0-1.681H563.32v-4.257a13.48,13.48,0,0,0,12.634-13.432v-5.055a.845.845,0,0,0-.843-.843Zm0,0" transform="translate(0 1.183)"/><path class="a" d="M562.266,1233.745a9.278,9.278,0,0,0,9.266-9.266v-20.213a9.266,9.266,0,0,0-18.532,0v20.213a9.278,9.278,0,0,0,9.266,9.266Zm-7.579-29.479a7.579,7.579,0,0,1,15.159,0v20.213a7.579,7.579,0,0,1-15.159,0Zm0,0" transform="translate(0.211)"/></g></svg>