<svg xmlns="http://www.w3.org/2000/svg" xmlns:xlink="http://www.w3.org/1999/xlink" width="47.684" height="48.662" viewBox="0 0 47.684 48.662"><defs><style>.a{fill:#39454f;}.b{clip-path:url(#a);}</style><clipPath id="a"><rect class="a" width="47.684" height="48.662"/></clipPath></defs><g transform="translate(-539 -1195)"><g transform="translate(539 1195)"><g class="b"><path class="a" d="M571.223,1218.81H565.4a3.264,3.264,0,0,0-2.332-2.328v-8.266a.814.814,0,1,0-1.628,0v8.266a3.253,3.253,0,1,0,3.96,3.96h5.819a.816.816,0,1,0,0-1.632Zm-8.967,2.448a1.63,1.63,0,1,1,1.632-1.632,1.633,1.633,0,0,1-1.632,1.632Zm0,0" transform="translate(-538.622 -1194.766)"/><path class="a" d="M579.843,1203.239l3.339,3.335a.818.818,0,0,0,1.154,0,6.621,6.621,0,0,0-9.365-9.361.83.83,0,0,0-.24.578.812.812,0,0,0,.24.577l3.721,3.718-1.385,1.385a21.957,21.957,0,0,0-29.341,0l-1.389-1.385,3.721-3.718a.823.823,0,0,0,.238-.577.834.834,0,0,0-.238-.578,6.621,6.621,0,0,0-9.366,9.361.817.817,0,0,0,.578.238.8.8,0,0,0,.577-.238l3.34-3.335,1.364,1.364a21.974,21.974,0,0,0,4.693,34.216l-2.468,2.468a.818.818,0,0,0,0,1.155.813.813,0,0,0,1.15,0l2.814-2.814a21.943,21.943,0,0,0,19.307,0l2.81,2.814a.816.816,0,1,0,1.153-1.155l-2.467-2.468a21.973,21.973,0,0,0,4.692-34.216Zm3.339-4.872a5,5,0,0,1,.53,6.432l-6.961-6.961a4.993,4.993,0,0,1,6.431.529Zm-41.622,6.432a4.989,4.989,0,0,1,6.961-6.961Zm21.074,35.434a20.378,20.378,0,1,1,20.378-20.378,20.4,20.4,0,0,1-20.378,20.378Zm0,0" transform="translate(-539 -1194.995)"/></g></g><path d="M562.21,1203.346a.813.813,0,0,0,.816-.811v-.816a.814.814,0,1,0-1.628,0v.816a.81.81,0,0,0,.812.811Zm0,0" transform="translate(0.423 0.111)"/><path d="M562.21,1235.3a.814.814,0,0,0-.812.816v.816a.814.814,0,1,0,1.628,0v-.816a.815.815,0,0,0-.816-.816Zm0,0" transform="translate(0.423 0.761)"/><path d="M579.011,1220.132h.816a.814.814,0,1,0,0-1.627h-.816a.814.814,0,1,0,0,1.627Zm0,0" transform="translate(0.74 0.444)"/><path d="M545.428,1218.505h-.815a.814.814,0,1,0,0,1.627h.815a.814.814,0,0,0,0-1.627Zm0,0" transform="translate(0.091 0.444)"/><path d="M574.093,1206.3l-.577.573a.816.816,0,0,0,1.154,1.154l.573-.577a.813.813,0,0,0-1.15-1.15Zm0,0" transform="translate(0.647 0.209)"/><path d="M549.769,1230.622l-.577.577a.813.813,0,1,0,1.149,1.151l.578-.577a.813.813,0,0,0-1.15-1.15Zm0,0" transform="translate(0.188 0.668)"/><path d="M574.671,1230.622a.815.815,0,0,0-1.154,1.15l.577.577a.813.813,0,0,0,1.15-1.151Zm0,0" transform="translate(0.647 0.668)"/><path d="M550.342,1206.3a.813.813,0,0,0-1.149,1.15l.577.577a.8.8,0,0,0,.573.239.816.816,0,0,0,.578-1.393Zm0,0" transform="translate(0.188 0.209)"/></g></svg>