<svg xmlns="http://www.w3.org/2000/svg" width="48.195" height="48.197" viewBox="0 0 48.195 48.197"><defs><style>.a{fill:#39454f;}</style></defs><g transform="translate(-306 -962)"><path class="a" d="M353.482,981.367a.713.713,0,0,0,.713-.713v-3.6a7.043,7.043,0,0,0-4.593-6.623,7.146,7.146,0,0,0-3.865-3.908,7.082,7.082,0,0,0-6.6-4.527h-3.656a.713.713,0,1,0,0,1.426h3.656a5.652,5.652,0,0,1,5.645,5.646V986.9l-9.881-11.151a.713.713,0,0,0-1.067,0L323.2,987.764l-6.142-5.7a.713.713,0,0,0-.977.006l-8.651,8.232V969.071a5.652,5.652,0,0,1,5.645-5.645h16.85a.713.713,0,1,0,0-1.426h-16.85A7.079,7.079,0,0,0,306,969.071v26.07a7.082,7.082,0,0,0,4.368,6.534,7.093,7.093,0,0,0,4.124,4.082,7.071,7.071,0,0,0,6.564,4.44h26.067a7.079,7.079,0,0,0,7.072-7.071V984.053a.713.713,0,1,0-1.426,0v19.073a5.652,5.652,0,0,1-5.646,5.645H321.056a5.647,5.647,0,0,1-4.754-2.6c.221.021.443.032.666.032h26.069a7.079,7.079,0,0,0,7.072-7.072V973.063a7.172,7.172,0,0,0-.049-.831,5.623,5.623,0,0,1,2.71,4.825v3.6a.713.713,0,0,0,.713.713Zm-46.056,13.773v-2.874l9.148-8.706,6.185,5.744a.713.713,0,0,0,1.019-.05L334.372,977.3l10.414,11.753v6.088a5.652,5.652,0,0,1-5.645,5.646h-26.07a5.652,5.652,0,0,1-5.645-5.646Zm41.257,3.991a5.652,5.652,0,0,1-5.646,5.646H316.968a5.644,5.644,0,0,1-1.709-.264l-.018-.006a5.656,5.656,0,0,1-3.039-2.351,7.065,7.065,0,0,0,.87.055h26.07a7.08,7.08,0,0,0,7.071-7.072v-26.07c0-.234-.012-.466-.035-.7a5.7,5.7,0,0,1,2.2,2.854,5.623,5.623,0,0,1,.3,1.833v26.069Zm0,0" transform="translate(0 0)"/><path class="a" d="M363.414,1023.306a3.892,3.892,0,1,0,3.892-3.892,3.9,3.9,0,0,0-3.892,3.892Zm6.359,0a2.466,2.466,0,1,1-2.466-2.466,2.469,2.469,0,0,1,2.466,2.466Zm0,0" transform="translate(-52.009 -52.009)"/></g></svg>